<svg width="188" height="46" viewBox="0 0 188 46" fill="none" xmlns="http://www.w3.org/2000/svg">
<path d="M184 14H170V18H184V14Z" fill="white"/>
<path d="M178 14H4V32H178V14Z" fill="white"/>
<path d="M13 18H11V20H13V18Z" fill="black"/>
<path d="M14 18H12V20H14V18Z" fill="black"/>
<path d="M13 19H11V21H13V19Z" fill="black"/>
<path d="M14 19H12V21H14V19Z" fill="black"/>
<path d="M13 25H11V27H13V25Z" fill="black"/>
<path d="M14 25H12V27H14V25Z" fill="black"/>
<path d="M13 27H11V29H13V27Z" fill="black"/>
<path d="M14 27H12V29H14V27Z" fill="black"/>
<path d="M34 18H32V20H34V18Z" fill="black"/>
<path d="M36 18H34V20H36V18Z" fill="black"/>
<path d="M34 19H32V21H34V19Z" fill="black"/>
<path d="M36 19H34V21H36V19Z" fill="black"/>
<path d="M34 25H32V27H34V25Z" fill="black"/>
<path d="M36 25H34V27H36V25Z" fill="black"/>
<path d="M34 27H32V29H34V27Z" fill="black"/>
<path d="M36 27H34V29H36V27Z" fill="black"/>
<path d="M55 28H53V30H55V28Z" fill="black"/>
<path d="M57 28H55V30H57V28Z" fill="black"/>
<path d="M55 30H53V32H55V30Z" fill="black"/>
<path d="M57 30H55V32H57V30Z" fill="black"/>
<path d="M55 25H53V27H55V25Z" fill="black"/>
<path d="M57 25H55V27H57V25Z" fill="black"/>
<path d="M55 27H53V29H55V27Z" fill="black"/>
<path d="M57 27H55V29H57V27Z" fill="black"/>
<path d="M55 21H53V23H55V21Z" fill="black"/>
<path d="M57 21H55V23H57V21Z" fill="black"/>
<path d="M55 23H53V25H55V23Z" fill="black"/>
<path d="M57 23H55V25H57V23Z" fill="black"/>
<path d="M55 18H53V20H55V18Z" fill="black"/>
<path d="M57 18H55V20H57V18Z" fill="black"/>
<path d="M55 19H53V21H55V19Z" fill="black"/>
<path d="M57 19H55V21H57V19Z" fill="black"/>
<path d="M76 25H74V27H76V25Z" fill="black"/>
<path d="M78 25H76V27H78V25Z" fill="black"/>
<path d="M76 27H74V29H76V27Z" fill="black"/>
<path d="M78 27H76V29H78V27Z" fill="black"/>
<path d="M76 21H74V23H76V21Z" fill="black"/>
<path d="M78 21H76V23H78V21Z" fill="black"/>
<path d="M76 23H74V25H76V23Z" fill="black"/>
<path d="M78 23H76V25H78V23Z" fill="black"/>
<path d="M76 18H74V20H76V18Z" fill="black"/>
<path d="M78 18H76V20H78V18Z" fill="black"/>
<path d="M76 19H74V21H76V19Z" fill="black"/>
<path d="M78 19H76V21H78V19Z" fill="black"/>
<path d="M87 28H85V30H87V28Z" fill="black"/>
<path d="M89 28H87V30H89V28Z" fill="black"/>
<path d="M87 30H85V32H87V30Z" fill="black"/>
<path d="M89 30H87V32H89V30Z" fill="black"/>
<path d="M87 25H85V27H87V25Z" fill="black"/>
<path d="M89 25H87V27H89V25Z" fill="black"/>
<path d="M87 27H85V29H87V27Z" fill="black"/>
<path d="M89 27H87V29H89V27Z" fill="black"/>
<path d="M87 21H85V23H87V21Z" fill="black"/>
<path d="M89 21H87V23H89V21Z" fill="black"/>
<path d="M87 23H85V25H87V23Z" fill="black"/>
<path d="M89 23H87V25H89V23Z" fill="black"/>
<path d="M87 18H85V20H87V18Z" fill="black"/>
<path d="M89 18H87V20H89V18Z" fill="black"/>
<path d="M87 19H85V21H87V19Z" fill="black"/>
<path d="M89 19H87V21H89V19Z" fill="black"/>
<path d="M87 14H85V16H87V14Z" fill="black"/>
<path d="M89 14H87V16H89V14Z" fill="black"/>
<path d="M87 16H85V18H87V16Z" fill="black"/>
<path d="M89 16H87V18H89V16Z" fill="black"/>
<path d="M91 11H89V13H91V11Z" fill="black"/>
<path d="M92 11H90V13H92V11Z" fill="black"/>
<path d="M91 12H89V14H91V12Z" fill="black"/>
<path d="M92 12H90V14H92V12Z" fill="black"/>
<path d="M91 32H89V34H91V32Z" fill="black"/>
<path d="M92 32H90V34H92V32Z" fill="black"/>
<path d="M91 34H89V36H91V34Z" fill="black"/>
<path d="M92 34H90V36H92V34Z" fill="black"/>
<path d="M91 35H89V37H91V35Z" fill="black"/>
<path d="M92 35H90V37H92V35Z" fill="black"/>
<path d="M91 37H89V39H91V37Z" fill="black"/>
<path d="M92 37H90V39H92V37Z" fill="black"/>
<path d="M94 39H92V41H94V39Z" fill="black"/>
<path d="M96 39H94V41H96V39Z" fill="black"/>
<path d="M94 41H92V43H94V41Z" fill="black"/>
<path d="M96 41H94V43H96V41Z" fill="black"/>
<path d="M101 39H99V41H101V39Z" fill="black"/>
<path d="M103 39H101V41H103V39Z" fill="black"/>
<path d="M101 41H99V43H101V41Z" fill="black"/>
<path d="M103 41H101V43H103V41Z" fill="black"/>
<path d="M119 39H117V41H119V39Z" fill="black"/>
<path d="M121 39H119V41H121V39Z" fill="black"/>
<path d="M119 41H117V43H119V41Z" fill="black"/>
<path d="M121 41H119V43H121V41Z" fill="black"/>
<path d="M123 35H121V37H123V35Z" fill="black"/>
<path d="M124 35H122V37H124V35Z" fill="black"/>
<path d="M123 37H121V39H123V37Z" fill="black"/>
<path d="M124 37H122V39H124V37Z" fill="black"/>
<path d="M123 32H121V34H123V32Z" fill="black"/>
<path d="M124 32H122V34H124V32Z" fill="black"/>
<path d="M123 34H121V36H123V34Z" fill="black"/>
<path d="M124 34H122V36H124V34Z" fill="black"/>
<path d="M98 32H96V34H98V32Z" fill="black"/>
<path d="M100 32H98V34H100V32Z" fill="black"/>
<path d="M98 34H96V36H98V34Z" fill="black"/>
<path d="M100 34H98V36H100V34Z" fill="black"/>
<path d="M98 35H96V37H98V35Z" fill="black"/>
<path d="M100 35H98V37H100V35Z" fill="black"/>
<path d="M98 37H96V39H98V37Z" fill="black"/>
<path d="M100 37H98V39H100V37Z" fill="black"/>
<path d="M98 42H96V44H98V42Z" fill="black"/>
<path d="M100 42H98V44H100V42Z" fill="black"/>
<path d="M98 44H96V46H98V44Z" fill="black"/>
<path d="M100 44H98V46H100V44Z" fill="black"/>
<path d="M101 42H99V44H101V42Z" fill="black"/>
<path d="M103 42H101V44H103V42Z" fill="black"/>
<path d="M101 44H99V46H101V44Z" fill="black"/>
<path d="M103 44H101V46H103V44Z" fill="black"/>
<path d="M105 42H103V44H105V42Z" fill="black"/>
<path d="M107 42H105V44H107V42Z" fill="black"/>
<path d="M105 44H103V46H105V44Z" fill="black"/>
<path d="M107 44H105V46H107V44Z" fill="black"/>
<path d="M108 42H106V44H108V42Z" fill="black"/>
<path d="M110 42H108V44H110V42Z" fill="black"/>
<path d="M108 44H106V46H108V44Z" fill="black"/>
<path d="M110 44H108V46H110V44Z" fill="black"/>
<path d="M112 42H110V44H112V42Z" fill="black"/>
<path d="M114 42H112V44H114V42Z" fill="black"/>
<path d="M112 44H110V46H112V44Z" fill="black"/>
<path d="M114 44H112V46H114V44Z" fill="black"/>
<path d="M116 42H114V44H116V42Z" fill="black"/>
<path d="M117 42H115V44H117V42Z" fill="black"/>
<path d="M116 44H114V46H116V44Z" fill="black"/>
<path d="M117 44H115V46H117V44Z" fill="black"/>
<path d="M94 14H92V16H94V14Z" fill="black"/>
<path d="M96 14H94V16H96V14Z" fill="black"/>
<path d="M94 16H92V18H94V16Z" fill="black"/>
<path d="M96 16H94V18H96V16Z" fill="black"/>
<path d="M94 18H92V20H94V18Z" fill="black"/>
<path d="M96 18H94V20H96V18Z" fill="black"/>
<path d="M94 19H92V21H94V19Z" fill="black"/>
<path d="M96 19H94V21H96V19Z" fill="black"/>
<path d="M94 21H92V23H94V21Z" fill="black"/>
<path d="M96 21H94V23H96V21Z" fill="black"/>
<path d="M94 23H92V25H94V23Z" fill="black"/>
<path d="M96 23H94V25H96V23Z" fill="black"/>
<path d="M94 25H92V27H94V25Z" fill="black"/>
<path d="M96 25H94V27H96V25Z" fill="black"/>
<path d="M94 27H92V29H94V27Z" fill="black"/>
<path d="M96 27H94V29H96V27Z" fill="black"/>
<path d="M94 28H92V30H94V28Z" fill="black"/>
<path d="M96 28H94V30H96V28Z" fill="black"/>
<path d="M94 30H92V32H94V30Z" fill="black"/>
<path d="M96 30H94V32H96V30Z" fill="black"/>
<path d="M91 7H89V9H91V7Z" fill="black"/>
<path d="M92 7H90V9H92V7Z" fill="black"/>
<path d="M91 9H89V11H91V9Z" fill="black"/>
<path d="M92 9H90V11H92V9Z" fill="black"/>
<path d="M94 4H92V6H94V4Z" fill="black"/>
<path d="M96 4H94V6H96V4Z" fill="black"/>
<path d="M94 5H92V7H94V5Z" fill="black"/>
<path d="M96 5H94V7H96V5Z" fill="black"/>
<path d="M98 11H96V13H98V11Z" fill="black"/>
<path d="M100 11H98V13H100V11Z" fill="black"/>
<path d="M98 12H96V14H98V12Z" fill="black"/>
<path d="M100 12H98V14H100V12Z" fill="black"/>
<path d="M98 7H96V9H98V7Z" fill="black"/>
<path d="M100 7H98V9H100V7Z" fill="black"/>
<path d="M98 9H96V11H98V9Z" fill="black"/>
<path d="M100 9H98V11H100V9Z" fill="black"/>
<path d="M108 21H106V23H108V21Z" fill="white"/>
<path d="M110 21H108V23H110V21Z" fill="white"/>
<path d="M108 23H106V25H108V23Z" fill="white"/>
<path d="M110 23H108V25H110V23Z" fill="white"/>
<path d="M112 21H110V23H112V21Z" fill="white"/>
<path d="M114 21H112V23H114V21Z" fill="white"/>
<path d="M112 23H110V25H112V23Z" fill="white"/>
<path d="M114 23H112V25H114V23Z" fill="white"/>
<path d="M116 21H114V23H116V21Z" fill="white"/>
<path d="M117 21H115V23H117V21Z" fill="white"/>
<path d="M116 23H114V25H116V23Z" fill="white"/>
<path d="M117 23H115V25H117V23Z" fill="white"/>
<path d="M108 14H106V16H108V14Z" fill="white"/>
<path d="M110 14H108V16H110V14Z" fill="white"/>
<path d="M108 16H106V18H108V16Z" fill="white"/>
<path d="M110 16H108V18H110V16Z" fill="white"/>
<path d="M110 25H108V27H110V25Z" fill="black"/>
<path d="M108 28H106V30H108V28Z" fill="white"/>
<path d="M110 28H108V30H110V28Z" fill="white"/>
<path d="M108 30H106V32H108V30Z" fill="white"/>
<path d="M110 30H108V32H110V30Z" fill="white"/>
<path d="M112 14H110V16H112V14Z" fill="white"/>
<path d="M114 14H112V16H114V14Z" fill="white"/>
<path d="M112 16H110V18H112V16Z" fill="white"/>
<path d="M114 16H112V18H114V16Z" fill="white"/>
<path d="M105 21H103V23H105V21Z" fill="white"/>
<path d="M107 21H105V23H107V21Z" fill="white"/>
<path d="M105 23H103V25H105V23Z" fill="white"/>
<path d="M107 23H105V25H107V23Z" fill="white"/>
<path d="M112 28H110V30H112V28Z" fill="white"/>
<path d="M114 28H112V30H114V28Z" fill="white"/>
<path d="M112 30H110V32H112V30Z" fill="white"/>
<path d="M114 30H112V32H114V30Z" fill="white"/>
<path d="M94 11H92V13H94V11Z" fill="#FF636B"/>
<path d="M96 11H94V13H96V11Z" fill="#FF636B"/>
<path d="M94 12H92V14H94V12Z" fill="#FF636B"/>
<path d="M96 12H94V14H96V12Z" fill="#FF636B"/>
<path d="M94 7H92V9H94V7Z" fill="#FF636B"/>
<path d="M96 7H94V9H96V7Z" fill="#FF636B"/>
<path d="M94 9H92V11H94V9Z" fill="#FF636B"/>
<path d="M96 9H94V11H96V9Z" fill="#FF636B"/>
<path d="M91 18H89V20H91V18Z" fill="#FF636B"/>
<path d="M92 18H90V20H92V18Z" fill="#FF636B"/>
<path d="M91 19H89V21H91V19Z" fill="#FF636B"/>
<path d="M92 19H90V21H92V19Z" fill="#FF636B"/>
<path d="M91 14H89V16H91V14Z" fill="#FF636B"/>
<path d="M92 14H90V16H92V14Z" fill="#FF636B"/>
<path d="M91 16H89V18H91V16Z" fill="#FF636B"/>
<path d="M92 16H90V18H92V16Z" fill="#FF636B"/>
<path d="M91 25H89V27H91V25Z" fill="#FF636B"/>
<path d="M92 25H90V27H92V25Z" fill="#FF636B"/>
<path d="M91 27H89V29H91V27Z" fill="#FF636B"/>
<path d="M92 27H90V29H92V27Z" fill="#FF636B"/>
<path d="M91 21H89V23H91V21Z" fill="#FF636B"/>
<path d="M92 21H90V23H92V21Z" fill="#FF636B"/>
<path d="M91 23H89V25H91V23Z" fill="#FF636B"/>
<path d="M92 23H90V25H92V23Z" fill="#FF636B"/>
<path d="M94 35H92V37H94V35Z" fill="#FF636B"/>
<path d="M96 35H94V37H96V35Z" fill="#FF636B"/>
<path d="M94 37H92V39H94V37Z" fill="#FF636B"/>
<path d="M96 37H94V39H96V37Z" fill="#FF636B"/>
<path d="M91 28H89V30H91V28Z" fill="#FF636B"/>
<path d="M92 28H90V30H92V28Z" fill="#FF636B"/>
<path d="M91 30H89V32H91V30Z" fill="#FF636B"/>
<path d="M92 30H90V32H92V30Z" fill="#FF636B"/>
<path d="M98 39H96V41H98V39Z" fill="#FF636B"/>
<path d="M100 39H98V41H100V39Z" fill="#FF636B"/>
<path d="M98 41H96V43H98V41Z" fill="#FF636B"/>
<path d="M100 41H98V43H100V41Z" fill="#FF636B"/>
<path d="M94 32H92V34H94V32Z" fill="#FF636B"/>
<path d="M96 32H94V34H96V32Z" fill="#FF636B"/>
<path d="M94 34H92V36H94V34Z" fill="#FF636B"/>
<path d="M96 34H94V36H96V34Z" fill="#FF636B"/>
<path d="M98 4H96V6H98V4Z" fill="#FF636B"/>
<path d="M100 4H98V6H100V4Z" fill="#FF636B"/>
<path d="M98 5H96V7H98V5Z" fill="#FF636B"/>
<path d="M100 5H98V7H100V5Z" fill="#FF636B"/>
<path d="M101 11H99V13H101V11Z" fill="#FF636B"/>
<path d="M103 11H101V13H103V11Z" fill="#FF636B"/>
<path d="M101 12H99V14H101V12Z" fill="#FF636B"/>
<path d="M103 12H101V14H103V12Z" fill="#FF636B"/>
<path d="M101 7H99V9H101V7Z" fill="#FF636B"/>
<path d="M103 7H101V9H103V7Z" fill="#FF636B"/>
<path d="M101 9H99V11H101V9Z" fill="#FF636B"/>
<path d="M103 9H101V11H103V9Z" fill="#FF636B"/>
<path d="M101 18H99V20H101V18Z" fill="#FF636B"/>
<path d="M103 18H101V20H103V18Z" fill="#FF636B"/>
<path d="M101 19H99V21H101V19Z" fill="#FF636B"/>
<path d="M103 19H101V21H103V19Z" fill="#FF636B"/>
<path d="M101 14H99V16H101V14Z" fill="#FF636B"/>
<path d="M103 14H101V16H103V14Z" fill="#FF636B"/>
<path d="M101 16H99V18H101V16Z" fill="#FF636B"/>
<path d="M103 16H101V18H103V16Z" fill="#FF636B"/>
<path d="M98 18H96V20H98V18Z" fill="#FF636B"/>
<path d="M100 18H98V20H100V18Z" fill="#FF636B"/>
<path d="M98 19H96V21H98V19Z" fill="#FF636B"/>
<path d="M100 19H98V21H100V19Z" fill="#FF636B"/>
<path d="M98 14H96V16H98V14Z" fill="#FF636B"/>
<path d="M100 14H98V16H100V14Z" fill="#FF636B"/>
<path d="M98 16H96V18H98V16Z" fill="#FF636B"/>
<path d="M100 16H98V18H100V16Z" fill="#FF636B"/>
<path d="M98 25H96V27H98V25Z" fill="#FF636B"/>
<path d="M100 25H98V27H100V25Z" fill="#FF636B"/>
<path d="M98 27H96V29H98V27Z" fill="#FF636B"/>
<path d="M100 27H98V29H100V27Z" fill="#FF636B"/>
<path d="M98 28H96V30H98V28Z" fill="#FF636B"/>
<path d="M100 28H98V30H100V28Z" fill="#FF636B"/>
<path d="M98 30H96V32H98V30Z" fill="#FF636B"/>
<path d="M100 30H98V32H100V30Z" fill="#FF636B"/>
<path d="M101 28H99V30H101V28Z" fill="#FF636B"/>
<path d="M103 28H101V30H103V28Z" fill="#FF636B"/>
<path d="M101 30H99V32H101V30Z" fill="#FF636B"/>
<path d="M103 30H101V32H103V30Z" fill="#FF636B"/>
<path d="M101 25H99V27H101V25Z" fill="#FF636B"/>
<path d="M103 25H101V27H103V25Z" fill="#FF636B"/>
<path d="M101 27H99V29H101V27Z" fill="#FF636B"/>
<path d="M103 27H101V29H103V27Z" fill="#FF636B"/>
<path d="M101 32H99V34H101V32Z" fill="white"/>
<path d="M103 32H101V34H103V32Z" fill="white"/>
<path d="M101 34H99V36H101V34Z" fill="white"/>
<path d="M103 34H101V36H103V34Z" fill="white"/>
<path d="M101 35H99V37H101V35Z" fill="white"/>
<path d="M103 35H101V37H103V35Z" fill="white"/>
<path d="M101 37H99V39H101V37Z" fill="white"/>
<path d="M103 37H101V39H103V37Z" fill="white"/>
<path d="M105 35H103V37H105V35Z" fill="white"/>
<path d="M107 35H105V37H107V35Z" fill="white"/>
<path d="M105 37H103V39H105V37Z" fill="white"/>
<path d="M107 37H105V39H107V37Z" fill="white"/>
<path d="M105 39H103V41H105V39Z" fill="white"/>
<path d="M107 39H105V41H107V39Z" fill="white"/>
<path d="M105 41H103V43H105V41Z" fill="white"/>
<path d="M107 41H105V43H107V41Z" fill="white"/>
<path d="M105 32H103V34H105V32Z" fill="white"/>
<path d="M107 32H105V34H107V32Z" fill="white"/>
<path d="M105 34H103V36H105V34Z" fill="white"/>
<path d="M107 34H105V36H107V34Z" fill="white"/>
<path d="M108 35H106V37H108V35Z" fill="white"/>
<path d="M110 35H108V37H110V35Z" fill="white"/>
<path d="M108 37H106V39H108V37Z" fill="white"/>
<path d="M110 37H108V39H110V37Z" fill="white"/>
<path d="M108 39H106V41H108V39Z" fill="white"/>
<path d="M110 39H108V41H110V39Z" fill="white"/>
<path d="M108 41H106V43H108V41Z" fill="white"/>
<path d="M110 41H108V43H110V41Z" fill="white"/>
<path d="M112 39H110V41H112V39Z" fill="white"/>
<path d="M114 39H112V41H114V39Z" fill="white"/>
<path d="M112 41H110V43H112V41Z" fill="white"/>
<path d="M114 41H112V43H114V41Z" fill="white"/>
<path d="M116 39H114V41H116V39Z" fill="white"/>
<path d="M117 39H115V41H117V39Z" fill="white"/>
<path d="M116 41H114V43H116V41Z" fill="white"/>
<path d="M117 41H115V43H117V41Z" fill="white"/>
<path d="M112 35H110V37H112V35Z" fill="white"/>
<path d="M114 35H112V37H114V35Z" fill="white"/>
<path d="M112 37H110V39H112V37Z" fill="white"/>
<path d="M114 37H112V39H114V37Z" fill="white"/>
<path d="M116 32H114V34H116V32Z" fill="white"/>
<path d="M117 32H115V34H117V32Z" fill="white"/>
<path d="M119 32H117V34H119V32Z" fill="white"/>
<path d="M116 34H114V36H116V34Z" fill="white"/>
<path d="M117 34H115V36H117V34Z" fill="white"/>
<path d="M119 34H117V36H119V34Z" fill="white"/>
<path d="M116 35H114V37H116V35Z" fill="white"/>
<path d="M117 35H115V37H117V35Z" fill="white"/>
<path d="M119 35H117V37H119V35Z" fill="white"/>
<path d="M121 35H119V37H121V35Z" fill="white"/>
<path d="M116 37H114V39H116V37Z" fill="white"/>
<path d="M117 37H115V39H117V37Z" fill="white"/>
<path d="M119 37H117V39H119V37Z" fill="white"/>
<path d="M121 37H119V39H121V37Z" fill="white"/>
<path d="M119 25H117V27H119V25Z" fill="#FF636B"/>
<path d="M121 25H119V27H121V25Z" fill="#FF636B"/>
<path d="M119 27H117V29H119V27Z" fill="#FF636B"/>
<path d="M121 27H119V29H121V27Z" fill="#FF636B"/>
<path d="M119 28H117V30H119V28Z" fill="#FF636B"/>
<path d="M121 28H119V30H121V28Z" fill="#FF636B"/>
<path d="M119 30H117V32H119V30Z" fill="#FF636B"/>
<path d="M121 30H119V32H121V30Z" fill="#FF636B"/>
<path d="M123 28H121V30H123V28Z" fill="#FF636B"/>
<path d="M124 28H122V30H124V28Z" fill="#FF636B"/>
<path d="M123 30H121V32H123V30Z" fill="#FF636B"/>
<path d="M124 30H122V32H124V30Z" fill="#FF636B"/>
<path d="M123 25H121V27H123V25Z" fill="#FF636B"/>
<path d="M124 25H122V27H124V25Z" fill="#FF636B"/>
<path d="M123 27H121V29H123V27Z" fill="#FF636B"/>
<path d="M124 27H122V29H124V27Z" fill="#FF636B"/>
<path d="M119 14H117V16H119V14Z" fill="#FF636B"/>
<path d="M121 14H119V16H121V14Z" fill="#FF636B"/>
<path d="M119 16H117V18H119V16Z" fill="#FF636B"/>
<path d="M121 16H119V18H121V16Z" fill="#FF636B"/>
<path d="M119 18H117V20H119V18Z" fill="#FF636B"/>
<path d="M121 18H119V20H121V18Z" fill="#FF636B"/>
<path d="M119 19H117V21H119V19Z" fill="#FF636B"/>
<path d="M121 19H119V21H121V19Z" fill="#FF636B"/>
<path d="M119 21H117V23H119V21Z" fill="#FF636B"/>
<path d="M121 21H119V23H121V21Z" fill="#FF636B"/>
<path d="M119 23H117V25H119V23Z" fill="#FF636B"/>
<path d="M121 23H119V25H121V23Z" fill="#FF636B"/>
<path d="M123 18H121V20H123V18Z" fill="#FF636B"/>
<path d="M124 18H122V20H124V18Z" fill="#FF636B"/>
<path d="M123 19H121V21H123V19Z" fill="#FF636B"/>
<path d="M124 19H122V21H124V19Z" fill="#FF636B"/>
<path d="M123 21H121V23H123V21Z" fill="#FF636B"/>
<path d="M124 21H122V23H124V21Z" fill="#FF636B"/>
<path d="M123 23H121V25H123V23Z" fill="#FF636B"/>
<path d="M124 23H122V25H124V23Z" fill="#FF636B"/>
<path d="M123 14H121V16H123V14Z" fill="#FF636B"/>
<path d="M124 14H122V16H124V14Z" fill="#FF636B"/>
<path d="M123 16H121V18H123V16Z" fill="#FF636B"/>
<path d="M124 16H122V18H124V16Z" fill="#FF636B"/>
<path d="M98 21H96V23H98V21Z" fill="#FF636B"/>
<path d="M100 21H98V23H100V21Z" fill="#FF636B"/>
<path d="M98 23H96V25H98V23Z" fill="#FF636B"/>
<path d="M100 23H98V25H100V23Z" fill="#FF636B"/>
<path d="M105 11H103V13H105V11Z" fill="#FF636B"/>
<path d="M107 11H105V13H107V11Z" fill="#FF636B"/>
<path d="M105 12H103V14H105V12Z" fill="#FF636B"/>
<path d="M107 12H105V14H107V12Z" fill="#FF636B"/>
<path d="M105 7H103V9H105V7Z" fill="#FF636B"/>
<path d="M107 7H105V9H107V7Z" fill="#FF636B"/>
<path d="M105 9H103V11H105V9Z" fill="#FF636B"/>
<path d="M107 9H105V11H107V9Z" fill="#FF636B"/>
<path d="M108 7H106V9H108V7Z" fill="#FF636B"/>
<path d="M110 7H108V9H110V7Z" fill="#FF636B"/>
<path d="M108 9H106V11H108V9Z" fill="#FF636B"/>
<path d="M110 9H108V11H110V9Z" fill="#FF636B"/>
<path d="M112 7H110V9H112V7Z" fill="#FF636B"/>
<path d="M114 7H112V9H114V7Z" fill="#FF636B"/>
<path d="M112 9H110V11H112V9Z" fill="#FF636B"/>
<path d="M114 9H112V11H114V9Z" fill="#FF636B"/>
<path d="M116 7H114V9H116V7Z" fill="#FF636B"/>
<path d="M117 7H115V9H117V7Z" fill="#FF636B"/>
<path d="M116 9H114V11H116V9Z" fill="#FF636B"/>
<path d="M117 9H115V11H117V9Z" fill="#FF636B"/>
<path d="M119 7H117V9H119V7Z" fill="#FF636B"/>
<path d="M121 7H119V9H121V7Z" fill="#FF636B"/>
<path d="M119 9H117V11H119V9Z" fill="#FF636B"/>
<path d="M121 9H119V11H121V9Z" fill="#FF636B"/>
<path d="M116 11H114V13H116V11Z" fill="#FF636B"/>
<path d="M117 11H115V13H117V11Z" fill="#FF636B"/>
<path d="M116 12H114V14H116V12Z" fill="#FF636B"/>
<path d="M117 12H115V14H117V12Z" fill="#FF636B"/>
<path d="M119 11H117V13H119V11Z" fill="#FF636B"/>
<path d="M121 11H119V13H121V11Z" fill="#FF636B"/>
<path d="M119 12H117V14H119V12Z" fill="#FF636B"/>
<path d="M121 12H119V14H121V12Z" fill="#FF636B"/>
<path d="M116 4H114V6H116V4Z" fill="#FF636B"/>
<path d="M117 4H115V6H117V4Z" fill="#FF636B"/>
<path d="M116 5H114V7H116V5Z" fill="#FF636B"/>
<path d="M117 5H115V7H117V5Z" fill="#FF636B"/>
<path d="M112 4H110V6H112V4Z" fill="#FF636B"/>
<path d="M114 4H112V6H114V4Z" fill="#FF636B"/>
<path d="M112 5H110V7H112V5Z" fill="#FF636B"/>
<path d="M114 5H112V7H114V5Z" fill="#FF636B"/>
<path d="M108 4H106V6H108V4Z" fill="#FF636B"/>
<path d="M110 4H108V6H110V4Z" fill="#FF636B"/>
<path d="M108 5H106V7H108V5Z" fill="#FF636B"/>
<path d="M110 5H108V7H110V5Z" fill="#FF636B"/>
<path d="M105 4H103V6H105V4Z" fill="#FF636B"/>
<path d="M107 4H105V6H107V4Z" fill="#FF636B"/>
<path d="M105 5H103V7H105V5Z" fill="#FF636B"/>
<path d="M107 5H105V7H107V5Z" fill="#FF636B"/>
<path d="M123 11H121V13H123V11Z" fill="black"/>
<path d="M124 11H122V13H124V11Z" fill="black"/>
<path d="M123 12H121V14H123V12Z" fill="black"/>
<path d="M124 12H122V14H124V12Z" fill="black"/>
<path d="M123 7H121V9H123V7Z" fill="black"/>
<path d="M124 7H122V9H124V7Z" fill="black"/>
<path d="M123 9H121V11H123V9Z" fill="black"/>
<path d="M124 9H122V11H124V9Z" fill="black"/>
<path d="M101 4H99V6H101V4Z" fill="black"/>
<path d="M103 4H101V6H103V4Z" fill="black"/>
<path d="M101 5H99V7H101V5Z" fill="black"/>
<path d="M103 5H101V7H103V5Z" fill="black"/>
<path d="M119 4H117V6H119V4Z" fill="black"/>
<path d="M121 4H119V6H121V4Z" fill="black"/>
<path d="M119 5H117V7H119V5Z" fill="black"/>
<path d="M121 5H119V7H121V5Z" fill="black"/>
<path d="M98 0H96V2H98V0Z" fill="black"/>
<path d="M100 0H98V2H100V0Z" fill="black"/>
<path d="M98 2H96V4H98V2Z" fill="black"/>
<path d="M100 2H98V4H100V2Z" fill="black"/>
<path d="M101 0H99V2H101V0Z" fill="black"/>
<path d="M103 0H101V2H103V0Z" fill="black"/>
<path d="M101 2H99V4H101V2Z" fill="black"/>
<path d="M103 2H101V4H103V2Z" fill="black"/>
<path d="M105 0H103V2H105V0Z" fill="black"/>
<path d="M107 0H105V2H107V0Z" fill="black"/>
<path d="M105 2H103V4H105V2Z" fill="black"/>
<path d="M107 2H105V4H107V2Z" fill="black"/>
<path d="M105 14H103V16H105V14Z" fill="#FF636B"/>
<path d="M107 14H105V16H107V14Z" fill="#FF636B"/>
<path d="M105 16H103V18H105V16Z" fill="#FF636B"/>
<path d="M107 16H105V18H107V16Z" fill="#FF636B"/>
<path d="M105 18H103V20H105V18Z" fill="white"/>
<path d="M107 18H105V20H107V18Z" fill="white"/>
<path d="M105 19H103V21H105V19Z" fill="white"/>
<path d="M107 19H105V21H107V19Z" fill="white"/>
<path d="M101 21H99V23H101V21Z" fill="#FF636B"/>
<path d="M103 21H101V23H103V21Z" fill="#FF636B"/>
<path d="M101 23H99V25H101V23Z" fill="#FF636B"/>
<path d="M103 23H101V25H103V23Z" fill="#FF636B"/>
<path d="M105 25H103V27H105V25Z" fill="white"/>
<path d="M107 25H105V27H107V25Z" fill="white"/>
<path d="M105 27H103V29H105V27Z" fill="white"/>
<path d="M107 27H105V29H107V27Z" fill="white"/>
<path d="M108 32H106V34H108V32Z" fill="white"/>
<path d="M110 32H108V34H110V32Z" fill="white"/>
<path d="M108 34H106V36H108V34Z" fill="white"/>
<path d="M110 34H108V36H110V34Z" fill="white"/>
<path d="M112 32H110V34H112V32Z" fill="white"/>
<path d="M114 32H112V34H114V32Z" fill="white"/>
<path d="M112 34H110V36H112V34Z" fill="white"/>
<path d="M114 34H112V36H114V34Z" fill="white"/>
<path d="M116 28H114V30H116V28Z" fill="white"/>
<path d="M117 28H115V30H117V28Z" fill="white"/>
<path d="M116 30H114V32H116V30Z" fill="white"/>
<path d="M117 30H115V32H117V30Z" fill="white"/>
<path d="M108 11H106V13H108V11Z" fill="#FF636B"/>
<path d="M110 11H108V13H110V11Z" fill="#FF636B"/>
<path d="M108 12H106V14H108V12Z" fill="#FF636B"/>
<path d="M110 12H108V14H110V12Z" fill="#FF636B"/>
<path d="M116 25H114V27H116V25Z" fill="white"/>
<path d="M117 25H115V27H117V25Z" fill="white"/>
<path d="M116 27H114V29H116V27Z" fill="white"/>
<path d="M117 27H115V29H117V27Z" fill="white"/>
<path d="M112 11H110V13H112V11Z" fill="#FF636B"/>
<path d="M114 11H112V13H114V11Z" fill="#FF636B"/>
<path d="M112 12H110V14H112V12Z" fill="#FF636B"/>
<path d="M114 12H112V14H114V12Z" fill="#FF636B"/>
<path d="M116 14H114V16H116V14Z" fill="black"/>
<path d="M117 14H115V16H117V14Z" fill="black"/>
<path d="M116 16H114V18H116V16Z" fill="black"/>
<path d="M117 16H115V18H117V16Z" fill="black"/>
<path d="M108 0H106V2H108V0Z" fill="black"/>
<path d="M110 0H108V2H110V0Z" fill="black"/>
<path d="M108 2H106V4H108V2Z" fill="black"/>
<path d="M110 2H108V4H110V2Z" fill="black"/>
<path d="M112 0H110V2H112V0Z" fill="black"/>
<path d="M114 0H112V2H114V0Z" fill="black"/>
<path d="M112 2H110V4H112V2Z" fill="black"/>
<path d="M114 2H112V4H114V2Z" fill="black"/>
<path d="M116 0H114V2H116V0Z" fill="black"/>
<path d="M117 0H115V2H117V0Z" fill="black"/>
<path d="M116 2H114V4H116V2Z" fill="black"/>
<path d="M117 2H115V4H117V2Z" fill="black"/>
<path d="M34 21H32V23H34V21Z" fill="black"/>
<path d="M36 21H34V23H36V21Z" fill="black"/>
<path d="M34 23H32V25H34V23Z" fill="black"/>
<path d="M36 23H34V25H36V23Z" fill="black"/>
<path d="M2 25H0V27H2V25Z" fill="black"/>
<path d="M4 25H2V27H4V25Z" fill="black"/>
<path d="M2 27H0V29H2V27Z" fill="black"/>
<path d="M4 27H2V29H4V27Z" fill="black"/>
<path d="M2 28H0V30H2V28Z" fill="black"/>
<path d="M4 28H2V30H4V28Z" fill="black"/>
<path d="M2 30H0V32H2V30Z" fill="black"/>
<path d="M4 30H2V32H4V30Z" fill="black"/>
<path d="M2 32H0V34H2V32Z" fill="black"/>
<path d="M4 32H2V34H4V32Z" fill="black"/>
<path d="M2 34H0V36H2V34Z" fill="black"/>
<path d="M4 34H2V36H4V34Z" fill="black"/>
<path d="M6 32H4V34H6V32Z" fill="black"/>
<path d="M7 32H5V34H7V32Z" fill="black"/>
<path d="M6 34H4V36H6V34Z" fill="black"/>
<path d="M7 34H5V36H7V34Z" fill="black"/>
<path d="M9 32H7V34H9V32Z" fill="black"/>
<path d="M11 32H9V34H11V32Z" fill="black"/>
<path d="M9 34H7V36H9V34Z" fill="black"/>
<path d="M11 34H9V36H11V34Z" fill="black"/>
<path d="M13 32H11V34H13V32Z" fill="black"/>
<path d="M14 32H12V34H14V32Z" fill="black"/>
<path d="M13 34H11V36H13V34Z" fill="black"/>
<path d="M14 34H12V36H14V34Z" fill="black"/>
<path d="M16 32H14V34H16V32Z" fill="black"/>
<path d="M18 32H16V34H18V32Z" fill="black"/>
<path d="M16 34H14V36H16V34Z" fill="black"/>
<path d="M18 34H16V36H18V34Z" fill="black"/>
<path d="M20 32H18V34H20V32Z" fill="black"/>
<path d="M22 32H20V34H22V32Z" fill="black"/>
<path d="M20 34H18V36H20V34Z" fill="black"/>
<path d="M22 34H20V36H22V34Z" fill="black"/>
<path d="M23 32H21V34H23V32Z" fill="black"/>
<path d="M25 32H23V34H25V32Z" fill="black"/>
<path d="M27 30H25V32H27V30Z" fill="black"/>
<path d="M22 30H20V32H22V30Z" fill="black"/>
<path d="M23 28H21V30H23V28Z" fill="black"/>
<path d="M25 28H23V30H25V28Z" fill="black"/>
<path d="M23 30H21V32H23V30Z" fill="black"/>
<path d="M25 30H23V32H25V30Z" fill="black"/>
<path d="M23 25H21V27H23V25Z" fill="black"/>
<path d="M25 25H23V27H25V25Z" fill="black"/>
<path d="M23 27H21V29H23V27Z" fill="black"/>
<path d="M25 27H23V29H25V27Z" fill="black"/>
<path d="M23 21H21V23H23V21Z" fill="black"/>
<path d="M25 21H23V23H25V21Z" fill="black"/>
<path d="M23 23H21V25H23V23Z" fill="black"/>
<path d="M22 21H20V23H22V21Z" fill="black"/>
<path d="M22 23H20V25H22V23Z" fill="black"/>
<path d="M25 23H23V25H25V23Z" fill="black"/>
<path d="M23 18H21V20H23V18Z" fill="black"/>
<path d="M25 18H23V20H25V18Z" fill="black"/>
<path d="M23 19H21V21H23V19Z" fill="black"/>
<path d="M25 19H23V21H25V19Z" fill="black"/>
<path d="M23 14H21V16H23V14Z" fill="black"/>
<path d="M25 14H23V16H25V14Z" fill="black"/>
<path d="M23 16H21V18H23V16Z" fill="black"/>
<path d="M25 16H23V18H25V16Z" fill="black"/>
<path d="M27 14H25V16H27V14Z" fill="black"/>
<path d="M22 14H20V16H22V14Z" fill="black"/>
<path d="M23 12H21V14H23V12Z" fill="black"/>
<path d="M25 12H23V14H25V12Z" fill="black"/>
<path d="M2 21H0V23H2V21Z" fill="black"/>
<path d="M4 21H2V23H4V21Z" fill="black"/>
<path d="M2 23H0V25H2V23Z" fill="black"/>
<path d="M4 23H2V25H4V23Z" fill="black"/>
<path d="M2 18H0V20H2V18Z" fill="black"/>
<path d="M4 18H2V20H4V18Z" fill="black"/>
<path d="M2 19H0V21H2V19Z" fill="black"/>
<path d="M4 19H2V21H4V19Z" fill="black"/>
<path d="M2 14H0V16H2V14Z" fill="black"/>
<path d="M4 14H2V16H4V14Z" fill="black"/>
<path d="M2 16H0V18H2V16Z" fill="black"/>
<path d="M4 16H2V18H4V16Z" fill="black"/>
<path d="M2 11H0V13H2V11Z" fill="black"/>
<path d="M4 11H2V13H4V11Z" fill="black"/>
<path d="M2 12H0V14H2V12Z" fill="black"/>
<path d="M4 12H2V14H4V12Z" fill="black"/>
<path d="M6 11H4V13H6V11Z" fill="black"/>
<path d="M7 11H5V13H7V11Z" fill="black"/>
<path d="M6 12H4V14H6V12Z" fill="black"/>
<path d="M7 12H5V14H7V12Z" fill="black"/>
<path d="M9 11H7V13H9V11Z" fill="black"/>
<path d="M11 11H9V13H11V11Z" fill="black"/>
<path d="M9 12H7V14H9V12Z" fill="black"/>
<path d="M11 12H9V14H11V12Z" fill="black"/>
<path d="M13 11H11V13H13V11Z" fill="black"/>
<path d="M14 11H12V13H14V11Z" fill="black"/>
<path d="M13 12H11V14H13V12Z" fill="black"/>
<path d="M14 12H12V14H14V12Z" fill="black"/>
<path d="M16 11H14V13H16V11Z" fill="black"/>
<path d="M18 11H16V13H18V11Z" fill="black"/>
<path d="M16 12H14V14H16V12Z" fill="black"/>
<path d="M18 12H16V14H18V12Z" fill="black"/>
<path d="M27 11H25V13H27V11Z" fill="black"/>
<path d="M29 11H27V13H29V11Z" fill="black"/>
<path d="M27 12H25V14H27V12Z" fill="black"/>
<path d="M29 12H27V14H29V12Z" fill="black"/>
<path d="M30 11H28V13H30V11Z" fill="black"/>
<path d="M32 11H30V13H32V11Z" fill="black"/>
<path d="M30 12H28V14H30V12Z" fill="black"/>
<path d="M32 12H30V14H32V12Z" fill="black"/>
<path d="M34 11H32V13H34V11Z" fill="black"/>
<path d="M36 11H34V13H36V11Z" fill="black"/>
<path d="M34 12H32V14H34V12Z" fill="black"/>
<path d="M36 12H34V14H36V12Z" fill="black"/>
<path d="M37 11H35V13H37V11Z" fill="black"/>
<path d="M39 11H37V13H39V11Z" fill="black"/>
<path d="M37 12H35V14H37V12Z" fill="black"/>
<path d="M39 12H37V14H39V12Z" fill="black"/>
<path d="M52 11H50V13H52V11Z" fill="black"/>
<path d="M53 11H51V13H53V11Z" fill="black"/>
<path d="M52 12H50V14H52V12Z" fill="black"/>
<path d="M53 12H51V14H53V12Z" fill="black"/>
<path d="M55 11H53V13H55V11Z" fill="black"/>
<path d="M57 11H55V13H57V11Z" fill="black"/>
<path d="M55 12H53V14H55V12Z" fill="black"/>
<path d="M57 12H55V14H57V12Z" fill="black"/>
<path d="M59 11H57V13H59V11Z" fill="black"/>
<path d="M61 11H59V13H61V11Z" fill="black"/>
<path d="M59 12H57V14H59V12Z" fill="black"/>
<path d="M61 12H59V14H61V12Z" fill="black"/>
<path d="M76 11H74V13H76V11Z" fill="black"/>
<path d="M78 11H76V13H78V11Z" fill="black"/>
<path d="M76 12H74V14H76V12Z" fill="black"/>
<path d="M78 12H76V14H78V12Z" fill="black"/>
<path d="M73 11H71V13H73V11Z" fill="black"/>
<path d="M75 11H73V13H75V11Z" fill="black"/>
<path d="M73 12H71V14H73V12Z" fill="black"/>
<path d="M75 12H73V14H75V12Z" fill="black"/>
<path d="M80 11H78V13H80V11Z" fill="black"/>
<path d="M82 11H80V13H82V11Z" fill="black"/>
<path d="M80 12H78V14H80V12Z" fill="black"/>
<path d="M82 12H80V14H82V12Z" fill="black"/>
<path d="M84 11H82V13H84V11Z" fill="black"/>
<path d="M85 11H83V13H85V11Z" fill="black"/>
<path d="M84 12H82V14H84V12Z" fill="black"/>
<path d="M85 12H83V14H85V12Z" fill="black"/>
<path d="M45 14H43V16H45V14Z" fill="black"/>
<path d="M46 14H44V16H46V14Z" fill="black"/>
<path d="M45 16H43V18H45V16Z" fill="black"/>
<path d="M46 16H44V18H46V16Z" fill="black"/>
<path d="M45 18H43V20H45V18Z" fill="black"/>
<path d="M46 18H44V20H46V18Z" fill="black"/>
<path d="M45 19H43V21H45V19Z" fill="black"/>
<path d="M46 19H44V21H46V19Z" fill="black"/>
<path d="M45 21H43V23H45V21Z" fill="black"/>
<path d="M46 21H44V23H46V21Z" fill="black"/>
<path d="M45 23H43V25H45V23Z" fill="black"/>
<path d="M46 23H44V25H46V23Z" fill="black"/>
<path d="M45 25H43V27H45V25Z" fill="black"/>
<path d="M46 25H44V27H46V25Z" fill="black"/>
<path d="M45 27H43V29H45V27Z" fill="black"/>
<path d="M46 27H44V29H46V27Z" fill="black"/>
<path d="M66 18H64V20H66V18Z" fill="black"/>
<path d="M68 18H66V20H68V18Z" fill="black"/>
<path d="M66 19H64V21H66V19Z" fill="black"/>
<path d="M68 19H66V21H68V19Z" fill="black"/>
<path d="M66 21H64V23H66V21Z" fill="black"/>
<path d="M68 21H66V23H68V21Z" fill="black"/>
<path d="M66 23H64V25H66V23Z" fill="black"/>
<path d="M68 23H66V25H68V23Z" fill="black"/>
<path d="M66 25H64V27H66V25Z" fill="black"/>
<path d="M68 25H66V27H68V25Z" fill="black"/>
<path d="M66 27H64V29H66V27Z" fill="black"/>
<path d="M68 27H66V29H68V27Z" fill="black"/>
<path d="M45 28H43V30H45V28Z" fill="black"/>
<path d="M46 28H44V30H46V28Z" fill="black"/>
<path d="M45 30H43V32H45V30Z" fill="black"/>
<path d="M46 30H44V32H46V30Z" fill="black"/>
<path d="M52 32H50V34H52V32Z" fill="black"/>
<path d="M53 32H51V34H53V32Z" fill="black"/>
<path d="M52 34H50V36H52V34Z" fill="black"/>
<path d="M53 34H51V36H53V34Z" fill="black"/>
<path d="M55 32H53V34H55V32Z" fill="black"/>
<path d="M57 32H55V34H57V32Z" fill="black"/>
<path d="M55 34H53V36H55V34Z" fill="black"/>
<path d="M57 34H55V36H57V34Z" fill="black"/>
<path d="M59 32H57V34H59V32Z" fill="black"/>
<path d="M61 32H59V34H61V32Z" fill="black"/>
<path d="M59 34H57V36H59V34Z" fill="black"/>
<path d="M61 34H59V36H61V34Z" fill="black"/>
<path d="M37 32H35V34H37V32Z" fill="black"/>
<path d="M39 32H37V34H39V32Z" fill="black"/>
<path d="M37 34H35V36H37V34Z" fill="black"/>
<path d="M39 34H37V36H39V34Z" fill="black"/>
<path d="M34 32H32V34H34V32Z" fill="black"/>
<path d="M36 32H34V34H36V32Z" fill="black"/>
<path d="M34 34H32V36H34V34Z" fill="black"/>
<path d="M36 34H34V36H36V34Z" fill="black"/>
<path d="M30 32H28V34H30V32Z" fill="black"/>
<path d="M32 32H30V34H32V32Z" fill="black"/>
<path d="M30 34H28V36H30V34Z" fill="black"/>
<path d="M32 34H30V36H32V34Z" fill="black"/>
<path d="M27 32H25V34H27V32Z" fill="black"/>
<path d="M29 32H27V34H29V32Z" fill="black"/>
<path d="M27 34H25V36H27V34Z" fill="black"/>
<path d="M29 34H27V36H29V34Z" fill="black"/>
<path d="M41 32H39V34H41V32Z" fill="black"/>
<path d="M43 32H41V34H43V32Z" fill="black"/>
<path d="M41 34H39V36H41V34Z" fill="black"/>
<path d="M43 34H41V36H43V34Z" fill="black"/>
<path d="M45 32H43V34H45V32Z" fill="black"/>
<path d="M46 32H44V34H46V32Z" fill="black"/>
<path d="M43 30H41V32H43V30Z" fill="black"/>
<path d="M48 32H46V34H48V32Z" fill="black"/>
<path d="M50 32H48V34H50V32Z" fill="black"/>
<path d="M48 34H46V36H48V34Z" fill="black"/>
<path d="M46 34H44V36H46V34Z" fill="black"/>
<path d="M50 34H48V36H50V34Z" fill="black"/>
<path d="M66 28H64V30H66V28Z" fill="black"/>
<path d="M68 28H66V30H68V28Z" fill="black"/>
<path d="M66 30H64V32H66V30Z" fill="black"/>
<path d="M68 30H66V32H68V30Z" fill="black"/>
<path d="M62 32H60V34H62V32Z" fill="black"/>
<path d="M64 32H62V34H64V32Z" fill="black"/>
<path d="M62 34H60V36H62V34Z" fill="black"/>
<path d="M64 34H62V36H64V34Z" fill="black"/>
<path d="M66 34H64V36H66V34Z" fill="black"/>
<path d="M68 34H66V36H68V34Z" fill="black"/>
<path d="M66 32H64V34H66V32Z" fill="black"/>
<path d="M68 32H66V34H68V32Z" fill="black"/>
<path d="M69 32H67V34H69V32Z" fill="black"/>
<path d="M71 32H69V34H71V32Z" fill="black"/>
<path d="M69 34H67V36H69V34Z" fill="black"/>
<path d="M71 34H69V36H71V34Z" fill="black"/>
<path d="M73 32H71V34H73V32Z" fill="black"/>
<path d="M75 32H73V34H75V32Z" fill="black"/>
<path d="M73 34H71V36H73V34Z" fill="black"/>
<path d="M75 34H73V36H75V34Z" fill="black"/>
<path d="M76 32H74V34H76V32Z" fill="black"/>
<path d="M78 32H76V34H78V32Z" fill="black"/>
<path d="M76 34H74V36H76V34Z" fill="black"/>
<path d="M78 34H76V36H78V34Z" fill="black"/>
<path d="M80 32H78V34H80V32Z" fill="black"/>
<path d="M82 32H80V34H82V32Z" fill="black"/>
<path d="M80 34H78V36H80V34Z" fill="black"/>
<path d="M82 34H80V36H82V34Z" fill="black"/>
<path d="M84 32H82V34H84V32Z" fill="black"/>
<path d="M85 32H83V34H85V32Z" fill="black"/>
<path d="M84 34H82V36H84V34Z" fill="black"/>
<path d="M85 34H83V36H85V34Z" fill="black"/>
<path d="M87 32H85V34H87V32Z" fill="black"/>
<path d="M89 32H87V34H89V32Z" fill="black"/>
<path d="M85 30H83V32H85V30Z" fill="black"/>
<path d="M20 11H18V13H20V11Z" fill="black"/>
<path d="M22 11H20V13H22V11Z" fill="black"/>
<path d="M20 12H18V14H20V12Z" fill="black"/>
<path d="M22 12H20V14H22V12Z" fill="black"/>
<path d="M137 18H135V20H137V18Z" fill="black"/>
<path d="M139 18H137V20H139V18Z" fill="black"/>
<path d="M137 19H135V21H137V19Z" fill="black"/>
<path d="M139 19H137V21H139V19Z" fill="black"/>
<path d="M158 18H156V20H158V18Z" fill="black"/>
<path d="M160 18H158V20H160V18Z" fill="black"/>
<path d="M158 19H156V21H158V19Z" fill="black"/>
<path d="M160 19H158V21H160V19Z" fill="black"/>
<path d="M162 18H160V20H162V18Z" fill="black"/>
<path d="M163 18H161V20H163V18Z" fill="black"/>
<path d="M162 19H160V21H162V19Z" fill="black"/>
<path d="M163 19H161V21H163V19Z" fill="black"/>
<path d="M158 25H156V27H158V25Z" fill="black"/>
<path d="M160 25H158V27H160V25Z" fill="black"/>
<path d="M158 27H156V29H158V27Z" fill="black"/>
<path d="M160 27H158V29H160V27Z" fill="black"/>
<path d="M162 25H160V27H162V25Z" fill="black"/>
<path d="M163 25H161V27H163V25Z" fill="black"/>
<path d="M162 27H160V29H162V27Z" fill="black"/>
<path d="M163 27H161V29H163V27Z" fill="black"/>
<path d="M165 18H163V20H165V18Z" fill="black"/>
<path d="M167 18H165V20H167V18Z" fill="black"/>
<path d="M165 19H163V21H165V19Z" fill="black"/>
<path d="M167 19H165V21H167V19Z" fill="black"/>
<path d="M165 25H163V27H165V25Z" fill="black"/>
<path d="M167 25H165V27H167V25Z" fill="black"/>
<path d="M165 27H163V29H165V27Z" fill="black"/>
<path d="M167 27H165V29H167V27Z" fill="black"/>
<path d="M169 28H167V30H169V28Z" fill="black"/>
<path d="M170 28H168V30H170V28Z" fill="black"/>
<path d="M169 30H167V32H169V30Z" fill="black"/>
<path d="M170 30H168V32H170V30Z" fill="black"/>
<path d="M169 25H167V27H169V25Z" fill="black"/>
<path d="M170 25H168V27H170V25Z" fill="black"/>
<path d="M169 27H167V29H169V27Z" fill="black"/>
<path d="M170 27H168V29H170V27Z" fill="black"/>
<path d="M169 21H167V23H169V21Z" fill="black"/>
<path d="M170 21H168V23H170V21Z" fill="black"/>
<path d="M169 23H167V25H169V23Z" fill="black"/>
<path d="M170 23H168V25H170V23Z" fill="black"/>
<path d="M169 18H167V20H169V18Z" fill="black"/>
<path d="M170 18H168V20H170V18Z" fill="black"/>
<path d="M169 19H167V21H169V19Z" fill="black"/>
<path d="M170 19H168V21H170V19Z" fill="black"/>
<path d="M137 25H135V27H137V25Z" fill="black"/>
<path d="M139 25H137V27H139V25Z" fill="black"/>
<path d="M137 27H135V29H137V27Z" fill="black"/>
<path d="M139 27H137V29H139V27Z" fill="black"/>
<path d="M126 25H124V27H126V25Z" fill="black"/>
<path d="M128 25H126V27H128V25Z" fill="black"/>
<path d="M126 27H124V29H126V27Z" fill="black"/>
<path d="M128 27H126V29H128V27Z" fill="black"/>
<path d="M130 25H128V27H130V25Z" fill="#D5D5D5"/>
<path d="M130 27H128V29H130V27Z" fill="#D5D5D5"/>
<path d="M130 28H128V30H130V28Z" fill="#D5D5D5"/>
<path d="M130 30H128V32H130V30Z" fill="#D5D5D5"/>
<path d="M107 28H105V30H107V28Z" fill="#D5D5D5"/>
<path d="M107 30H105V32H107V30Z" fill="#D5D5D5"/>
<path d="M107 25H105V27H107V25Z" fill="#D5D5D5"/>
<path d="M107 27H105V29H107V27Z" fill="#D5D5D5"/>
<path d="M107 21H105V23H107V21Z" fill="#D5D5D5"/>
<path d="M107 23H105V25H107V23Z" fill="#D5D5D5"/>
<path d="M105 18H103V20H105V18Z" fill="#D5D5D5"/>
<path d="M105 19H103V21H105V19Z" fill="#D5D5D5"/>
<path d="M108 14H106V16H108V14Z" fill="#D5D5D5"/>
<path d="M108 16H106V18H108V16Z" fill="#D5D5D5"/>
<path d="M114 21H112V23H114V21Z" fill="#D5D5D5"/>
<path d="M114 23H112V25H114V23Z" fill="#D5D5D5"/>
<path d="M114 23H112V25H114V23Z" fill="#D5D5D5"/>
<path d="M114 25H112V27H114V25Z" fill="#D5D5D5"/>
<path d="M105 32H103V34H105V32Z" fill="#D5D5D5"/>
<path d="M105 34H103V36H105V34Z" fill="#D5D5D5"/>
<path d="M101 35H99V37H101V35Z" fill="#D5D5D5"/>
<path d="M101 37H99V39H101V37Z" fill="#D5D5D5"/>
<path d="M105 39H103V41H105V39Z" fill="#D5D5D5"/>
<path d="M105 41H103V43H105V41Z" fill="#D5D5D5"/>
<path d="M126 28H124V30H126V28Z" fill="black"/>
<path d="M128 28H126V30H128V28Z" fill="black"/>
<path d="M126 30H124V32H126V30Z" fill="black"/>
<path d="M128 30H126V32H128V30Z" fill="black"/>
<path d="M126 32H124V34H126V32Z" fill="black"/>
<path d="M128 32H126V34H128V32Z" fill="black"/>
<path d="M126 34H124V36H126V34Z" fill="black"/>
<path d="M128 34H126V36H128V34Z" fill="black"/>
<path d="M130 32H128V34H130V32Z" fill="black"/>
<path d="M131 32H129V34H131V32Z" fill="black"/>
<path d="M130 34H128V36H130V34Z" fill="black"/>
<path d="M131 34H129V36H131V34Z" fill="black"/>
<path d="M133 32H131V34H133V32Z" fill="black"/>
<path d="M135 32H133V34H135V32Z" fill="black"/>
<path d="M133 34H131V36H133V34Z" fill="black"/>
<path d="M135 34H133V36H135V34Z" fill="black"/>
<path d="M137 32H135V34H137V32Z" fill="black"/>
<path d="M139 32H137V34H139V32Z" fill="black"/>
<path d="M137 34H135V36H137V34Z" fill="black"/>
<path d="M139 34H137V36H139V34Z" fill="black"/>
<path d="M140 32H138V34H140V32Z" fill="black"/>
<path d="M142 32H140V34H142V32Z" fill="black"/>
<path d="M140 34H138V36H140V34Z" fill="black"/>
<path d="M142 34H140V36H142V34Z" fill="black"/>
<path d="M144 32H142V34H144V32Z" fill="black"/>
<path d="M146 32H144V34H146V32Z" fill="black"/>
<path d="M144 34H142V36H144V34Z" fill="black"/>
<path d="M146 34H144V36H146V34Z" fill="black"/>
<path d="M147 32H145V34H147V32Z" fill="black"/>
<path d="M149 32H147V34H149V32Z" fill="black"/>
<path d="M151 30H149V32H151V30Z" fill="black"/>
<path d="M146 30H144V32H146V30Z" fill="black"/>
<path d="M147 28H145V30H147V28Z" fill="black"/>
<path d="M149 28H147V30H149V28Z" fill="black"/>
<path d="M147 30H145V32H147V30Z" fill="black"/>
<path d="M149 30H147V32H149V30Z" fill="black"/>
<path d="M147 25H145V27H147V25Z" fill="black"/>
<path d="M149 25H147V27H149V25Z" fill="black"/>
<path d="M147 27H145V29H147V27Z" fill="black"/>
<path d="M149 27H147V29H149V27Z" fill="black"/>
<path d="M147 21H145V23H147V21Z" fill="black"/>
<path d="M149 21H147V23H149V21Z" fill="black"/>
<path d="M147 23H145V25H147V23Z" fill="black"/>
<path d="M146 21H144V23H146V21Z" fill="black"/>
<path d="M146 23H144V25H146V23Z" fill="black"/>
<path d="M149 23H147V25H149V23Z" fill="black"/>
<path d="M147 18H145V20H147V18Z" fill="black"/>
<path d="M149 18H147V20H149V18Z" fill="black"/>
<path d="M147 19H145V21H147V19Z" fill="black"/>
<path d="M149 19H147V21H149V19Z" fill="black"/>
<path d="M147 14H145V16H147V14Z" fill="black"/>
<path d="M149 14H147V16H149V14Z" fill="black"/>
<path d="M147 16H145V18H147V16Z" fill="black"/>
<path d="M149 16H147V18H149V16Z" fill="black"/>
<path d="M179 28H177V30H179V28Z" fill="black"/>
<path d="M181 28H179V30H181V28Z" fill="black"/>
<path d="M179 30H177V32H179V30Z" fill="black"/>
<path d="M181 30H179V32H181V30Z" fill="black"/>
<path d="M179 32H177V34H179V32Z" fill="black"/>
<path d="M181 32H179V34H181V32Z" fill="black"/>
<path d="M179 34H177V36H179V34Z" fill="black"/>
<path d="M181 34H179V36H181V34Z" fill="black"/>
<path d="M176 32H174V34H176V32Z" fill="black"/>
<path d="M178 32H176V34H178V32Z" fill="black"/>
<path d="M176 34H174V36H176V34Z" fill="black"/>
<path d="M178 34H176V36H178V34Z" fill="black"/>
<path d="M179 25H177V27H179V25Z" fill="black"/>
<path d="M181 25H179V27H181V25Z" fill="black"/>
<path d="M179 27H177V29H179V27Z" fill="black"/>
<path d="M181 27H179V29H181V27Z" fill="black"/>
<path d="M179 21H177V23H179V21Z" fill="black"/>
<path d="M181 21H179V23H181V21Z" fill="black"/>
<path d="M179 23H177V25H179V23Z" fill="black"/>
<path d="M181 23H179V25H181V23Z" fill="black"/>
<path d="M179 18H177V20H179V18Z" fill="black"/>
<path d="M181 18H179V20H181V18Z" fill="black"/>
<path d="M179 19H177V21H179V19Z" fill="black"/>
<path d="M181 19H179V21H181V19Z" fill="black"/>
<path d="M151 14H149V16H151V14Z" fill="black"/>
<path d="M146 14H144V16H146V14Z" fill="black"/>
<path d="M147 12H145V14H147V12Z" fill="black"/>
<path d="M149 12H147V14H149V12Z" fill="black"/>
<path d="M126 21H124V23H126V21Z" fill="black"/>
<path d="M128 21H126V23H128V21Z" fill="black"/>
<path d="M126 23H124V25H126V23Z" fill="black"/>
<path d="M128 23H126V25H128V23Z" fill="black"/>
<path d="M130 21H128V23H130V21Z" fill="#D5D5D5"/>
<path d="M130 23H128V25H130V23Z" fill="#D5D5D5"/>
<path d="M126 18H124V20H126V18Z" fill="black"/>
<path d="M128 18H126V20H128V18Z" fill="black"/>
<path d="M126 19H124V21H126V19Z" fill="black"/>
<path d="M128 19H126V21H128V19Z" fill="black"/>
<path d="M130 18H128V20H130V18Z" fill="#D5D5D5"/>
<path d="M130 19H128V21H130V19Z" fill="#D5D5D5"/>
<path d="M140 18H138V20H140V18Z" fill="#D5D5D5"/>
<path d="M140 19H138V21H140V19Z" fill="#D5D5D5"/>
<path d="M140 25H138V27H140V25Z" fill="#D5D5D5"/>
<path d="M140 27H138V29H140V27Z" fill="#D5D5D5"/>
<path d="M172 18H170V20H172V18Z" fill="#D5D5D5"/>
<path d="M172 19H170V21H172V19Z" fill="#D5D5D5"/>
<path d="M172 25H170V27H172V25Z" fill="#D5D5D5"/>
<path d="M172 27H170V29H172V27Z" fill="#D5D5D5"/>
<path d="M172 21H170V23H172V21Z" fill="#D5D5D5"/>
<path d="M172 23H170V25H172V23Z" fill="#D5D5D5"/>
<path d="M172 28H170V30H172V28Z" fill="#D5D5D5"/>
<path d="M172 30H170V32H172V30Z" fill="#D5D5D5"/>
<path d="M126 14H124V16H126V14Z" fill="black"/>
<path d="M128 14H126V16H128V14Z" fill="black"/>
<path d="M126 16H124V18H126V16Z" fill="black"/>
<path d="M128 16H126V18H128V16Z" fill="black"/>
<path d="M130 14H128V16H130V14Z" fill="#D5D5D5"/>
<path d="M130 16H128V18H130V16Z" fill="#D5D5D5"/>
<path d="M92 14H90V16H92V14Z" fill="#D13039"/>
<path d="M92 16H90V18H92V16Z" fill="#D13039"/>
<path d="M92 18H90V20H92V18Z" fill="#D13039"/>
<path d="M92 19H90V21H92V19Z" fill="#D13039"/>
<path d="M92 21H90V23H92V21Z" fill="#D13039"/>
<path d="M92 23H90V25H92V23Z" fill="#D13039"/>
<path d="M92 25H90V27H92V25Z" fill="#D13039"/>
<path d="M92 27H90V29H92V27Z" fill="#D13039"/>
<path d="M92 28H90V30H92V28Z" fill="#D13039"/>
<path d="M92 30H90V32H92V30Z" fill="#D13039"/>
<path d="M96 32H94V34H96V32Z" fill="#D13039"/>
<path d="M96 34H94V36H96V34Z" fill="#D13039"/>
<path d="M100 39H98V41H100V39Z" fill="#D13039"/>
<path d="M100 41H98V43H100V41Z" fill="#D13039"/>
<path d="M100 4H98V6H100V4Z" fill="#D13039"/>
<path d="M100 5H98V7H100V5Z" fill="#D13039"/>
<path d="M96 7H94V9H96V7Z" fill="#D13039"/>
<path d="M96 9H94V11H96V9Z" fill="#D13039"/>
<path d="M96 11H94V13H96V11Z" fill="#D13039"/>
<path d="M96 12H94V14H96V12Z" fill="#D13039"/>
<path d="M96 35H94V37H96V35Z" fill="#D13039"/>
<path d="M96 37H94V39H96V37Z" fill="#D13039"/>
<path d="M69 25H67V27H69V25Z" fill="#D5D5D5"/>
<path d="M69 27H67V29H69V27Z" fill="#D5D5D5"/>
<path d="M69 28H67V30H69V28Z" fill="#D5D5D5"/>
<path d="M69 30H67V32H69V30Z" fill="#D5D5D5"/>
<path d="M69 21H67V23H69V21Z" fill="#D5D5D5"/>
<path d="M69 23H67V25H69V23Z" fill="#D5D5D5"/>
<path d="M69 18H67V20H69V18Z" fill="#D5D5D5"/>
<path d="M69 19H67V21H69V19Z" fill="#D5D5D5"/>
<path d="M69 14H67V16H69V14Z" fill="#D5D5D5"/>
<path d="M69 16H67V18H69V16Z" fill="#D5D5D5"/>
<path d="M48 25H46V27H48V25Z" fill="#D5D5D5"/>
<path d="M48 27H46V29H48V27Z" fill="#D5D5D5"/>
<path d="M48 28H46V30H48V28Z" fill="#D5D5D5"/>
<path d="M48 30H46V32H48V30Z" fill="#D5D5D5"/>
<path d="M48 21H46V23H48V21Z" fill="#D5D5D5"/>
<path d="M48 23H46V25H48V23Z" fill="#D5D5D5"/>
<path d="M48 18H46V20H48V18Z" fill="#D5D5D5"/>
<path d="M48 19H46V21H48V19Z" fill="#D5D5D5"/>
<path d="M48 14H46V16H48V14Z" fill="#D5D5D5"/>
<path d="M48 16H46V18H48V16Z" fill="#D5D5D5"/>
<path d="M27 25H25V27H27V25Z" fill="#D5D5D5"/>
<path d="M27 27H25V29H27V27Z" fill="#D5D5D5"/>
<path d="M27 28H25V30H27V28Z" fill="#D5D5D5"/>
<path d="M27 21H25V23H27V21Z" fill="#D5D5D5"/>
<path d="M27 23H25V25H27V23Z" fill="#D5D5D5"/>
<path d="M27 18H25V20H27V18Z" fill="#D5D5D5"/>
<path d="M27 19H25V21H27V19Z" fill="#D5D5D5"/>
<path d="M27 16H25V18H27V16Z" fill="#D5D5D5"/>
<path d="M6 25H4V27H6V25Z" fill="#D5D5D5"/>
<path d="M6 27H4V29H6V27Z" fill="#D5D5D5"/>
<path d="M6 28H4V30H6V28Z" fill="#D5D5D5"/>
<path d="M6 30H4V32H6V30Z" fill="#D5D5D5"/>
<path d="M6 21H4V23H6V21Z" fill="#D5D5D5"/>
<path d="M6 23H4V25H6V23Z" fill="#D5D5D5"/>
<path d="M6 18H4V20H6V18Z" fill="#D5D5D5"/>
<path d="M6 19H4V21H6V19Z" fill="#D5D5D5"/>
<path d="M6 14H4V16H6V14Z" fill="#D5D5D5"/>
<path d="M6 16H4V18H6V16Z" fill="#D5D5D5"/>
<path d="M59 25H57V27H59V25Z" fill="#D5D5D5"/>
<path d="M59 27H57V29H59V27Z" fill="#D5D5D5"/>
<path d="M59 28H57V30H59V28Z" fill="#D5D5D5"/>
<path d="M59 30H57V32H59V30Z" fill="#D5D5D5"/>
<path d="M59 21H57V23H59V21Z" fill="#D5D5D5"/>
<path d="M59 23H57V25H59V23Z" fill="#D5D5D5"/>
<path d="M59 18H57V20H59V18Z" fill="#D5D5D5"/>
<path d="M59 19H57V21H59V19Z" fill="#D5D5D5"/>
<path d="M80 25H78V27H80V25Z" fill="#D5D5D5"/>
<path d="M80 27H78V29H80V27Z" fill="#D5D5D5"/>
<path d="M80 21H78V23H80V21Z" fill="#D5D5D5"/>
<path d="M80 23H78V25H80V23Z" fill="#D5D5D5"/>
<path d="M80 18H78V20H80V18Z" fill="#D5D5D5"/>
<path d="M80 19H78V21H80V19Z" fill="#D5D5D5"/>
<path d="M151 25H149V27H151V25Z" fill="#D5D5D5"/>
<path d="M151 27H149V29H151V27Z" fill="#D5D5D5"/>
<path d="M151 28H149V30H151V28Z" fill="#D5D5D5"/>
<path d="M151 21H149V23H151V21Z" fill="#D5D5D5"/>
<path d="M151 23H149V25H151V23Z" fill="#D5D5D5"/>
<path d="M151 18H149V20H151V18Z" fill="#D5D5D5"/>
<path d="M151 19H149V21H151V19Z" fill="#D5D5D5"/>
<path d="M151 16H149V18H151V16Z" fill="#D5D5D5"/>
<path d="M126 11H124V13H126V11Z" fill="black"/>
<path d="M128 11H126V13H128V11Z" fill="black"/>
<path d="M126 12H124V14H126V12Z" fill="black"/>
<path d="M128 12H126V14H128V12Z" fill="black"/>
<path d="M130 11H128V13H130V11Z" fill="black"/>
<path d="M131 11H129V13H131V11Z" fill="black"/>
<path d="M130 12H128V14H130V12Z" fill="black"/>
<path d="M131 12H129V14H131V12Z" fill="black"/>
<path d="M133 11H131V13H133V11Z" fill="black"/>
<path d="M135 11H133V13H135V11Z" fill="black"/>
<path d="M133 12H131V14H133V12Z" fill="black"/>
<path d="M135 12H133V14H135V12Z" fill="black"/>
<path d="M137 11H135V13H137V11Z" fill="black"/>
<path d="M139 11H137V13H139V11Z" fill="black"/>
<path d="M137 12H135V14H137V12Z" fill="black"/>
<path d="M139 12H137V14H139V12Z" fill="black"/>
<path d="M172 11H170V13H172V11Z" fill="black"/>
<path d="M174 11H172V13H174V11Z" fill="black"/>
<path d="M172 12H170V14H172V12Z" fill="black"/>
<path d="M174 12H172V14H174V12Z" fill="black"/>
<path d="M176 11H174V13H176V11Z" fill="black"/>
<path d="M178 11H176V13H178V11Z" fill="black"/>
<path d="M176 12H174V14H176V12Z" fill="black"/>
<path d="M178 12H176V14H178V12Z" fill="black"/>
<path d="M179 11H177V13H179V11Z" fill="black"/>
<path d="M181 11H179V13H181V11Z" fill="black"/>
<path d="M179 12H177V14H179V12Z" fill="black"/>
<path d="M181 12H179V14H181V12Z" fill="black"/>
<path d="M183 11H181V13H183V11Z" fill="black"/>
<path d="M185 11H183V13H185V11Z" fill="black"/>
<path d="M183 12H181V14H183V12Z" fill="black"/>
<path d="M185 12H183V14H185V12Z" fill="black"/>
<path d="M186 11H184V13H186V11Z" fill="black"/>
<path d="M188 11H186V13H188V11Z" fill="black"/>
<path d="M186 12H184V14H186V12Z" fill="black"/>
<path d="M188 12H186V14H188V12Z" fill="black"/>
<path d="M186 14H184V16H186V14Z" fill="black"/>
<path d="M188 14H186V16H188V14Z" fill="black"/>
<path d="M186 16H184V18H186V16Z" fill="black"/>
<path d="M188 16H186V18H188V16Z" fill="black"/>
<path d="M183 18H181V20H183V18Z" fill="black"/>
<path d="M185 18H183V20H185V18Z" fill="black"/>
<path d="M183 19H181V21H183V19Z" fill="black"/>
<path d="M185 19H183V21H185V19Z" fill="black"/>
<path d="M186 18H184V20H186V18Z" fill="black"/>
<path d="M188 18H186V20H188V18Z" fill="black"/>
<path d="M186 19H184V21H186V19Z" fill="black"/>
<path d="M188 19H186V21H188V19Z" fill="black"/>
<path d="M172 32H170V34H172V32Z" fill="black"/>
<path d="M174 32H172V34H174V32Z" fill="black"/>
<path d="M172 34H170V36H172V34Z" fill="black"/>
<path d="M174 34H172V36H174V34Z" fill="black"/>
<path d="M140 11H138V13H140V11Z" fill="black"/>
<path d="M142 11H140V13H142V11Z" fill="black"/>
<path d="M140 12H138V14H140V12Z" fill="black"/>
<path d="M142 12H140V14H142V12Z" fill="black"/>
<path d="M144 11H142V13H144V11Z" fill="black"/>
<path d="M146 11H144V13H146V11Z" fill="black"/>
<path d="M144 12H142V14H144V12Z" fill="black"/>
<path d="M146 12H144V14H146V12Z" fill="black"/>
<path d="M151 11H149V13H151V11Z" fill="black"/>
<path d="M153 11H151V13H153V11Z" fill="black"/>
<path d="M151 12H149V14H151V12Z" fill="black"/>
<path d="M153 12H151V14H153V12Z" fill="black"/>
<path d="M155 11H153V13H155V11Z" fill="black"/>
<path d="M156 11H154V13H156V11Z" fill="black"/>
<path d="M155 12H153V14H155V12Z" fill="black"/>
<path d="M156 12H154V14H156V12Z" fill="black"/>
<path d="M158 11H156V13H158V11Z" fill="black"/>
<path d="M160 11H158V13H160V11Z" fill="black"/>
<path d="M158 12H156V14H158V12Z" fill="black"/>
<path d="M160 12H158V14H160V12Z" fill="black"/>
<path d="M165 11H163V13H165V11Z" fill="black"/>
<path d="M167 11H165V13H167V11Z" fill="black"/>
<path d="M165 12H163V14H165V12Z" fill="black"/>
<path d="M167 12H165V14H167V12Z" fill="black"/>
<path d="M169 11H167V13H169V11Z" fill="black"/>
<path d="M170 11H168V13H170V11Z" fill="black"/>
<path d="M169 12H167V14H169V12Z" fill="black"/>
<path d="M170 12H168V14H170V12Z" fill="black"/>
<path d="M165 32H163V34H165V32Z" fill="black"/>
<path d="M167 32H165V34H167V32Z" fill="black"/>
<path d="M165 34H163V36H165V34Z" fill="black"/>
<path d="M167 34H165V36H167V34Z" fill="black"/>
<path d="M169 32H167V34H169V32Z" fill="black"/>
<path d="M170 32H168V34H170V32Z" fill="black"/>
<path d="M169 34H167V36H169V34Z" fill="black"/>
<path d="M170 34H168V36H170V34Z" fill="black"/>
<path d="M162 11H160V13H162V11Z" fill="black"/>
<path d="M163 11H161V13H163V11Z" fill="black"/>
<path d="M162 12H160V14H162V12Z" fill="black"/>
<path d="M163 12H161V14H163V12Z" fill="black"/>
<path d="M151 32H149V34H151V32Z" fill="black"/>
<path d="M153 32H151V34H153V32Z" fill="black"/>
<path d="M151 34H149V36H151V34Z" fill="black"/>
<path d="M153 34H151V36H153V34Z" fill="black"/>
<path d="M155 32H153V34H155V32Z" fill="black"/>
<path d="M156 32H154V34H156V32Z" fill="black"/>
<path d="M155 34H153V36H155V34Z" fill="black"/>
<path d="M156 34H154V36H156V34Z" fill="black"/>
<path d="M158 32H156V34H158V32Z" fill="black"/>
<path d="M160 32H158V34H160V32Z" fill="black"/>
<path d="M158 34H156V36H158V34Z" fill="black"/>
<path d="M160 34H158V36H160V34Z" fill="black"/>
<path d="M162 32H160V34H162V32Z" fill="black"/>
<path d="M163 32H161V34H163V32Z" fill="black"/>
<path d="M162 34H160V36H162V34Z" fill="black"/>
<path d="M163 34H161V36H163V34Z" fill="black"/>
<path d="M43 14H41V16H43V14Z" fill="black"/>
<path d="M45 12H43V14H45V12Z" fill="black"/>
<path d="M46 12H44V14H46V12Z" fill="black"/>
<path d="M48 11H46V13H48V11Z" fill="black"/>
<path d="M46 11H44V13H46V11Z" fill="black"/>
<path d="M50 11H48V13H50V11Z" fill="black"/>
<path d="M48 12H46V14H48V12Z" fill="black"/>
<path d="M50 12H48V14H50V12Z" fill="black"/>
<path d="M41 11H39V13H41V11Z" fill="black"/>
<path d="M43 11H41V13H43V11Z" fill="black"/>
<path d="M41 12H39V14H41V12Z" fill="black"/>
<path d="M43 12H41V14H43V12Z" fill="black"/>
<path d="M66 14H64V16H66V14Z" fill="black"/>
<path d="M68 14H66V16H68V14Z" fill="black"/>
<path d="M66 16H64V18H66V16Z" fill="black"/>
<path d="M68 16H66V18H68V16Z" fill="black"/>
<path d="M64 14H62V16H64V14Z" fill="black"/>
<path d="M66 12H64V14H66V12Z" fill="black"/>
<path d="M68 12H66V14H68V12Z" fill="black"/>
<path d="M85 14H83V16H85V14Z" fill="black"/>
<path d="M87 12H85V14H87V12Z" fill="black"/>
<path d="M89 12H87V14H89V12Z" fill="black"/>
<path d="M69 11H67V13H69V11Z" fill="black"/>
<path d="M68 11H66V13H68V11Z" fill="black"/>
<path d="M71 11H69V13H71V11Z" fill="black"/>
<path d="M69 12H67V14H69V12Z" fill="black"/>
<path d="M71 12H69V14H71V12Z" fill="black"/>
<path d="M62 11H60V13H62V11Z" fill="black"/>
<path d="M64 11H62V13H64V11Z" fill="black"/>
<path d="M62 12H60V14H62V12Z" fill="black"/>
<path d="M64 12H62V14H64V12Z" fill="black"/>
<path d="M107 14H105V16H107V14Z" fill="black"/>
<path d="M105 16H103V18H105V16Z" fill="black"/>
<path d="M105 14H103V16H105V14Z" fill="black"/>
<path d="M107 16H105V18H107V16Z" fill="black"/>
<path d="M103 18H101V20H103V18Z" fill="black"/>
<path d="M101 19H99V21H101V19Z" fill="black"/>
<path d="M101 18H99V20H101V18Z" fill="black"/>
<path d="M103 19H101V21H103V19Z" fill="black"/>
<path d="M103 28H101V30H103V28Z" fill="black"/>
<path d="M105 28H103V30H105V28Z" fill="black"/>
<path d="M103 30H101V32H103V30Z" fill="black"/>
<path d="M103 21H101V23H103V21Z" fill="black"/>
<path d="M103 23H101V25H103V23Z" fill="black"/>
<path d="M103 25H101V27H103V25Z" fill="black"/>
<path d="M103 27H101V29H103V27Z" fill="black"/>
<path d="M105 25H103V27H105V25Z" fill="black"/>
<path d="M105 27H103V29H105V27Z" fill="black"/>
<path d="M105 21H103V23H105V21Z" fill="black"/>
<path d="M105 23H103V25H105V23Z" fill="black"/>
<path d="M110 12H108V14H110V12Z" fill="black"/>
<path d="M112 12H110V14H112V12Z" fill="black"/>
<path d="M108 12H106V14H108V12Z" fill="black"/>
<path d="M108 11H106V13H108V11Z" fill="black"/>
<path d="M110 11H108V13H110V11Z" fill="black"/>
<path d="M112 12H110V14H112V12Z" fill="black"/>
<path d="M112 11H110V13H112V11Z" fill="black"/>
<path d="M114 12H112V14H114V12Z" fill="black"/>
<path d="M114 11H112V13H114V11Z" fill="black"/>
<path d="M119 18H117V20H119V18Z" fill="black"/>
<path d="M121 18H119V20H121V18Z" fill="black"/>
<path d="M121 19H119V21H121V19Z" fill="black"/>
<path d="M119 19H117V21H119V19Z" fill="black"/>
<path d="M119 21H117V23H119V21Z" fill="black"/>
<path d="M101 32H99V34H101V32Z" fill="black"/>
<path d="M101 34H99V36H101V34Z" fill="black"/>
<path d="M103 32H101V34H103V32Z" fill="black"/>
<path d="M103 34H101V36H103V34Z" fill="black"/>
<path d="M121 32H119V34H121V32Z" fill="black"/>
<path d="M121 34H119V36H121V34Z" fill="black"/>
<path d="M105 30H103V32H105V30Z" fill="black"/>
<path d="M112 25H110V27H112V25Z" fill="black"/>
<path d="M110 21H108V23H110V21Z" fill="black"/>
<path d="M110 23H108V25H110V23Z" fill="black"/>
<path d="M112 21H110V23H112V21Z" fill="black"/>
<path d="M112 23H110V25H112V23Z" fill="black"/>
<path d="M117 25H115V27H117V25Z" fill="black"/>
<path d="M117 27H115V29H117V27Z" fill="black"/>
<path d="M119 25H117V27H119V25Z" fill="black"/>
<path d="M119 27H117V29H119V27Z" fill="black"/>
<path d="M117 28H115V30H117V28Z" fill="black"/>
<path d="M117 30H115V32H117V30Z" fill="black"/>
<path d="M119 28H117V30H119V28Z" fill="black"/>
<path d="M119 30H117V32H119V30Z" fill="black"/>
<path d="M117 21H115V23H117V21Z" fill="black"/>
<path d="M117 23H115V25H117V23Z" fill="black"/>
<path d="M119 21H117V23H119V21Z" fill="black"/>
<path d="M119 23H117V25H119V23Z" fill="black"/>
</svg>
