<svg width="26" height="18" viewBox="0 0 26 18" fill="none" xmlns="http://www.w3.org/2000/svg">
<rect width="26" height="2" transform="matrix(-1 0 0 1 26 8)" fill="black"/>
<rect width="2" height="2" transform="matrix(-1 0 0 1 4 6)" fill="black"/>
<rect width="2" height="2" transform="matrix(-1 0 0 1 4 10)" fill="black"/>
<rect width="2" height="2" transform="matrix(-1 0 0 1 6 12)" fill="black"/>
<rect width="2" height="2" transform="matrix(-1 0 0 1 8 14)" fill="black"/>
<rect width="2" height="2" transform="matrix(-1 0 0 1 10 16)" fill="black"/>
<rect width="2" height="2" transform="matrix(-1 0 0 1 6 4)" fill="black"/>
<rect width="2" height="2" transform="matrix(-1 0 0 1 8 2)" fill="black"/>
<rect width="2" height="2" transform="matrix(-1 0 0 1 10 0)" fill="black"/>
</svg>
