<svg width="26" height="18" viewBox="0 0 26 18" fill="none" xmlns="http://www.w3.org/2000/svg">
<rect width="26" height="2" transform="matrix(1 1.74846e-07 1.74846e-07 -1 0 10)" fill="white"/>
<rect width="2" height="2" transform="matrix(1 1.74846e-07 1.74846e-07 -1 22 12)" fill="white"/>
<rect width="2" height="2" transform="matrix(1 1.74846e-07 1.74846e-07 -1 22 8)" fill="white"/>
<rect width="2" height="2" transform="matrix(1 1.74846e-07 1.74846e-07 -1 20 6)" fill="white"/>
<rect width="2" height="2" transform="matrix(1 1.74846e-07 1.74846e-07 -1 18 4)" fill="white"/>
<rect width="2" height="2" transform="matrix(1 1.74846e-07 1.74846e-07 -1 16 2)" fill="white"/>
<rect width="2" height="2" transform="matrix(1 1.74846e-07 1.74846e-07 -1 20 14)" fill="white"/>
<rect width="2" height="2" transform="matrix(1 1.74846e-07 1.74846e-07 -1 18 16)" fill="white"/>
<rect width="2" height="2" transform="matrix(1 1.74846e-07 1.74846e-07 -1 16 18)" fill="white"/>
</svg>
