<svg width="24" height="25" viewBox="0 0 24 25" fill="none" xmlns="http://www.w3.org/2000/svg">
<path fill-rule="evenodd" clip-rule="evenodd" d="M2.66667 2.66667L0 2.66667V0H2.66667L2.66667 2.66667ZM5.33203 5.33415H2.66602L2.66602 2.66748L5.33268 2.66748V5.3335L7.9987 5.3335V8.00016H5.33203V5.33415ZM13.3324 8.00016H15.999V10.6668H13.3324V8.00016ZM10.6676 16.0011H8.00098V13.3345H10.6676V16.0011ZM10.6663 10.6676H8.00098V8.00098H10.6676V10.667H13.3337V13.3337H15.999V16.0003H13.3324V13.3343H10.6663V10.6676ZM18.668 16.0011H16.0013V18.6678H18.6673V21.3338H21.334V18.6672H18.668V16.0011ZM24 21.3346H21.3333V24.0013H24V21.3346ZM18.668 5.33415H16.0013V8.00081H18.668V5.33415ZM7.9987 18.6672H5.33203V16.0005H7.9987V18.6672ZM24 2.66732H21.334V5.33333H18.6673V2.66667H21.3333V0.000651121H24V2.66732ZM2.66667 21.3346H5.33268V18.668H2.66602L2.66602 21.334H0V24.0007H2.66667L2.66667 21.3346Z" fill="black"/>
</svg>
