<svg width="38" height="28" viewBox="0 0 38 28" fill="none" xmlns="http://www.w3.org/2000/svg">
<path d="M10.3627 3.45459H6.9082V6.90904V10.3635H10.3627V6.90904V3.45459Z" fill="black"/>
<path d="M13.8168 10.3633H10.3623V13.8177H13.8168V10.3633Z" fill="black"/>
<path d="M17.2728 13.8174H13.8184V17.2718H17.2728V13.8174Z" fill="black"/>
<path d="M31.0912 3.45459H27.6367V6.90904V10.3635H31.0912V6.90904V3.45459Z" fill="black"/>
<path d="M27.6351 10.3633H24.1807V13.8177H27.6351V10.3633Z" fill="black"/>
<path d="M24.183 13.8174H20.7285V17.2718H24.183V13.8174Z" fill="black"/>
<path d="M17.2712 20.7269H13.8168V24.1814H10.3623V27.6358H27.6346V24.1814H24.1801V20.7269H20.7257V17.2725H17.2712V20.7269Z" fill="black"/>
<path d="M34.5453 10.3633H31.0908V13.8177H34.5453V10.3633Z" fill="black"/>
<path d="M34.5449 3.45459V6.90904V10.3635H37.9994V6.90904V3.45459H34.5449Z" fill="black"/>
<path d="M34.5453 0H31.0908V3.45445H34.5453V0Z" fill="black"/>
<path d="M6.90855 0H3.4541V3.45445H6.90855V0Z" fill="black"/>
<path d="M3.45445 3.45459H0V6.90904V10.3635H3.45445V6.90904V3.45459Z" fill="black"/>
<path d="M6.90855 10.3633H3.4541V13.8177H6.90855V10.3633Z" fill="black"/>
<path d="M17.2712 3.45445H20.7257H24.1801H27.6346V0H24.1801H20.7257H17.2712H13.8168H10.3623V3.45445H13.8168H17.2712Z" fill="black"/>
</svg>
