<svg width="37" height="29" viewBox="0 0 37 29" fill="none" xmlns="http://www.w3.org/2000/svg">
<path d="M8.22244 12.3333H4.11133V16.4444H8.22244V12.3333Z" fill="black"/>
<path d="M12.3338 16.4445H8.22266V20.5556H12.3338V16.4445Z" fill="black"/>
<path d="M16.4441 20.5556H12.333V24.6667H16.4441V20.5556Z" fill="black"/>
<path d="M20.5554 24.6667H16.4443V28.7778H20.5554V24.6667Z" fill="black"/>
<path d="M24.6668 20.5556H20.5557V24.6667H24.6668V20.5556Z" fill="black"/>
<path d="M28.7781 16.4445H24.667V20.5556H28.7781V16.4445Z" fill="black"/>
<path d="M32.8885 12.3333H28.7773V16.4444H32.8885V12.3333Z" fill="black"/>
<path d="M32.8889 4.11111V0H28.7778H24.6667H20.5556H16.4444H12.3333H8.22222H4.11111V4.11111H0V8.22222V12.3333H4.11111V8.22222H8.22222V4.11111H12.3333V8.22222H16.4444V4.11111H20.5556V8.22222H24.6667V4.11111H28.7778V8.22222H32.8889V12.3333H37V8.22222V4.11111H32.8889Z" fill="black"/>
<path d="M12.3338 8.22223H8.22266V12.3333H12.3338V8.22223Z" fill="black"/>
<path d="M20.5554 8.22223H16.4443V12.3333H20.5554V8.22223Z" fill="black"/>
<path d="M28.7781 8.22223H24.667V12.3333H28.7781V8.22223Z" fill="black"/>
</svg>
