<svg width="830" height="222" viewBox="0 0 830 222" fill="none" xmlns="http://www.w3.org/2000/svg">
<path d="M250.486 168.691V10.4385H261.571V158.252H337.474V168.691H250.486V168.691ZM392.29 170.882C375.1 170.882 361.807 165.383 351.849 154.945C342.453 144.506 337.43 129.686 337.43 110.442C337.43 91.7554 341.847 76.3769 351.286 65.38C360.682 53.8247 372.892 48.3262 388.956 48.3262C402.811 48.3262 413.896 53.2663 422.209 62.6308C430.523 72.5108 434.376 85.6985 434.376 102.194V111H348.515C348.515 126.937 352.412 139.566 360.162 147.814C367.35 156.62 378.434 160.443 392.29 160.443C398.915 160.443 405.02 159.885 409.999 158.811C414.978 157.694 421.646 156.062 429.397 152.754V163.192C422.772 165.942 416.667 168.132 411.125 169.249C404.933 170.366 398.611 170.925 392.29 170.882V170.882ZM388.956 58.2492C377.308 58.2492 368.475 62.1153 361.245 69.2461C354.62 76.9354 350.16 87.3738 349.078 101.678H422.209C422.209 87.9323 419.438 77.4938 413.333 69.8046C407.791 62.0724 399.477 58.2492 388.956 58.2492ZM492.007 48.8847C500.32 48.8847 508.071 50.517 514.176 53.2663C520.281 56.5739 525.823 61.5139 530.803 69.2032H531.366C530.803 59.8816 530.803 51.0755 530.803 42.2693V0H541.324V168.691H534.137L531.366 150.563C522.489 163.751 509.197 170.882 492.57 170.882C475.943 170.882 463.776 165.942 454.9 155.503C446.024 145.623 442.17 130.76 442.17 111.558C442.17 91.2399 446.587 75.8185 454.9 64.8645C463.213 53.8676 475.943 48.8847 492.007 48.8847V48.8847ZM492.007 58.2492C479.277 58.2492 469.318 62.6308 462.65 71.9954C456.026 80.8015 452.692 93.9892 452.692 111.558C452.692 145.065 465.984 161.56 492.007 161.56C505.3 161.56 515.258 157.694 521.363 150.005C527.469 142.315 530.759 129.686 530.759 111.515V109.883C530.759 91.7554 527.425 78.5677 521.363 70.8785C515.821 62.0724 505.863 58.2492 492.007 58.2492ZM656.499 51.1184V58.8077L632.122 60.44C638.746 68.6877 642.08 77.4938 642.08 86.8154C642.08 98.3707 638.184 107.134 630.433 114.308C622.683 121.438 612.724 124.746 599.951 124.746C594.409 124.746 590.555 124.746 588.866 124.188C584.45 126.378 581.116 129.128 578.908 131.877C576.699 135.185 575.574 137.934 575.574 141.757C575.574 145.58 577.219 148.329 579.99 150.005C582.761 151.637 587.741 152.754 594.409 152.754H614.889C627.619 152.754 637.577 155.503 644.245 160.443C650.913 165.383 654.767 173.072 654.767 183.511C654.767 196.14 649.788 205.505 639.829 212.077C629.87 218.649 615.452 221.957 596.617 221.957C581.679 221.957 570.031 219.208 561.718 213.151C553.405 207.652 549.551 199.405 549.551 189.525C549.551 181.277 552.322 174.705 557.301 169.206C562.281 163.708 569.468 160.4 577.782 158.209C574.448 156.577 571.157 154.343 569.468 151.637C567.303 148.974 566.134 145.709 566.134 142.315C566.134 134.626 571.114 127.495 581.072 121.438C574.448 118.689 568.906 114.308 565.009 108.251C561.112 102.194 559.466 95.0631 559.466 87.3738C559.466 75.8185 563.363 65.9385 570.551 58.8077C578.301 51.6769 588.26 48.3692 601.033 48.3692C608.784 48.3692 614.889 48.9276 619.305 50.56H656.412V51.1184H656.499V51.1184ZM560.116 188.494C560.116 204.431 572.283 212.678 596.66 212.678C627.662 212.678 643.206 202.798 643.206 182.995C643.206 175.865 640.998 170.925 636.019 167.617C631.039 164.309 623.289 162.677 612.204 162.677H592.806C571.2 163.192 560.116 171.44 560.116 188.494V188.494ZM569.555 87.3738C569.555 96.6954 572.326 103.311 577.868 108.809C583.411 113.749 590.598 116.498 600.037 116.498C609.996 116.498 617.747 113.749 622.726 108.809C628.268 103.869 630.476 96.7384 630.476 87.3738C630.476 77.4938 627.705 69.8046 622.163 64.8645C616.621 59.9245 609.433 57.1753 599.474 57.1753C590.079 57.1753 582.285 59.9245 577.305 65.423C571.763 70.32 569.555 78.0093 569.555 87.3738V87.3738Z" fill="#1D2028"/>
<path d="M710.232 170.882C693.042 170.882 679.75 165.384 669.791 154.945C660.395 144.507 655.373 129.687 655.373 110.442C655.373 91.756 659.789 76.3775 669.228 65.3806C678.624 53.8253 690.834 48.3268 706.898 48.3268C720.754 48.3268 731.838 53.2668 740.152 62.6314C748.465 72.5114 752.318 85.6991 752.318 102.194V111.001H667.02C667.02 126.937 670.917 139.567 678.667 147.814C685.855 156.621 696.939 160.444 710.795 160.444C717.42 160.444 723.525 159.885 728.504 158.811C733.484 157.694 740.152 156.062 747.902 152.754V163.193C741.277 165.942 735.172 168.133 729.63 169.25C723.525 170.367 717.42 170.882 710.232 170.882V170.882ZM707.461 58.2498C695.814 58.2498 686.981 62.1159 679.75 69.2467C673.125 76.9359 668.665 87.3744 667.583 101.679H740.714C740.714 87.9328 737.943 77.4944 731.838 69.8051C726.296 62.0729 717.983 58.2498 707.461 58.2498V58.2498ZM813.803 48.8852C818.782 48.8852 824.324 49.4437 829.867 50.5176L827.658 60.9561C822.549 59.8392 817.353 59.2808 812.157 59.3237C802.199 59.3237 793.885 63.7053 787.217 71.953C780.593 80.7591 777.259 91.1975 777.259 104.385V168.691H766.174V51.119H775.57L776.696 72.5544H777.259C782.238 63.7482 787.217 57.7343 792.76 54.4266C799.428 50.5606 806.052 48.8852 813.803 48.8852V48.8852ZM144.707 5.49902H65.4702V111.001H171.812V32.9483C171.855 18.1283 159.645 5.49902 144.707 5.49902V5.49902ZM41.1363 5.49902H27.8435C12.9055 5.49902 0.132324 17.5698 0.132324 32.9913V46.179H41.1363V5.49902V5.49902ZM0.132324 70.879H41.1363V111.559H0.132324V70.879ZM130.851 176.381H144.144C159.082 176.381 171.855 164.31 171.855 148.888V135.744H130.851V176.381ZM65.4702 135.744H106.474V176.424H65.4702V135.744ZM0.132324 135.744V148.931C0.132324 163.751 12.2993 176.424 27.8435 176.424H41.1363V135.744H0.132324Z" fill="#1D2028"/>
</svg>
