<svg width="41" height="65" viewBox="0 0 41 65" fill="none" xmlns="http://www.w3.org/2000/svg">
<path fill-rule="evenodd" clip-rule="evenodd" d="M20.5004 0H0V3.67138H2.74914V22.9943L6.67809 23V3.67138H20.5004H34.3219V23L38.2509 22.9943V3.67138H41V0H20.5004ZM26 19H22V23H21.0004H19V27H21.0004H23V23H26V19ZM30 23H34V27H30V23ZM26 31V27H30V31H26ZM30 38H26V35H22V31H26V34H30V38ZM30 38H34V42H30V38ZM26 54H23V50H21.0004H19V54H15V58H18.5294V61.3286H14.5873V57.3565H10.6452V61.3286H6.70315V42L2.76026 42.0057V61.3286H0V65H20.5004H41V61.3286H38.2405V42.0057L34.2969 42V61.3286H30.354V57.3565H26.4127V61.3286H22.4706V58H26V54ZM19 54H21.0004H22V57.3565H20.5004H19V54ZM7 38H11V42H7V38ZM15 31V34H11V38H15V35H19V31H15ZM11 27H15V31H11V27ZM11 27H7V23H11V27Z" fill="black"/>
</svg>
