<svg width="807" height="148" viewBox="0 0 807 148" fill="none" xmlns="http://www.w3.org/2000/svg">
<path d="M712.207 74.4318C708.024 71.6568 703.411 69.6835 699.044 67.2168C696.215 65.6135 693.201 64.1952 690.741 62.1602C686.558 58.7068 687.419 51.9235 691.786 48.9635C698.06 44.7701 708.455 47.1135 709.562 55.6852C709.562 55.8702 709.747 55.9935 709.931 55.9935H719.403C719.649 55.9935 719.834 55.8085 719.772 55.5618C719.28 49.6418 717.005 44.7085 712.822 41.5635C708.824 38.5418 704.273 36.9385 699.413 36.9385C674.38 36.9385 672.104 63.5168 685.574 71.9035C687.112 72.8902 700.336 79.5501 705.011 82.4485C709.685 85.3468 711.161 90.6501 709.132 94.8435C707.286 98.6668 702.489 101.318 697.691 101.01C692.463 100.702 688.403 97.8652 686.989 93.4252C686.743 92.6235 686.62 91.0818 686.62 90.4035C686.62 90.2185 686.435 90.0335 686.251 90.0335H675.979C675.794 90.0335 675.61 90.2185 675.61 90.4035C675.61 97.8652 677.455 101.997 682.499 105.758C687.235 109.335 692.401 110.815 697.753 110.815C711.776 110.815 719.034 102.86 720.511 94.5968C721.802 86.5185 719.403 79.2418 712.207 74.4318Z" fill="#1D2028"/>
<path d="M266.215 38.2949H261.663H256.681C256.497 38.2949 256.374 38.4183 256.312 38.5416L247.886 66.4149C247.762 66.7849 247.27 66.7849 247.147 66.4149L238.721 38.5416C238.659 38.3566 238.536 38.2949 238.352 38.2949H233.37H228.818H222.667C222.483 38.2949 222.298 38.4799 222.298 38.6649V109.828C222.298 110.013 222.483 110.198 222.667 110.198H232.939C233.124 110.198 233.308 110.013 233.308 109.828V55.7466C233.308 55.3149 233.923 55.2532 234.046 55.6232L242.534 83.6816L243.149 85.6549C243.211 85.8399 243.334 85.9016 243.518 85.9016H251.391C251.576 85.9016 251.699 85.7782 251.76 85.6549L252.376 83.6816L260.864 55.6232C260.987 55.1916 261.602 55.3149 261.602 55.7466V109.828C261.602 110.013 261.786 110.198 261.971 110.198H272.243C272.427 110.198 272.612 110.013 272.612 109.828V38.6649C272.612 38.4799 272.427 38.2949 272.243 38.2949H266.215Z" fill="#1D2028"/>
<path d="M554.932 38.2949C554.747 38.2949 554.624 38.4183 554.563 38.5416L546.136 66.4149C546.013 66.7849 545.521 66.7849 545.398 66.4149L536.971 38.5416C536.91 38.3566 536.787 38.2949 536.602 38.2949H520.979C520.795 38.2949 520.61 38.4799 520.61 38.6649V109.828C520.61 110.013 520.795 110.198 520.979 110.198H531.251C531.436 110.198 531.62 110.013 531.62 109.828V55.7466C531.62 55.3149 532.235 55.2532 532.358 55.6232L540.846 83.6816L541.461 85.6549C541.523 85.8399 541.646 85.9016 541.831 85.9016H549.704C549.888 85.9016 550.011 85.7782 550.073 85.6549L550.688 83.6816L559.176 55.6232C559.299 55.1916 559.914 55.3149 559.914 55.7466V109.828C559.914 110.013 560.098 110.198 560.283 110.198H570.555C570.739 110.198 570.924 110.013 570.924 109.828V38.6649C570.924 38.4799 570.739 38.2949 570.555 38.2949H554.932Z" fill="#1D2028"/>
<path d="M422.445 38.2949H403.316H393.044H373.915C373.73 38.2949 373.546 38.4799 373.546 38.6649V47.5449C373.546 47.7299 373.73 47.9149 373.915 47.9149H392.675V109.828C392.675 110.013 392.859 110.198 393.044 110.198H403.316C403.5 110.198 403.685 110.013 403.685 109.828V47.9149H422.445C422.629 47.9149 422.814 47.7299 422.814 47.5449V38.6649C422.814 38.4799 422.691 38.2949 422.445 38.2949Z" fill="#1D2028"/>
<path d="M483.029 110.199H492.378C492.624 110.199 492.809 109.952 492.747 109.706L473.434 38.2955C473.373 38.1105 473.249 38.0488 473.065 38.0488H469.498H463.224H459.656C459.472 38.0488 459.349 38.1722 459.287 38.2955L439.974 109.706C439.912 109.952 440.097 110.199 440.343 110.199H449.692C449.877 110.199 450 110.075 450.061 109.952L455.658 89.1705C455.72 88.9855 455.843 88.9238 456.027 88.9238H476.694C476.878 88.9238 477.001 89.0472 477.063 89.1705L482.66 109.952C482.722 110.075 482.906 110.199 483.029 110.199ZM458.488 78.7488L465.992 50.9372C466.115 50.5672 466.607 50.5672 466.73 50.9372L474.234 78.7488C474.295 78.9955 474.111 79.2422 473.865 79.2422H458.857C458.611 79.2422 458.426 78.9955 458.488 78.7488Z" fill="#1D2028"/>
<path d="M642.457 110.199H651.807C652.053 110.199 652.237 109.952 652.176 109.706L632.862 38.2955C632.801 38.1105 632.678 38.0488 632.493 38.0488H628.926H622.652H619.084C618.9 38.0488 618.777 38.1722 618.715 38.2955L599.402 109.706C599.341 109.952 599.525 110.199 599.771 110.199H609.12C609.305 110.199 609.428 110.075 609.489 109.952L615.086 89.1705C615.148 88.9855 615.271 88.9238 615.456 88.9238H636.122C636.307 88.9238 636.43 89.0472 636.491 89.1705L642.088 109.952C642.15 110.075 642.273 110.199 642.457 110.199ZM617.916 78.7488L625.42 50.9372C625.543 50.5672 626.035 50.5672 626.158 50.9372L633.662 78.7488C633.723 78.9955 633.539 79.2422 633.293 79.2422H618.285C618.039 79.2422 617.854 78.9955 617.916 78.7488Z" fill="#1D2028"/>
<path d="M314.314 99.6531V77.5765C314.314 77.3915 314.498 77.2064 314.683 77.2064H342.054C342.238 77.2064 342.423 77.0215 342.423 76.8365V67.9564C342.423 67.7714 342.238 67.5865 342.054 67.5865H314.683C314.498 67.5865 314.314 67.4015 314.314 67.2165V48.3464C314.314 48.1614 314.498 47.9765 314.683 47.9765H345.806C345.99 47.9765 346.175 47.7914 346.175 47.6064V38.7264C346.175 38.5414 345.99 38.3564 345.806 38.3564H314.314H303.673C303.488 38.3564 303.304 38.5414 303.304 38.7264V47.9765V67.6481V77.2681V100.085V109.828C303.304 110.013 303.488 110.198 303.673 110.198H314.314H347.097C347.282 110.198 347.466 110.013 347.466 109.828V100.455C347.466 100.27 347.282 100.085 347.097 100.085H314.621C314.437 100.023 314.314 99.8998 314.314 99.6531Z" fill="#1D2028"/>
<path d="M806.068 109.581L770.516 72.7664C770.393 72.6431 770.393 72.3964 770.516 72.2731L802.5 38.9731C802.746 38.7264 802.562 38.3564 802.254 38.3564H789.153C789.03 38.3564 788.969 38.4181 788.907 38.4798L761.782 66.7231C761.536 66.9698 761.167 66.7848 761.167 66.4764V38.7264C761.167 38.5414 760.983 38.3564 760.798 38.3564H750.526C750.342 38.3564 750.157 38.5414 750.157 38.7264V109.89C750.157 110.075 750.342 110.26 750.526 110.26H760.798C760.983 110.26 761.167 110.075 761.167 109.89V78.5631C761.167 78.2548 761.598 78.0698 761.782 78.3164L792.536 110.136C792.597 110.198 792.72 110.26 792.782 110.26H805.883C806.129 110.198 806.314 109.766 806.068 109.581Z" fill="#1D2028"/>
<path d="M152.118 0L89.9336 46.25L101.497 18.9933L152.118 0Z" fill="#919191"/>
<path d="M8.68164 0L70.3123 46.6817L59.3025 18.9933L8.68164 0Z" fill="#919191"/>
<path d="M129.729 107.238L113.184 132.645L148.612 142.45L158.761 107.793L129.729 107.238Z" fill="#919191" stroke="#919191" stroke-linecap="round" stroke-linejoin="round"/>
<path d="M2.10059 107.793L12.1878 142.45L47.5548 132.645L31.0707 107.238L2.10059 107.793Z" fill="#919191" stroke="#919191" stroke-linecap="round" stroke-linejoin="round"/>
<path d="M45.6479 64.3183L35.8066 79.2416L70.866 80.8449L69.6974 42.9199L45.6479 64.3183Z" fill="#919191" stroke="#919191" stroke-linecap="round" stroke-linejoin="round"/>
<path d="M115.152 64.3183L90.7332 42.4883L89.9336 80.845L124.993 79.2416L115.152 64.3183Z" fill="#919191" stroke="#919191" stroke-linecap="round" stroke-linejoin="round"/>
<path d="M47.5547 132.645L68.7748 122.347L50.5071 108.04L47.5547 132.645Z" fill="#919191" stroke="#919191" stroke-linecap="round" stroke-linejoin="round"/>
<path d="M92.0249 122.347L113.184 132.645L110.293 108.04L92.0249 122.347Z" fill="#919191" stroke="#919191" stroke-linecap="round" stroke-linejoin="round"/>
<path d="M113.184 132.645L92.0249 122.347L93.7471 136.16L93.5626 142.018L113.184 132.645Z" fill="#B5B5B5"/>
<path d="M47.5547 132.645L67.2372 142.018L67.1141 136.16L68.7748 122.347L47.5547 132.645Z" fill="#B5B5B5"/>
<path d="M67.6063 98.9131L50.0151 93.733L62.4397 87.998L67.6063 98.9131Z" fill="#1D2028"/>
<path d="M93.1934 98.9131L98.36 87.998L110.846 93.733L93.1934 98.9131Z" fill="#1D2028"/>
<path d="M47.5549 132.644L50.6302 107.237L31.0708 107.792L47.5549 132.644Z" fill="#7E7E7E"/>
<path d="M110.169 107.237L113.183 132.644L129.729 107.792L110.169 107.237Z" fill="#7E7E7E"/>
<path d="M124.993 79.2412L89.9336 80.8445L93.1935 98.9129L98.3602 87.9979L110.846 93.7329L124.993 79.2412Z" fill="#7E7E7E"/>
<path d="M50.0149 93.7329L62.4395 87.9979L67.6061 98.9129L70.866 80.8445L35.8066 79.2412L50.0149 93.7329Z" fill="#7E7E7E"/>
<path d="M35.8071 79.2412L50.5075 108.04L50.0154 93.7329L35.8071 79.2412Z" fill="#919191"/>
<path d="M110.847 93.7329L110.293 108.04L124.993 79.2412L110.847 93.7329Z" fill="#919191"/>
<path d="M70.8664 80.8447L67.6064 98.913L71.7275 120.25L72.6501 92.1297L70.8664 80.8447Z" fill="#919191"/>
<path d="M89.9336 80.8447L88.2114 92.068L89.0725 120.25L93.1936 98.913L89.9336 80.8447Z" fill="#919191"/>
<path d="M93.1938 98.9134L89.0728 120.25L92.0251 122.347L110.293 108.04L110.846 93.7334L93.1938 98.9134Z" fill="#A0A0A0" stroke="#A0A0A0" stroke-linecap="round" stroke-linejoin="round"/>
<path d="M50.0151 93.7334L50.5072 108.04L68.775 122.347L71.7273 120.25L67.6063 98.9134L50.0151 93.7334Z" fill="#A0A0A0" stroke="#A0A0A0" stroke-linecap="round" stroke-linejoin="round"/>
<path d="M93.5624 142.019L93.747 136.16L92.1478 134.804H68.6518L67.1141 136.16L67.2371 142.019L47.5547 132.646L54.4435 138.319L68.4058 148.001H92.3323L106.356 138.319L113.183 132.646L93.5624 142.019Z" fill="#AFAFAF"/>
<path d="M92.0248 122.347L89.0725 120.25H71.7273L68.775 122.347L67.1143 136.16L68.6519 134.803H92.1479L93.7471 136.16L92.0248 122.347Z" fill="#1D2028"/>
<path d="M154.763 49.2717L159.991 23.7417L152.118 0L92.0249 44.7083L115.152 64.3183L147.812 73.8767L155.009 65.4283L151.872 63.1467L156.854 58.5833L153.041 55.6233L158.023 51.8L154.763 49.2717Z" fill="#4C4C4C"/>
<path d="M0.809082 23.7417L6.09875 49.2717L2.71582 51.8L7.75945 55.6233L3.94597 58.5833L8.9281 63.1467L5.79121 65.4283L12.9876 73.8767L45.6482 64.3183L68.7751 44.7083L8.68207 0L0.809082 23.7417Z" fill="#4C4C4C"/>
<path d="M147.813 73.8767L115.152 64.3184L124.993 79.2417L110.293 108.04L129.729 107.793H158.761L147.813 73.8767Z" fill="#A0A0A0" stroke="#A0A0A0" stroke-linecap="round" stroke-linejoin="round"/>
<path d="M45.648 64.3184L12.9874 73.8767L2.10059 107.793H31.0707L50.5071 108.04L35.8068 79.2417L45.648 64.3184Z" fill="#A0A0A0" stroke="#A0A0A0" stroke-linecap="round" stroke-linejoin="round"/>
<path d="M89.9336 80.8448L92.0248 44.7082L101.497 18.9932H59.3027L68.7749 44.7082L70.8662 80.8448L71.6658 92.1915L71.7273 120.25H89.0724L89.134 92.1915L89.9336 80.8448Z" fill="#A0A0A0" stroke="#A0A0A0" stroke-linecap="round" stroke-linejoin="round"/>
</svg>
