<svg width="26" height="28" viewBox="0 0 26 28" fill="none" xmlns="http://www.w3.org/2000/svg">
<path d="M16.8881 0.00317383H8.44629V2.80224H16.8881V0.00317383Z" fill="black"/>
<path d="M19.7042 2.80225H16.8887V5.60131H19.7042V2.80225Z" fill="black"/>
<path d="M22.5196 5.59668H19.7041V13.9939H22.5196V5.59668Z" fill="black"/>
<path d="M16.8881 16.793H8.44629V19.592H16.8881V16.793Z" fill="black"/>
<path d="M22.515 19.592H16.8887V22.3911H22.515V19.592Z" fill="black"/>
<path d="M25.3302 22.3911H22.5146V27.9846H25.3302V22.3911Z" fill="black"/>
<path d="M8.44645 19.592H2.81543V22.3911H8.44645V19.592Z" fill="black"/>
<path d="M2.81551 22.3911H0V27.9846H2.81551V22.3911Z" fill="black"/>
<path d="M8.44637 2.80225H5.63086V5.60131H8.44637V2.80225Z" fill="black"/>
<path d="M19.7042 13.9985H16.8887V16.7976H19.7042V13.9985Z" fill="black"/>
<path d="M8.44637 13.9985H5.63086V16.7976H8.44637V13.9985Z" fill="black"/>
<path d="M5.63094 5.59668H2.81543V13.9939H5.63094V5.59668Z" fill="black"/>
</svg>
