<svg width="18" height="20" viewBox="0 0 18 20" fill="none" xmlns="http://www.w3.org/2000/svg">
<path d="M12.0001 2.00211H10.001V4.0012V6.0003H12.0001V4.0012V2.00211Z" fill="black"/>
<path d="M15.9992 2.0021V0H14.0001H12.001V2.0021H14.0001H15.9992Z" fill="black"/>
<path d="M12.001 6.00034V7.99944H14.0001H15.9992V6.00034H14.0001H12.001Z" fill="black"/>
<path d="M15.999 2.00211V4.0012V6.0003H17.9981V4.0012V2.00211H15.999Z" fill="black"/>
<path d="M2.0021 7.9964H0V9.9985V11.9976H2.0021V9.9985V7.9964Z" fill="black"/>
<path d="M6.00113 7.99639V5.99728H4.00203H2.00293V7.99639H4.00203H6.00113Z" fill="black"/>
<path d="M2.00293 11.9976V13.9967H4.00203H6.00113V11.9976H4.00203H2.00293Z" fill="black"/>
<path d="M8.00008 9.9985V7.9994V7.9964H6.00098V9.9985V11.9976H8.00008V9.9985Z" fill="black"/>
<path d="M12.0012 14.0027H10.0021L10.0051 12.0036L8.003 12.0006L8 13.9997L10.0021 14.0027V16.0018V18.0009H12.0012V16.0018V14.0027Z" fill="black"/>
<path d="M15.9992 14.0027V12.0006H14.0001H12.001V14.0027H14.0001H15.9992Z" fill="black"/>
<path d="M12.001 18.0009V20H14.0001H15.9992V18.0009H14.0001H12.001Z" fill="black"/>
<path d="M15.999 16.0018V18.0009H17.9981V16.0018V14.0027H15.999V16.0018Z" fill="black"/>
<path d="M8.00459 5.99607L8.00195 7.99817L10.0041 8.00081L10.0067 5.99871L8.00459 5.99607Z" fill="black"/>
</svg>
