<svg width="36" height="36" viewBox="0 0 36 36" fill="none" xmlns="http://www.w3.org/2000/svg">
<path d="M35.5017 13.893V9.26227H33.1864V2.31628H30.871V0.000976562L28.5557 0.000976562L23.925 0.000976562V2.31628L21.6097 2.31628V4.63166H20.838L14.6637 4.63166H13.892V2.31628H11.5767V0.000976562L6.94599 0.000976562L4.63068 0.000976562V2.31628H2.31531L2.31531 9.26227H0L0 11.5776L0 13.893H2.31531L2.31531 16.2083L2.31531 33.1874H2.31586V33.1876H4.63068V35.5027H13.892H21.6097H30.871V33.1877L33.1869 33.1877L33.1869 16.2087H33.1864V13.893H35.5017Z" fill="white"/>
<path d="M30.8711 2.31531V0L28.5558 0L23.9251 0V2.31531H21.6098V4.63068H20.8381H14.6638L13.8921 4.63068V2.31531L11.5768 2.31531V0L6.94611 0L4.63081 0V2.31531L2.31543 2.31531L2.31543 11.5767H6.1743H6.94611L13.8921 11.5767L13.8921 35.5017H21.6098L21.6098 11.5767L28.5558 11.5767H31.6429H33.1865V2.31531L30.8711 2.31531Z" fill="white"/>
<path d="M11.577 6.94617V4.63086L6.94629 4.63086L6.94629 11.5768H13.8923V6.94617L11.577 6.94617Z" fill="white"/>
<path d="M23.9257 6.94617V4.63086L28.5563 4.63086V11.5768H21.6104V6.94617H23.9257Z" fill="white"/>
<path d="M13.8925 2.31543L11.5771 2.31543V4.63074H13.8925V2.31543Z" fill="black"/>
<path d="M11.5768 0L4.63086 0V2.31531L11.5768 2.31531V0Z" fill="black"/>
<path d="M23.9247 2.31543L21.6094 2.31543V4.63074H23.9247V2.31543Z" fill="black"/>
<path d="M21.6093 4.63086L13.8916 4.63086V6.94617L21.6093 6.94617V4.63086Z" fill="black"/>
<path d="M35.5017 9.26227H33.1864V2.31628H30.8711V0.000976562L23.925 0.000976562V2.31628L30.871 2.31628V9.26227L23.925 9.26227V6.94697H21.6097V9.26227H13.892L13.892 6.94697L11.5767 6.94697L11.5767 9.26227L4.63068 9.26227L4.63068 2.31628H2.31531L2.31531 9.26227H0L0 11.5776L0 13.8929H2.31531L2.31531 16.2082L2.31531 33.1873H4.63061V35.5027H30.871V33.1874H21.6097V16.2083H30.871V33.1874L33.1863 33.1874L33.1863 13.893H35.5017V9.26227ZM19.2944 11.5776V13.893H16.2073V11.5776H19.2944ZM13.892 11.5776V13.893L4.63068 13.893H2.31531V11.5776L13.892 11.5776ZM4.63068 33.1874L4.63068 16.2083H13.892L13.892 33.1874H4.63068ZM19.2944 33.1874H16.2073V16.2083H19.2944V33.1874ZM33.1864 13.893H30.8711L21.6097 13.893V11.5776L33.1864 11.5776V13.893Z" fill="black"/>
</svg>
