<svg width="47" height="47" viewBox="0 0 47 47" fill="none" xmlns="http://www.w3.org/2000/svg">
<path d="M12.6469 39.7954H10.8535V41.5888H12.6469V39.7954Z" fill="black"/>
<path d="M14.4409 39.7952H12.6475V41.5886H14.4409V39.7952Z" fill="black"/>
<path d="M12.6469 41.5886H10.8535V43.382H12.6469V41.5886Z" fill="black"/>
<path d="M14.4409 41.5886H12.6475V43.382H14.4409V41.5886Z" fill="black"/>
<path d="M9.02877 39.7954H7.23535V41.5888H9.02877V39.7954Z" fill="black"/>
<path d="M10.8227 39.7954H9.0293V41.5888H10.8227V39.7954Z" fill="black"/>
<path d="M9.02877 41.5889H7.23535V43.3823H9.02877V41.5889Z" fill="black"/>
<path d="M10.8227 41.5889H9.0293V43.3823H10.8227V41.5889Z" fill="black"/>
<path d="M34.353 39.7954H32.5596V41.5888H34.353V39.7954Z" fill="black"/>
<path d="M36.1469 39.7954H34.3535V41.5888H36.1469V39.7954Z" fill="black"/>
<path d="M34.353 41.5889H32.5596V43.3823H34.353V41.5889Z" fill="black"/>
<path d="M36.1469 41.5889H34.3535V43.3823H36.1469V41.5889Z" fill="black"/>
<path d="M37.9712 39.7954H36.1777V41.5888H37.9712V39.7954Z" fill="black"/>
<path d="M39.7651 39.7954H37.9717V41.5888H39.7651V39.7954Z" fill="black"/>
<path d="M37.9712 41.5889H36.1777V43.3823H37.9712V41.5889Z" fill="black"/>
<path d="M39.7651 41.5889H37.9717V43.3823H39.7651V41.5889Z" fill="black"/>
<path d="M41.5883 36.1777H39.7949V37.9712H41.5883V36.1777Z" fill="black"/>
<path d="M43.3823 36.1777H41.5889V37.9712H43.3823V36.1777Z" fill="black"/>
<path d="M41.5883 37.9712H39.7949V39.7646H41.5883V37.9712Z" fill="black"/>
<path d="M43.3823 37.9712H41.5889V39.7646H43.3823V37.9712Z" fill="black"/>
<path d="M41.5883 32.5598H39.7949V34.3532H41.5883V32.5598Z" fill="black"/>
<path d="M43.3823 32.5598H41.5889V34.3532H43.3823V32.5598Z" fill="black"/>
<path d="M41.5883 34.3533H39.7949V36.1467H41.5883V34.3533Z" fill="black"/>
<path d="M43.3823 34.3533H41.5889V36.1467H43.3823V34.3533Z" fill="black"/>
<path d="M5.41158 32.5601H3.61816V34.3535H5.41158V32.5601Z" fill="black"/>
<path d="M7.20553 32.5598H5.41211V34.3532H7.20553V32.5598Z" fill="black"/>
<path d="M5.41158 34.3533H3.61816V36.1467H5.41158V34.3533Z" fill="black"/>
<path d="M7.20553 34.3533H5.41211V36.1467H7.20553V34.3533Z" fill="black"/>
<path d="M5.41158 36.1777H3.61816V37.9712H5.41158V36.1777Z" fill="black"/>
<path d="M7.20553 36.1777H5.41211V37.9712H7.20553V36.1777Z" fill="black"/>
<path d="M5.41158 37.9712H3.61816V39.7646H5.41158V37.9712Z" fill="black"/>
<path d="M7.20553 37.9712H5.41211V39.7646H7.20553V37.9712Z" fill="black"/>
<path d="M16.2651 43.4131H14.4717V45.2065H16.2651V43.4131Z" fill="black"/>
<path d="M18.0581 43.4131H16.2646V45.2065H18.0581V43.4131Z" fill="black"/>
<path d="M16.2641 45.2065H14.4707V47H16.2641V45.2065Z" fill="black"/>
<path d="M18.0581 45.2065H16.2646V47H18.0581V45.2065Z" fill="black"/>
<path d="M19.8823 43.4131H18.0889V45.2065H19.8823V43.4131Z" fill="black"/>
<path d="M21.6753 43.4131H19.8818V45.2065H21.6753V43.4131Z" fill="black"/>
<path d="M19.8823 45.2065H18.0889V47H19.8823V45.2065Z" fill="black"/>
<path d="M21.6753 45.2065H19.8818V47H21.6753V45.2065Z" fill="black"/>
<path d="M23.5005 43.4133H21.707V45.2068H23.5005V43.4133Z" fill="black"/>
<path d="M25.2934 43.4131H23.5V45.2065H25.2934V43.4131Z" fill="black"/>
<path d="M23.4995 45.2065H21.7061V47H23.4995V45.2065Z" fill="black"/>
<path d="M25.2934 45.2065H23.5V47H25.2934V45.2065Z" fill="black"/>
<path d="M27.1176 43.4133H25.3242V45.2068H27.1176V43.4133Z" fill="black"/>
<path d="M28.9116 43.4131H27.1182V45.2065H28.9116V43.4131Z" fill="black"/>
<path d="M27.1176 45.2065H25.3242V47H27.1176V45.2065Z" fill="black"/>
<path d="M28.9116 45.2065H27.1182V47H28.9116V45.2065Z" fill="black"/>
<path d="M30.7368 43.4131H28.9434V45.2065H30.7368V43.4131Z" fill="black"/>
<path d="M32.5297 43.4131H30.7363V45.2065H32.5297V43.4131Z" fill="black"/>
<path d="M30.7358 45.2065H28.9424V47H30.7358V45.2065Z" fill="black"/>
<path d="M32.5297 45.2065H30.7363V47H32.5297V45.2065Z" fill="black"/>
<path d="M1.79342 14.4712H0V16.2646H1.79342V14.4712Z" fill="black"/>
<path d="M3.58737 14.4712H1.79395V16.2646H3.58737V14.4712Z" fill="black"/>
<path d="M1.79342 16.2646H0V18.0581H1.79342V16.2646Z" fill="black"/>
<path d="M3.58737 16.2646H1.79395V18.0581H3.58737V16.2646Z" fill="black"/>
<path d="M1.79342 18.0889H0V19.8823H1.79342V18.0889Z" fill="black"/>
<path d="M3.58737 18.0889H1.79395V19.8823H3.58737V18.0889Z" fill="black"/>
<path d="M1.79342 19.8823H0V21.6757H1.79342V19.8823Z" fill="black"/>
<path d="M3.58737 19.8823H1.79395V21.6757H3.58737V19.8823Z" fill="black"/>
<path d="M1.79342 21.7065H0V23.5H1.79342V21.7065Z" fill="black"/>
<path d="M3.58737 21.7065H1.79395V23.5H3.58737V21.7065Z" fill="black"/>
<path d="M1.79342 23.5H0V25.2934H1.79342V23.5Z" fill="black"/>
<path d="M3.58737 23.5H1.79395V25.2934H3.58737V23.5Z" fill="black"/>
<path d="M1.79342 25.3242H0V27.1176H1.79342V25.3242Z" fill="black"/>
<path d="M3.58737 25.3242H1.79395V27.1176H3.58737V25.3242Z" fill="black"/>
<path d="M1.79342 27.1177H0V28.9111H1.79342V27.1177Z" fill="black"/>
<path d="M3.58737 27.1177H1.79395V28.9111H3.58737V27.1177Z" fill="black"/>
<path d="M1.79342 28.9429H0V30.7363H1.79342V28.9429Z" fill="black"/>
<path d="M3.58737 28.9419H1.79395V30.7353H3.58737V28.9419Z" fill="black"/>
<path d="M1.79342 30.7354H0V32.5288H1.79342V30.7354Z" fill="black"/>
<path d="M3.58737 30.7354H1.79395V32.5288H3.58737V30.7354Z" fill="black"/>
<path d="M5.41158 10.8535H3.61816V12.6469H5.41158V10.8535Z" fill="black"/>
<path d="M7.20553 10.8533H5.41211V12.6467H7.20553V10.8533Z" fill="black"/>
<path d="M5.41158 12.6467H3.61816V14.4401H5.41158V12.6467Z" fill="black"/>
<path d="M7.20553 12.6467H5.41211V14.4401H7.20553V12.6467Z" fill="black"/>
<path d="M5.41158 7.23657H3.61816V9.02999H5.41158V7.23657Z" fill="black"/>
<path d="M7.20553 7.2356H5.41211V9.02902H7.20553V7.2356Z" fill="black"/>
<path d="M5.41158 9.02905H3.61816V10.8225H5.41158V9.02905Z" fill="black"/>
<path d="M7.20553 9.02905H5.41211V10.8225H7.20553V9.02905Z" fill="black"/>
<path d="M21.6753 21.7065H19.8818V23.5H21.6753V21.7065Z" fill="white"/>
<path d="M23.4995 21.7065H21.7061V23.5H23.4995V21.7065Z" fill="white"/>
<path d="M21.6753 23.5H19.8818V25.2934H21.6753V23.5Z" fill="white"/>
<path d="M23.4995 23.5H21.7061V25.2934H23.4995V23.5Z" fill="white"/>
<path d="M21.6753 25.3242H19.8818V27.1176H21.6753V25.3242Z" fill="white"/>
<path d="M23.4995 25.3242H21.7061V27.1176H23.4995V25.3242Z" fill="white"/>
<path d="M21.6753 27.1177H19.8818V28.9111H21.6753V27.1177Z" fill="white"/>
<path d="M23.4995 27.1177H21.7061V28.9111H23.4995V27.1177Z" fill="white"/>
<path d="M25.2934 21.7065H23.5V23.5H25.2934V21.7065Z" fill="white"/>
<path d="M27.1176 21.7065H25.3242V23.5H27.1176V21.7065Z" fill="white"/>
<path d="M25.2934 23.5H23.5V25.2934H25.2934V23.5Z" fill="white"/>
<path d="M27.1176 23.5H25.3242V25.2934H27.1176V23.5Z" fill="white"/>
<path d="M28.9116 21.7065H27.1182V23.5H28.9116V21.7065Z" fill="white"/>
<path d="M30.7358 21.7065H28.9424V23.5H30.7358V21.7065Z" fill="white"/>
<path d="M28.9116 23.5H27.1182V25.2934H28.9116V23.5Z" fill="white"/>
<path d="M30.7358 23.5H28.9424V25.2934H30.7358V23.5Z" fill="white"/>
<path d="M21.6753 14.4712H19.8818V16.2646H21.6753V14.4712Z" fill="white"/>
<path d="M23.4995 14.4712H21.7061V16.2646H23.4995V14.4712Z" fill="white"/>
<path d="M21.6753 16.2646H19.8818V18.0581H21.6753V16.2646Z" fill="white"/>
<path d="M23.4995 16.2646H21.7061V18.0581H23.4995V16.2646Z" fill="white"/>
<path d="M23.4995 25.3242H21.7061V27.1176H23.4995V25.3242Z" fill="black"/>
<path d="M21.6753 28.9419H19.8818V30.7353H21.6753V28.9419Z" fill="white"/>
<path d="M23.4995 28.9419H21.7061V30.7353H23.4995V28.9419Z" fill="white"/>
<path d="M21.6753 30.7354H19.8818V32.5288H21.6753V30.7354Z" fill="white"/>
<path d="M23.4995 30.7354H21.7061V32.5288H23.4995V30.7354Z" fill="white"/>
<path d="M25.2934 14.4712H23.5V16.2646H25.2934V14.4712Z" fill="white"/>
<path d="M27.1176 14.4712H25.3242V16.2646H27.1176V14.4712Z" fill="white"/>
<path d="M25.2934 16.2646H23.5V18.0581H25.2934V16.2646Z" fill="white"/>
<path d="M27.1176 16.2646H25.3242V18.0581H27.1176V16.2646Z" fill="white"/>
<path d="M25.2934 18.0889H23.5V19.8823H25.2934V18.0889Z" fill="white"/>
<path d="M27.1176 18.0889H25.3242V19.8823H27.1176V18.0889Z" fill="white"/>
<path d="M25.2934 19.8823H23.5V21.6757H25.2934V19.8823Z" fill="white"/>
<path d="M27.1176 19.8823H25.3242V21.6757H27.1176V19.8823Z" fill="white"/>
<path d="M21.6753 18.0889H19.8818V19.8823H21.6753V18.0889Z" fill="white"/>
<path d="M23.4995 18.0889H21.7061V19.8823H23.4995V18.0889Z" fill="white"/>
<path d="M21.6753 19.8823H19.8818V21.6757H21.6753V19.8823Z" fill="white"/>
<path d="M23.4995 19.8823H21.7061V21.6757H23.4995V19.8823Z" fill="white"/>
<path d="M28.9116 18.0889H27.1182V19.8823H28.9116V18.0889Z" fill="white"/>
<path d="M30.7358 18.0889H28.9424V19.8823H30.7358V18.0889Z" fill="white"/>
<path d="M28.9116 19.8823H27.1182V21.6757H28.9116V19.8823Z" fill="white"/>
<path d="M30.7358 19.8823H28.9424V21.6757H30.7358V19.8823Z" fill="white"/>
<path d="M18.0581 21.7065H16.2646V23.5H18.0581V21.7065Z" fill="white"/>
<path d="M19.8823 21.7065H18.0889V23.5H19.8823V21.7065Z" fill="white"/>
<path d="M18.0581 23.5H16.2646V25.2934H18.0581V23.5Z" fill="white"/>
<path d="M19.8823 23.5H18.0889V25.2934H19.8823V23.5Z" fill="white"/>
<path d="M25.2934 28.9429H23.5V30.7363H25.2934V28.9429Z" fill="white"/>
<path d="M27.1176 28.9419H25.3242V30.7353H27.1176V28.9419Z" fill="white"/>
<path d="M25.2934 30.7354H23.5V32.5288H25.2934V30.7354Z" fill="white"/>
<path d="M27.1176 30.7354H25.3242V32.5288H27.1176V30.7354Z" fill="white"/>
<path d="M25.2934 27.1177H23.5V28.9111H25.2934V27.1177Z" fill="white"/>
<path d="M27.1176 27.1177H25.3242V28.9111H27.1176V27.1177Z" fill="white"/>
<path d="M14.4399 10.8535H12.6465V12.6469H14.4399V10.8535Z" fill="#FF636B"/>
<path d="M16.2641 10.8533H14.4707V12.6467H16.2641V10.8533Z" fill="#FF636B"/>
<path d="M14.4399 12.6467H12.6465V14.4401H14.4399V12.6467Z" fill="#FF636B"/>
<path d="M16.2641 12.6467H14.4707V14.4401H16.2641V12.6467Z" fill="#FF636B"/>
<path d="M16.2641 7.23535H14.4707V9.02877H16.2641V7.23535Z" fill="#FF636B"/>
<path d="M18.0581 7.23535H16.2646V9.02877H18.0581V7.23535Z" fill="#FF636B"/>
<path d="M16.2641 9.02881H14.4707V10.8222H16.2641V9.02881Z" fill="#FF636B"/>
<path d="M18.0581 9.02881H16.2646V10.8222H18.0581V9.02881Z" fill="#FF636B"/>
<path d="M14.4399 18.0889H12.6465V19.8823H14.4399V18.0889Z" fill="#FF636B"/>
<path d="M16.2641 18.0889H14.4707V19.8823H16.2641V18.0889Z" fill="#FF636B"/>
<path d="M14.4399 19.8823H12.6465V21.6757H14.4399V19.8823Z" fill="#FF636B"/>
<path d="M16.2641 19.8823H14.4707V21.6757H16.2641V19.8823Z" fill="#FF636B"/>
<path d="M14.4399 14.4712H12.6465V16.2646H14.4399V14.4712Z" fill="#FF636B"/>
<path d="M16.2641 14.4712H14.4707V16.2646H16.2641V14.4712Z" fill="#FF636B"/>
<path d="M14.4399 16.2646H12.6465V18.0581H14.4399V16.2646Z" fill="#FF636B"/>
<path d="M16.2641 16.2646H14.4707V18.0581H16.2641V16.2646Z" fill="#FF636B"/>
<path d="M5.41158 18.0889H3.61816V19.8823H5.41158V18.0889Z" fill="#FF636B"/>
<path d="M7.20553 18.0889H5.41211V19.8823H7.20553V18.0889Z" fill="#FF636B"/>
<path d="M5.41158 19.8823H3.61816V21.6757H5.41158V19.8823Z" fill="#FF636B"/>
<path d="M7.20553 19.8823H5.41211V21.6757H7.20553V19.8823Z" fill="#FF636B"/>
<path d="M5.41158 14.4712H3.61816V16.2646H5.41158V14.4712Z" fill="#FF636B"/>
<path d="M7.20553 14.4712H5.41211V16.2646H7.20553V14.4712Z" fill="#FF636B"/>
<path d="M5.41158 16.2646H3.61816V18.0581H5.41158V16.2646Z" fill="#FF636B"/>
<path d="M7.20553 16.2646H5.41211V18.0581H7.20553V16.2646Z" fill="#FF636B"/>
<path d="M5.41158 25.3245H3.61816V27.1179H5.41158V25.3245Z" fill="#FF636B"/>
<path d="M7.20553 25.3242H5.41211V27.1176H7.20553V25.3242Z" fill="#FF636B"/>
<path d="M5.41158 27.1177H3.61816V28.9111H5.41158V27.1177Z" fill="#FF636B"/>
<path d="M7.20553 27.1177H5.41211V28.9111H7.20553V27.1177Z" fill="#FF636B"/>
<path d="M5.41158 28.9421H3.61816V30.7356H5.41158V28.9421Z" fill="#FF636B"/>
<path d="M7.20553 28.9419H5.41211V30.7353H7.20553V28.9419Z" fill="#FF636B"/>
<path d="M5.41158 30.7354H3.61816V32.5288H5.41158V30.7354Z" fill="#FF636B"/>
<path d="M7.20553 30.7354H5.41211V32.5288H7.20553V30.7354Z" fill="#FF636B"/>
<path d="M14.4399 28.9419H12.6465V30.7353H14.4399V28.9419Z" fill="#FF636B"/>
<path d="M16.2641 28.9419H14.4707V30.7353H16.2641V28.9419Z" fill="#FF636B"/>
<path d="M14.4399 30.7354H12.6465V32.5288H14.4399V30.7354Z" fill="#FF636B"/>
<path d="M16.2641 30.7354H14.4707V32.5288H16.2641V30.7354Z" fill="#FF636B"/>
<path d="M14.4399 25.3242H12.6465V27.1176H14.4399V25.3242Z" fill="#FF636B"/>
<path d="M16.2641 25.3242H14.4707V27.1176H16.2641V25.3242Z" fill="#FF636B"/>
<path d="M14.4399 27.1177H12.6465V28.9111H14.4399V27.1177Z" fill="#FF636B"/>
<path d="M16.2641 27.1177H14.4707V28.9111H16.2641V27.1177Z" fill="#FF636B"/>
<path d="M14.4399 32.5598H12.6465V34.3532H14.4399V32.5598Z" fill="white"/>
<path d="M16.2641 32.5598H14.4707V34.3532H16.2641V32.5598Z" fill="white"/>
<path d="M14.4399 34.3533H12.6465V36.1467H14.4399V34.3533Z" fill="white"/>
<path d="M16.2641 34.3533H14.4707V36.1467H16.2641V34.3533Z" fill="white"/>
<path d="M14.4399 36.1777H12.6465V37.9712H14.4399V36.1777Z" fill="white"/>
<path d="M16.2641 36.1777H14.4707V37.9712H16.2641V36.1777Z" fill="white"/>
<path d="M14.4399 37.9712H12.6465V39.7646H14.4399V37.9712Z" fill="white"/>
<path d="M16.2641 37.9712H14.4707V39.7646H16.2641V37.9712Z" fill="white"/>
<path d="M18.0581 36.1777H16.2646V37.9712H18.0581V36.1777Z" fill="white"/>
<path d="M19.8823 36.1777H18.0889V37.9712H19.8823V36.1777Z" fill="white"/>
<path d="M18.0581 37.9712H16.2646V39.7646H18.0581V37.9712Z" fill="white"/>
<path d="M19.8823 37.9712H18.0889V39.7646H19.8823V37.9712Z" fill="white"/>
<path d="M19.8823 39.7954H18.0889V41.5888H19.8823V39.7954Z" fill="white"/>
<path d="M21.6753 39.7954H19.8818V41.5888H21.6753V39.7954Z" fill="white"/>
<path d="M19.8823 41.5889H18.0889V43.3823H19.8823V41.5889Z" fill="white"/>
<path d="M21.6753 41.5889H19.8818V43.3823H21.6753V41.5889Z" fill="white"/>
<path d="M18.0581 39.7959H16.2646V41.5893H18.0581V39.7959Z" fill="white"/>
<path d="M19.8823 39.7954H18.0889V41.5888H19.8823V39.7954Z" fill="white"/>
<path d="M18.0581 41.5889H16.2646V43.3823H18.0581V41.5889Z" fill="white"/>
<path d="M19.8823 41.5889H18.0889V43.3823H19.8823V41.5889Z" fill="white"/>
<path d="M18.0581 32.5598H16.2646V34.3532H18.0581V32.5598Z" fill="white"/>
<path d="M19.8823 32.5598H18.0889V34.3532H19.8823V32.5598Z" fill="white"/>
<path d="M18.0581 34.3533H16.2646V36.1467H18.0581V34.3533Z" fill="white"/>
<path d="M19.8823 34.3533H18.0889V36.1467H19.8823V34.3533Z" fill="white"/>
<path d="M21.6753 36.1777H19.8818V37.9712H21.6753V36.1777Z" fill="white"/>
<path d="M23.4995 36.1777H21.7061V37.9712H23.4995V36.1777Z" fill="white"/>
<path d="M21.6753 37.9712H19.8818V39.7646H21.6753V37.9712Z" fill="white"/>
<path d="M23.4995 37.9712H21.7061V39.7646H23.4995V37.9712Z" fill="white"/>
<path d="M23.4995 39.7954H21.7061V41.5888H23.4995V39.7954Z" fill="white"/>
<path d="M25.2934 39.7954H23.5V41.5888H25.2934V39.7954Z" fill="white"/>
<path d="M23.4995 41.5889H21.7061V43.3823H23.4995V41.5889Z" fill="white"/>
<path d="M25.2934 41.5889H23.5V43.3823H25.2934V41.5889Z" fill="white"/>
<path d="M27.1176 39.7954H25.3242V41.5888H27.1176V39.7954Z" fill="white"/>
<path d="M28.9116 39.7954H27.1182V41.5888H28.9116V39.7954Z" fill="white"/>
<path d="M27.1176 41.5889H25.3242V43.3823H27.1176V41.5889Z" fill="white"/>
<path d="M28.9116 41.5889H27.1182V43.3823H28.9116V41.5889Z" fill="white"/>
<path d="M30.7358 39.7957H28.9424V41.5891H30.7358V39.7957Z" fill="white"/>
<path d="M32.5297 39.7954H30.7363V41.5888H32.5297V39.7954Z" fill="white"/>
<path d="M30.7358 41.5889H28.9424V43.3823H30.7358V41.5889Z" fill="white"/>
<path d="M32.5297 41.5889H30.7363V43.3823H32.5297V41.5889Z" fill="white"/>
<path d="M25.2934 36.1777H23.5V37.9712H25.2934V36.1777Z" fill="white"/>
<path d="M27.1176 36.1777H25.3242V37.9712H27.1176V36.1777Z" fill="white"/>
<path d="M25.2934 37.9712H23.5V39.7646H25.2934V37.9712Z" fill="white"/>
<path d="M27.1176 37.9712H25.3242V39.7646H27.1176V37.9712Z" fill="white"/>
<path d="M28.9116 32.5598H27.1182V34.3532H28.9116V32.5598Z" fill="white"/>
<path d="M30.7358 32.5598H28.9424V34.3532H30.7358V32.5598Z" fill="white"/>
<path d="M28.9116 34.3533H27.1182V36.1467H28.9116V34.3533Z" fill="white"/>
<path d="M30.7358 34.3533H28.9424V36.1467H30.7358V34.3533Z" fill="white"/>
<path d="M28.9116 36.1777H27.1182V37.9712H28.9116V36.1777Z" fill="white"/>
<path d="M30.7358 36.1777H28.9424V37.9712H30.7358V36.1777Z" fill="white"/>
<path d="M28.9116 37.9712H27.1182V39.7646H28.9116V37.9712Z" fill="white"/>
<path d="M30.7358 37.9712H28.9424V39.7646H30.7358V37.9712Z" fill="white"/>
<path d="M32.5288 36.1777H30.7354V37.9712H32.5288V36.1777Z" fill="white"/>
<path d="M34.353 36.1777H32.5596V37.9712H34.353V36.1777Z" fill="white"/>
<path d="M32.5288 37.9712H30.7354V39.7646H32.5288V37.9712Z" fill="white"/>
<path d="M34.353 37.9712H32.5596V39.7646H34.353V37.9712Z" fill="white"/>
<path d="M32.5288 25.3242H30.7354V27.1176H32.5288V25.3242Z" fill="#FF636B"/>
<path d="M34.353 25.3242H32.5596V27.1176H34.353V25.3242Z" fill="#FF636B"/>
<path d="M32.5288 27.1177H30.7354V28.9111H32.5288V27.1177Z" fill="#FF636B"/>
<path d="M34.353 27.1177H32.5596V28.9111H34.353V27.1177Z" fill="#FF636B"/>
<path d="M32.5288 28.9424H30.7354V30.7358H32.5288V28.9424Z" fill="#FF636B"/>
<path d="M34.353 28.9421H32.5596V30.7356H34.353V28.9421Z" fill="#FF636B"/>
<path d="M32.5288 30.7356H30.7354V32.529H32.5288V30.7356Z" fill="#FF636B"/>
<path d="M34.353 30.7356H32.5596V32.529H34.353V30.7356Z" fill="#FF636B"/>
<path d="M41.5883 28.9421H39.7949V30.7356H41.5883V28.9421Z" fill="#FF636B"/>
<path d="M43.3823 28.9419H41.5889V30.7353H43.3823V28.9419Z" fill="#FF636B"/>
<path d="M41.5883 30.7354H39.7949V32.5288H41.5883V30.7354Z" fill="#FF636B"/>
<path d="M43.3823 30.7354H41.5889V32.5288H43.3823V30.7354Z" fill="#FF636B"/>
<path d="M41.5883 25.3242H39.7949V27.1176H41.5883V25.3242Z" fill="#FF636B"/>
<path d="M43.3823 25.3242H41.5889V27.1176H43.3823V25.3242Z" fill="#FF636B"/>
<path d="M41.5883 27.1177H39.7949V28.9111H41.5883V27.1177Z" fill="#FF636B"/>
<path d="M43.3823 27.1177H41.5889V28.9111H43.3823V27.1177Z" fill="#FF636B"/>
<path d="M32.5288 14.4709H30.7354V16.2644H32.5288V14.4709Z" fill="#FF636B"/>
<path d="M34.353 14.4709H32.5596V16.2644H34.353V14.4709Z" fill="#FF636B"/>
<path d="M32.5288 16.2644H30.7354V18.0578H32.5288V16.2644Z" fill="#FF636B"/>
<path d="M34.353 16.2644H32.5596V18.0578H34.353V16.2644Z" fill="#FF636B"/>
<path d="M32.5288 18.0889H30.7354V19.8823H32.5288V18.0889Z" fill="#FF636B"/>
<path d="M34.353 18.0889H32.5596V19.8823H34.353V18.0889Z" fill="#FF636B"/>
<path d="M32.5288 19.8823H30.7354V21.6757H32.5288V19.8823Z" fill="#FF636B"/>
<path d="M34.353 19.8823H32.5596V21.6757H34.353V19.8823Z" fill="#FF636B"/>
<path d="M32.5288 21.7065H30.7354V23.5H32.5288V21.7065Z" fill="#FF636B"/>
<path d="M34.353 21.7065H32.5596V23.5H34.353V21.7065Z" fill="#FF636B"/>
<path d="M32.5288 23.5H30.7354V25.2934H32.5288V23.5Z" fill="#FF636B"/>
<path d="M34.353 23.5H32.5596V25.2934H34.353V23.5Z" fill="#FF636B"/>
<path d="M41.5883 18.0889H39.7949V19.8823H41.5883V18.0889Z" fill="#FF636B"/>
<path d="M43.3823 18.0889H41.5889V19.8823H43.3823V18.0889Z" fill="#FF636B"/>
<path d="M41.5883 19.8823H39.7949V21.6757H41.5883V19.8823Z" fill="#FF636B"/>
<path d="M43.3823 19.8823H41.5889V21.6757H43.3823V19.8823Z" fill="#FF636B"/>
<path d="M41.5883 21.7065H39.7949V23.5H41.5883V21.7065Z" fill="#FF636B"/>
<path d="M43.3823 21.7065H41.5889V23.5H43.3823V21.7065Z" fill="#FF636B"/>
<path d="M41.5883 23.5H39.7949V25.2934H41.5883V23.5Z" fill="#FF636B"/>
<path d="M43.3823 23.5H41.5889V25.2934H43.3823V23.5Z" fill="#FF636B"/>
<path d="M41.5883 14.4712H39.7949V16.2646H41.5883V14.4712Z" fill="#FF636B"/>
<path d="M43.3823 14.4712H41.5889V16.2646H43.3823V14.4712Z" fill="#FF636B"/>
<path d="M41.5883 16.2646H39.7949V18.0581H41.5883V16.2646Z" fill="#FF636B"/>
<path d="M43.3823 16.2646H41.5889V18.0581H43.3823V16.2646Z" fill="#FF636B"/>
<path d="M37.9712 28.9419H36.1777V30.7353H37.9712V28.9419Z" fill="#FF636B"/>
<path d="M39.7651 28.9419H37.9717V30.7353H39.7651V28.9419Z" fill="#FF636B"/>
<path d="M37.9712 30.7354H36.1777V32.5288H37.9712V30.7354Z" fill="#FF636B"/>
<path d="M39.7651 30.7354H37.9717V32.5288H39.7651V30.7354Z" fill="#FF636B"/>
<path d="M37.9721 32.5598H36.1787V34.3532H37.9721V32.5598Z" fill="#FF636B"/>
<path d="M39.7651 32.5598H37.9717V34.3532H39.7651V32.5598Z" fill="#FF636B"/>
<path d="M37.9712 34.3533H36.1777V36.1467H37.9712V34.3533Z" fill="#FF636B"/>
<path d="M39.7651 34.3533H37.9717V36.1467H39.7651V34.3533Z" fill="#FF636B"/>
<path d="M37.9721 36.1777H36.1787V37.9712H37.9721V36.1777Z" fill="#FF636B"/>
<path d="M39.7651 36.1777H37.9717V37.9712H39.7651V36.1777Z" fill="#FF636B"/>
<path d="M37.9712 37.9712H36.1777V39.7646H37.9712V37.9712Z" fill="#FF636B"/>
<path d="M39.7651 37.9712H37.9717V39.7646H39.7651V37.9712Z" fill="#FF636B"/>
<path d="M37.9721 25.3245H36.1787V27.1179H37.9721V25.3245Z" fill="#FF636B"/>
<path d="M39.7651 25.3242H37.9717V27.1176H39.7651V25.3242Z" fill="#FF636B"/>
<path d="M37.9712 27.1177H36.1777V28.9111H37.9712V27.1177Z" fill="#FF636B"/>
<path d="M39.7651 27.1177H37.9717V28.9111H39.7651V27.1177Z" fill="#FF636B"/>
<path d="M37.9721 18.0889H36.1787V19.8823H37.9721V18.0889Z" fill="#FF636B"/>
<path d="M39.7651 18.0889H37.9717V19.8823H39.7651V18.0889Z" fill="#FF636B"/>
<path d="M37.9712 19.8823H36.1777V21.6757H37.9712V19.8823Z" fill="#FF636B"/>
<path d="M39.7651 19.8823H37.9717V21.6757H39.7651V19.8823Z" fill="#FF636B"/>
<path d="M37.9721 21.7065H36.1787V23.5H37.9721V21.7065Z" fill="#FF636B"/>
<path d="M39.7651 21.7065H37.9717V23.5H39.7651V21.7065Z" fill="#FF636B"/>
<path d="M37.9712 23.5H36.1777V25.2934H37.9712V23.5Z" fill="#FF636B"/>
<path d="M39.7651 23.5H37.9717V25.2934H39.7651V23.5Z" fill="#FF636B"/>
<path d="M37.9721 14.4712H36.1787V16.2646H37.9721V14.4712Z" fill="#FF636B"/>
<path d="M39.7651 14.4712H37.9717V16.2646H39.7651V14.4712Z" fill="#FF636B"/>
<path d="M37.9712 16.2646H36.1777V18.0581H37.9712V16.2646Z" fill="#FF636B"/>
<path d="M39.7651 16.2646H37.9717V18.0581H39.7651V16.2646Z" fill="#FF636B"/>
<path d="M37.9721 10.8535H36.1787V12.6469H37.9721V10.8535Z" fill="#FF636B"/>
<path d="M39.7651 10.8533H37.9717V12.6467H39.7651V10.8533Z" fill="#FF636B"/>
<path d="M37.9712 12.6467H36.1777V14.4401H37.9712V12.6467Z" fill="#FF636B"/>
<path d="M39.7651 12.6467H37.9717V14.4401H39.7651V12.6467Z" fill="#FF636B"/>
<path d="M36.1469 28.9421H34.3535V30.7356H36.1469V28.9421Z" fill="#FF636B"/>
<path d="M37.9712 28.9421H36.1777V30.7356H37.9712V28.9421Z" fill="#FF636B"/>
<path d="M36.1469 30.7356H34.3535V32.529H36.1469V30.7356Z" fill="#FF636B"/>
<path d="M37.9712 30.7356H36.1777V32.529H37.9712V30.7356Z" fill="#FF636B"/>
<path d="M36.1469 32.5598H34.3535V34.3532H36.1469V32.5598Z" fill="#FF636B"/>
<path d="M37.9712 32.5598H36.1777V34.3532H37.9712V32.5598Z" fill="#FF636B"/>
<path d="M36.1469 34.3533H34.3535V36.1467H36.1469V34.3533Z" fill="#FF636B"/>
<path d="M37.9712 34.3533H36.1777V36.1467H37.9712V34.3533Z" fill="#FF636B"/>
<path d="M36.1469 25.3242H34.3535V27.1176H36.1469V25.3242Z" fill="#FF636B"/>
<path d="M37.9712 25.3242H36.1777V27.1176H37.9712V25.3242Z" fill="#FF636B"/>
<path d="M36.1469 27.1177H34.3535V28.9111H36.1469V27.1177Z" fill="#FF636B"/>
<path d="M37.9712 27.1177H36.1777V28.9111H37.9712V27.1177Z" fill="#FF636B"/>
<path d="M36.1469 18.0889H34.3535V19.8823H36.1469V18.0889Z" fill="#FF636B"/>
<path d="M37.9712 18.0889H36.1777V19.8823H37.9712V18.0889Z" fill="#FF636B"/>
<path d="M36.1469 19.8823H34.3535V21.6757H36.1469V19.8823Z" fill="#FF636B"/>
<path d="M37.9712 19.8823H36.1777V21.6757H37.9712V19.8823Z" fill="#FF636B"/>
<path d="M36.1469 21.7068H34.3535V23.5002H36.1469V21.7068Z" fill="#FF636B"/>
<path d="M37.9712 21.7065H36.1777V23.5H37.9712V21.7065Z" fill="#FF636B"/>
<path d="M36.1469 23.5H34.3535V25.2934H36.1469V23.5Z" fill="#FF636B"/>
<path d="M37.9712 23.5H36.1777V25.2934H37.9712V23.5Z" fill="#FF636B"/>
<path d="M36.1469 14.4709H34.3535V16.2644H36.1469V14.4709Z" fill="#FF636B"/>
<path d="M37.9712 14.4709H36.1777V16.2644H37.9712V14.4709Z" fill="#FF636B"/>
<path d="M36.1469 16.2644H34.3535V18.0578H36.1469V16.2644Z" fill="#FF636B"/>
<path d="M37.9712 16.2644H36.1777V18.0578H37.9712V16.2644Z" fill="#FF636B"/>
<path d="M36.1469 10.8538H34.3535V12.6472H36.1469V10.8538Z" fill="#FF636B"/>
<path d="M37.9712 10.8533H36.1777V12.6467H37.9712V10.8533Z" fill="#FF636B"/>
<path d="M36.1469 12.6467H34.3535V14.4401H36.1469V12.6467Z" fill="#FF636B"/>
<path d="M37.9712 12.6467H36.1777V14.4401H37.9712V12.6467Z" fill="#FF636B"/>
<path d="M37.9721 7.23633H36.1787V9.02975H37.9721V7.23633Z" fill="#FF636B"/>
<path d="M39.7651 7.23535H37.9717V9.02877H39.7651V7.23535Z" fill="#FF636B"/>
<path d="M37.9712 9.02881H36.1777V10.8222H37.9712V9.02881Z" fill="#FF636B"/>
<path d="M39.7651 9.02881H37.9717V10.8222H39.7651V9.02881Z" fill="#FF636B"/>
<path d="M5.41158 21.7065H3.61816V23.5H5.41158V21.7065Z" fill="#FF636B"/>
<path d="M7.20553 21.7065H5.41211V23.5H7.20553V21.7065Z" fill="#FF636B"/>
<path d="M5.41158 23.5H3.61816V25.2934H5.41158V23.5Z" fill="#FF636B"/>
<path d="M7.20553 23.5H5.41211V25.2934H7.20553V23.5Z" fill="#FF636B"/>
<path d="M9.02877 18.0889H7.23535V19.8823H9.02877V18.0889Z" fill="#FF636B"/>
<path d="M10.8227 18.0889H9.0293V19.8823H10.8227V18.0889Z" fill="#FF636B"/>
<path d="M9.02877 19.8823H7.23535V21.6757H9.02877V19.8823Z" fill="#FF636B"/>
<path d="M10.8227 19.8823H9.0293V21.6757H10.8227V19.8823Z" fill="#FF636B"/>
<path d="M9.02877 14.4712H7.23535V16.2646H9.02877V14.4712Z" fill="#FF636B"/>
<path d="M10.8227 14.4712H9.0293V16.2646H10.8227V14.4712Z" fill="#FF636B"/>
<path d="M9.02877 16.2646H7.23535V18.0581H9.02877V16.2646Z" fill="#FF636B"/>
<path d="M10.8227 16.2646H9.0293V18.0581H10.8227V16.2646Z" fill="#FF636B"/>
<path d="M9.02877 7.23657H7.23535V9.02999H9.02877V7.23657Z" fill="#FF636B"/>
<path d="M10.8227 7.2356H9.0293V9.02902H10.8227V7.2356Z" fill="#FF636B"/>
<path d="M9.02877 9.02905H7.23535V10.8225H9.02877V9.02905Z" fill="#FF636B"/>
<path d="M10.8227 9.02905H9.0293V10.8225H10.8227V9.02905Z" fill="#FF636B"/>
<path d="M9.02877 10.8535H7.23535V12.6469H9.02877V10.8535Z" fill="#FF636B"/>
<path d="M10.8227 10.8533H9.0293V12.6467H10.8227V10.8533Z" fill="#FF636B"/>
<path d="M9.02877 12.6467H7.23535V14.4401H9.02877V12.6467Z" fill="#FF636B"/>
<path d="M10.8227 12.6467H9.0293V14.4401H10.8227V12.6467Z" fill="#FF636B"/>
<path d="M9.02877 25.3245H7.23535V27.1179H9.02877V25.3245Z" fill="#FF636B"/>
<path d="M10.8227 25.3242H9.0293V27.1176H10.8227V25.3242Z" fill="#FF636B"/>
<path d="M9.02877 27.1177H7.23535V28.9111H9.02877V27.1177Z" fill="#FF636B"/>
<path d="M10.8227 27.1177H9.0293V28.9111H10.8227V27.1177Z" fill="#FF636B"/>
<path d="M9.02877 28.9419H7.23535V30.7353H9.02877V28.9419Z" fill="#FF636B"/>
<path d="M10.8227 28.9419H9.0293V30.7353H10.8227V28.9419Z" fill="#FF636B"/>
<path d="M9.02877 30.7354H7.23535V32.5288H9.02877V30.7354Z" fill="#FF636B"/>
<path d="M10.8227 30.7354H9.0293V32.5288H10.8227V30.7354Z" fill="#FF636B"/>
<path d="M9.02877 21.7065H7.23535V23.5H9.02877V21.7065Z" fill="#FF636B"/>
<path d="M10.8227 21.7065H9.0293V23.5H10.8227V21.7065Z" fill="#FF636B"/>
<path d="M9.02877 23.5H7.23535V25.2934H9.02877V23.5Z" fill="#FF636B"/>
<path d="M10.8227 23.5H9.0293V25.2934H10.8227V23.5Z" fill="#FF636B"/>
<path d="M12.6469 18.0889H10.8535V19.8823H12.6469V18.0889Z" fill="#FF636B"/>
<path d="M14.4409 18.0889H12.6475V19.8823H14.4409V18.0889Z" fill="#FF636B"/>
<path d="M12.6469 19.8823H10.8535V21.6757H12.6469V19.8823Z" fill="#FF636B"/>
<path d="M14.4409 19.8823H12.6475V21.6757H14.4409V19.8823Z" fill="#FF636B"/>
<path d="M12.6469 14.4709H10.8535V16.2644H12.6469V14.4709Z" fill="#FF636B"/>
<path d="M14.4409 14.4709H12.6475V16.2644H14.4409V14.4709Z" fill="#FF636B"/>
<path d="M12.6469 16.2644H10.8535V18.0578H12.6469V16.2644Z" fill="#FF636B"/>
<path d="M14.4409 16.2644H12.6475V18.0578H14.4409V16.2644Z" fill="#FF636B"/>
<path d="M12.6469 7.2356H10.8535V9.02902H12.6469V7.2356Z" fill="#FF636B"/>
<path d="M14.4409 7.2356H12.6475V9.02902H14.4409V7.2356Z" fill="#FF636B"/>
<path d="M12.6469 9.02905H10.8535V10.8225H12.6469V9.02905Z" fill="#FF636B"/>
<path d="M14.4409 9.02905H12.6475V10.8225H14.4409V9.02905Z" fill="#FF636B"/>
<path d="M12.6469 10.8535H10.8535V12.6469H12.6469V10.8535Z" fill="#FF636B"/>
<path d="M14.4409 10.8533H12.6475V12.6467H14.4409V10.8533Z" fill="#FF636B"/>
<path d="M12.6469 12.6467H10.8535V14.4401H12.6469V12.6467Z" fill="#FF636B"/>
<path d="M14.4409 12.6467H12.6475V14.4401H14.4409V12.6467Z" fill="#FF636B"/>
<path d="M12.6469 25.3242H10.8535V27.1176H12.6469V25.3242Z" fill="#FF636B"/>
<path d="M14.4409 25.3242H12.6475V27.1176H14.4409V25.3242Z" fill="#FF636B"/>
<path d="M12.6469 27.1177H10.8535V28.9111H12.6469V27.1177Z" fill="#FF636B"/>
<path d="M14.4409 27.1177H12.6475V28.9111H14.4409V27.1177Z" fill="#FF636B"/>
<path d="M12.6469 28.9421H10.8535V30.7356H12.6469V28.9421Z" fill="#FF636B"/>
<path d="M14.4409 28.9421H12.6475V30.7356H14.4409V28.9421Z" fill="#FF636B"/>
<path d="M12.6469 30.7356H10.8535V32.529H12.6469V30.7356Z" fill="#FF636B"/>
<path d="M14.4409 30.7356H12.6475V32.529H14.4409V30.7356Z" fill="#FF636B"/>
<path d="M9.02877 32.5598H7.23535V34.3532H9.02877V32.5598Z" fill="#FF636B"/>
<path d="M10.8227 32.5598H9.0293V34.3532H10.8227V32.5598Z" fill="#FF636B"/>
<path d="M9.02877 34.3533H7.23535V36.1467H9.02877V34.3533Z" fill="#FF636B"/>
<path d="M10.8227 34.3533H9.0293V36.1467H10.8227V34.3533Z" fill="#FF636B"/>
<path d="M9.02877 36.1777H7.23535V37.9712H9.02877V36.1777Z" fill="#FF636B"/>
<path d="M10.8227 36.1777H9.0293V37.9712H10.8227V36.1777Z" fill="#FF636B"/>
<path d="M9.02877 37.9712H7.23535V39.7646H9.02877V37.9712Z" fill="#FF636B"/>
<path d="M10.8227 37.9712H9.0293V39.7646H10.8227V37.9712Z" fill="#FF636B"/>
<path d="M12.6469 32.5598H10.8535V34.3532H12.6469V32.5598Z" fill="#FF636B"/>
<path d="M14.4409 32.5598H12.6475V34.3532H14.4409V32.5598Z" fill="#FF636B"/>
<path d="M12.6469 34.3533H10.8535V36.1467H12.6469V34.3533Z" fill="#FF636B"/>
<path d="M14.4409 34.3533H12.6475V36.1467H14.4409V34.3533Z" fill="#FF636B"/>
<path d="M12.6469 21.7065H10.8535V23.5H12.6469V21.7065Z" fill="#FF636B"/>
<path d="M14.4409 21.7065H12.6475V23.5H14.4409V21.7065Z" fill="#FF636B"/>
<path d="M12.6469 23.5H10.8535V25.2934H12.6469V23.5Z" fill="#FF636B"/>
<path d="M14.4409 23.5H12.6475V25.2934H14.4409V23.5Z" fill="#FF636B"/>
<path d="M18.0581 10.8533H16.2646V12.6467H18.0581V10.8533Z" fill="#FF636B"/>
<path d="M19.8823 10.8533H18.0889V12.6467H19.8823V10.8533Z" fill="#FF636B"/>
<path d="M18.0581 12.6467H16.2646V14.4401H18.0581V12.6467Z" fill="#FF636B"/>
<path d="M19.8823 12.6467H18.0889V14.4401H19.8823V12.6467Z" fill="#FF636B"/>
<path d="M19.8823 7.2356H18.0889V9.02902H19.8823V7.2356Z" fill="#FF636B"/>
<path d="M21.6753 7.2356H19.8818V9.02902H21.6753V7.2356Z" fill="#FF636B"/>
<path d="M19.8823 9.02905H18.0889V10.8225H19.8823V9.02905Z" fill="#FF636B"/>
<path d="M21.6753 9.02905H19.8818V10.8225H21.6753V9.02905Z" fill="#FF636B"/>
<path d="M23.5005 7.23657H21.707V9.02999H23.5005V7.23657Z" fill="#FF636B"/>
<path d="M25.2934 7.2356H23.5V9.02902H25.2934V7.2356Z" fill="#FF636B"/>
<path d="M23.4995 9.02905H21.7061V10.8225H23.4995V9.02905Z" fill="#FF636B"/>
<path d="M25.2934 9.02905H23.5V10.8225H25.2934V9.02905Z" fill="#FF636B"/>
<path d="M27.1176 7.2356H25.3242V9.02902H27.1176V7.2356Z" fill="#FF636B"/>
<path d="M28.9116 7.2356H27.1182V9.02902H28.9116V7.2356Z" fill="#FF636B"/>
<path d="M27.1176 9.02905H25.3242V10.8225H27.1176V9.02905Z" fill="#FF636B"/>
<path d="M28.9116 9.02905H27.1182V10.8225H28.9116V9.02905Z" fill="#FF636B"/>
<path d="M30.7368 7.23633H28.9434V9.02975H30.7368V7.23633Z" fill="#FF636B"/>
<path d="M32.5297 7.23535H30.7363V9.02877H32.5297V7.23535Z" fill="#FF636B"/>
<path d="M30.7358 9.02881H28.9424V10.8222H30.7358V9.02881Z" fill="#FF636B"/>
<path d="M32.5297 9.02881H30.7363V10.8222H32.5297V9.02881Z" fill="#FF636B"/>
<path d="M34.354 7.23633H32.5605V9.02975H34.354V7.23633Z" fill="#FF636B"/>
<path d="M36.1469 7.23535H34.3535V9.02877H36.1469V7.23535Z" fill="#FF636B"/>
<path d="M34.353 9.02881H32.5596V10.8222H34.353V9.02881Z" fill="#FF636B"/>
<path d="M36.1469 9.02881H34.3535V10.8222H36.1469V9.02881Z" fill="#FF636B"/>
<path d="M28.9116 10.8535H27.1182V12.6469H28.9116V10.8535Z" fill="#FF636B"/>
<path d="M30.7358 10.8533H28.9424V12.6467H30.7358V10.8533Z" fill="#FF636B"/>
<path d="M28.9116 12.6467H27.1182V14.4401H28.9116V12.6467Z" fill="#FF636B"/>
<path d="M30.7358 12.6467H28.9424V14.4401H30.7358V12.6467Z" fill="#FF636B"/>
<path d="M32.5288 10.8535H30.7354V12.6469H32.5288V10.8535Z" fill="#FF636B"/>
<path d="M34.353 10.8533H32.5596V12.6467H34.353V10.8533Z" fill="#FF636B"/>
<path d="M32.5288 12.6467H30.7354V14.4401H32.5288V12.6467Z" fill="#FF636B"/>
<path d="M34.353 12.6467H32.5596V14.4401H34.353V12.6467Z" fill="#FF636B"/>
<path d="M30.7368 3.61768H28.9434V5.4111H30.7368V3.61768Z" fill="#FF636B"/>
<path d="M32.5297 3.61768H30.7363V5.4111H32.5297V3.61768Z" fill="#FF636B"/>
<path d="M30.7358 5.41113H28.9424V7.20455H30.7358V5.41113Z" fill="#FF636B"/>
<path d="M32.5297 5.41113H30.7363V7.20455H32.5297V5.41113Z" fill="#FF636B"/>
<path d="M27.1176 3.61768H25.3242V5.4111H27.1176V3.61768Z" fill="#FF636B"/>
<path d="M28.9116 3.61768H27.1182V5.4111H28.9116V3.61768Z" fill="#FF636B"/>
<path d="M27.1176 5.41113H25.3242V7.20455H27.1176V5.41113Z" fill="#FF636B"/>
<path d="M28.9116 5.41113H27.1182V7.20455H28.9116V5.41113Z" fill="#FF636B"/>
<path d="M23.5005 3.61768H21.707V5.4111H23.5005V3.61768Z" fill="#FF636B"/>
<path d="M25.2934 3.61768H23.5V5.4111H25.2934V3.61768Z" fill="#FF636B"/>
<path d="M23.4995 5.41113H21.7061V7.20455H23.4995V5.41113Z" fill="#FF636B"/>
<path d="M25.2934 5.41113H23.5V7.20455H25.2934V5.41113Z" fill="#FF636B"/>
<path d="M19.8823 3.61768H18.0889V5.4111H19.8823V3.61768Z" fill="#FF636B"/>
<path d="M21.6753 3.61768H19.8818V5.4111H21.6753V3.61768Z" fill="#FF636B"/>
<path d="M19.8823 5.41113H18.0889V7.20455H19.8823V5.41113Z" fill="#FF636B"/>
<path d="M21.6753 5.41113H19.8818V7.20455H21.6753V5.41113Z" fill="#FF636B"/>
<path d="M16.2651 3.61768H14.4717V5.4111H16.2651V3.61768Z" fill="#FF636B"/>
<path d="M18.0581 3.61768H16.2646V5.4111H18.0581V3.61768Z" fill="#FF636B"/>
<path d="M16.2641 5.41113H14.4707V7.20455H16.2641V5.41113Z" fill="#FF636B"/>
<path d="M18.0581 5.41113H16.2646V7.20455H18.0581V5.41113Z" fill="#FF636B"/>
<path d="M41.5883 10.8535H39.7949V12.6469H41.5883V10.8535Z" fill="black"/>
<path d="M43.3823 10.8533H41.5889V12.6467H43.3823V10.8533Z" fill="black"/>
<path d="M41.5883 12.6467H39.7949V14.4401H41.5883V12.6467Z" fill="black"/>
<path d="M43.3823 12.6467H41.5889V14.4401H43.3823V12.6467Z" fill="black"/>
<path d="M41.5883 7.23633H39.7949V9.02975H41.5883V7.23633Z" fill="black"/>
<path d="M43.3823 7.23535H41.5889V9.02877H43.3823V7.23535Z" fill="black"/>
<path d="M41.5883 9.02881H39.7949V10.8222H41.5883V9.02881Z" fill="black"/>
<path d="M43.3823 9.02881H41.5889V10.8222H43.3823V9.02881Z" fill="black"/>
<path d="M12.6469 3.61768H10.8535V5.4111H12.6469V3.61768Z" fill="black"/>
<path d="M14.4409 3.61768H12.6475V5.4111H14.4409V3.61768Z" fill="black"/>
<path d="M12.6469 5.41113H10.8535V7.20455H12.6469V5.41113Z" fill="black"/>
<path d="M14.4409 5.41113H12.6475V7.20455H14.4409V5.41113Z" fill="black"/>
<path d="M9.02877 3.61768H7.23535V5.4111H9.02877V3.61768Z" fill="black"/>
<path d="M10.8227 3.61768H9.0293V5.4111H10.8227V3.61768Z" fill="black"/>
<path d="M9.02877 5.41113H7.23535V7.20455H9.02877V5.41113Z" fill="black"/>
<path d="M10.8227 5.41113H9.0293V7.20455H10.8227V5.41113Z" fill="black"/>
<path d="M34.354 3.61768H32.5605V5.4111H34.354V3.61768Z" fill="black"/>
<path d="M36.1469 3.61768H34.3535V5.4111H36.1469V3.61768Z" fill="black"/>
<path d="M34.353 5.41113H32.5596V7.20455H34.353V5.41113Z" fill="black"/>
<path d="M36.1469 5.41113H34.3535V7.20455H36.1469V5.41113Z" fill="black"/>
<path d="M37.9721 3.61768H36.1787V5.4111H37.9721V3.61768Z" fill="black"/>
<path d="M39.7651 3.61768H37.9717V5.4111H39.7651V3.61768Z" fill="black"/>
<path d="M37.9712 5.41113H36.1777V7.20455H37.9712V5.41113Z" fill="black"/>
<path d="M39.7651 5.41113H37.9717V7.20455H39.7651V5.41113Z" fill="black"/>
<path d="M16.2651 0H14.4717V1.79342H16.2651V0Z" fill="black"/>
<path d="M18.0581 0H16.2646V1.79342H18.0581V0Z" fill="black"/>
<path d="M16.2641 1.79346H14.4707V3.58688H16.2641V1.79346Z" fill="black"/>
<path d="M18.0581 1.79346H16.2646V3.58688H18.0581V1.79346Z" fill="black"/>
<path d="M18.0581 14.4712H16.2646V16.2646H18.0581V14.4712Z" fill="#FF636B"/>
<path d="M19.8823 14.4712H18.0889V16.2646H19.8823V14.4712Z" fill="#FF636B"/>
<path d="M18.0581 16.2646H16.2646V18.0581H18.0581V16.2646Z" fill="#FF636B"/>
<path d="M19.8823 16.2646H18.0889V18.0581H19.8823V16.2646Z" fill="#FF636B"/>
<path d="M18.0581 18.0889H16.2646V19.8823H18.0581V18.0889Z" fill="white"/>
<path d="M19.8823 18.0889H18.0889V19.8823H19.8823V18.0889Z" fill="white"/>
<path d="M18.0581 19.8823H16.2646V21.6757H18.0581V19.8823Z" fill="white"/>
<path d="M19.8823 19.8823H18.0889V21.6757H19.8823V19.8823Z" fill="white"/>
<path d="M14.4399 21.7065H12.6465V23.5H14.4399V21.7065Z" fill="#FF636B"/>
<path d="M16.2641 21.7065H14.4707V23.5H16.2641V21.7065Z" fill="#FF636B"/>
<path d="M14.4399 23.5H12.6465V25.2934H14.4399V23.5Z" fill="#FF636B"/>
<path d="M16.2641 23.5H14.4707V25.2934H16.2641V23.5Z" fill="#FF636B"/>
<path d="M18.0581 25.3242H16.2646V27.1176H18.0581V25.3242Z" fill="white"/>
<path d="M19.8823 25.3242H18.0889V27.1176H19.8823V25.3242Z" fill="white"/>
<path d="M18.0581 27.1177H16.2646V28.9111H18.0581V27.1177Z" fill="white"/>
<path d="M19.8823 27.1177H18.0889V28.9111H19.8823V27.1177Z" fill="white"/>
<path d="M21.6753 32.5598H19.8818V34.3532H21.6753V32.5598Z" fill="white"/>
<path d="M23.4995 32.5598H21.7061V34.3532H23.4995V32.5598Z" fill="white"/>
<path d="M21.6753 34.3533H19.8818V36.1467H21.6753V34.3533Z" fill="white"/>
<path d="M23.4995 34.3533H21.7061V36.1467H23.4995V34.3533Z" fill="white"/>
<path d="M25.2934 32.5598H23.5V34.3532H25.2934V32.5598Z" fill="white"/>
<path d="M27.1176 32.5598H25.3242V34.3532H27.1176V32.5598Z" fill="white"/>
<path d="M25.2934 34.3533H23.5V36.1467H25.2934V34.3533Z" fill="white"/>
<path d="M27.1176 34.3533H25.3242V36.1467H27.1176V34.3533Z" fill="white"/>
<path d="M28.9116 28.9429H27.1182V30.7363H28.9116V28.9429Z" fill="white"/>
<path d="M30.7358 28.9419H28.9424V30.7353H30.7358V28.9419Z" fill="white"/>
<path d="M28.9116 30.7354H27.1182V32.5288H28.9116V30.7354Z" fill="white"/>
<path d="M30.7358 30.7354H28.9424V32.5288H30.7358V30.7354Z" fill="white"/>
<path d="M21.6753 10.8535H19.8818V12.6469H21.6753V10.8535Z" fill="#FF636B"/>
<path d="M23.4995 10.8533H21.7061V12.6467H23.4995V10.8533Z" fill="#FF636B"/>
<path d="M21.6753 12.6467H19.8818V14.4401H21.6753V12.6467Z" fill="#FF636B"/>
<path d="M23.4995 12.6467H21.7061V14.4401H23.4995V12.6467Z" fill="#FF636B"/>
<path d="M28.9116 25.3245H27.1182V27.1179H28.9116V25.3245Z" fill="white"/>
<path d="M30.7358 25.3242H28.9424V27.1176H30.7358V25.3242Z" fill="white"/>
<path d="M28.9116 27.1177H27.1182V28.9111H28.9116V27.1177Z" fill="white"/>
<path d="M30.7358 27.1177H28.9424V28.9111H30.7358V27.1177Z" fill="white"/>
<path d="M25.2934 10.8533H23.5V12.6467H25.2934V10.8533Z" fill="#FF636B"/>
<path d="M27.1176 10.8533H25.3242V12.6467H27.1176V10.8533Z" fill="#FF636B"/>
<path d="M25.2934 12.6467H23.5V14.4401H25.2934V12.6467Z" fill="#FF636B"/>
<path d="M27.1176 12.6467H25.3242V14.4401H27.1176V12.6467Z" fill="#FF636B"/>
<path d="M28.9116 14.4712H27.1182V16.2646H28.9116V14.4712Z" fill="black"/>
<path d="M30.7358 14.4712H28.9424V16.2646H30.7358V14.4712Z" fill="black"/>
<path d="M28.9116 16.2646H27.1182V18.0581H28.9116V16.2646Z" fill="black"/>
<path d="M30.7358 16.2646H28.9424V18.0581H30.7358V16.2646Z" fill="black"/>
<path d="M23.5005 0H21.707V1.79342H23.5005V0Z" fill="black"/>
<path d="M25.2934 0H23.5V1.79342H25.2934V0Z" fill="black"/>
<path d="M23.4995 1.79346H21.7061V3.58688H23.4995V1.79346Z" fill="black"/>
<path d="M25.2934 1.79346H23.5V3.58688H25.2934V1.79346Z" fill="black"/>
<path d="M19.8823 0H18.0889V1.79342H19.8823V0Z" fill="black"/>
<path d="M21.6753 0H19.8818V1.79342H21.6753V0Z" fill="black"/>
<path d="M19.8823 1.79346H18.0889V3.58688H19.8823V1.79346Z" fill="black"/>
<path d="M21.6753 1.79346H19.8818V3.58688H21.6753V1.79346Z" fill="black"/>
<path d="M27.1176 0H25.3242V1.79342H27.1176V0Z" fill="black"/>
<path d="M28.9116 0H27.1182V1.79342H28.9116V0Z" fill="black"/>
<path d="M27.1176 1.79346H25.3242V3.58688H27.1176V1.79346Z" fill="black"/>
<path d="M28.9116 1.79346H27.1182V3.58688H28.9116V1.79346Z" fill="black"/>
<path d="M30.7368 0H28.9434V1.79342H30.7368V0Z" fill="black"/>
<path d="M32.5297 0H30.7363V1.79342H32.5297V0Z" fill="black"/>
<path d="M30.7358 1.79346H28.9424V3.58688H30.7358V1.79346Z" fill="black"/>
<path d="M32.5297 1.79346H30.7363V3.58688H32.5297V1.79346Z" fill="black"/>
<path d="M45.2075 25.3242H43.4141V27.1176H45.2075V25.3242Z" fill="black"/>
<path d="M47.0005 25.3242H45.207V27.1176H47.0005V25.3242Z" fill="black"/>
<path d="M45.2065 27.1177H43.4131V28.9111H45.2065V27.1177Z" fill="black"/>
<path d="M47.0005 27.1177H45.207V28.9111H47.0005V27.1177Z" fill="black"/>
<path d="M19.8823 28.9421H18.0889V30.7356H19.8823V28.9421Z" fill="#E0E0E0"/>
<path d="M19.8823 30.7356H18.0889V32.529H19.8823V30.7356Z" fill="#E0E0E0"/>
<path d="M19.8823 25.3242H18.0889V27.1176H19.8823V25.3242Z" fill="#E0E0E0"/>
<path d="M19.8823 27.1177H18.0889V28.9111H19.8823V27.1177Z" fill="#E0E0E0"/>
<path d="M19.8823 21.7065H18.0889V23.5H19.8823V21.7065Z" fill="#E0E0E0"/>
<path d="M19.8823 23.5H18.0889V25.2934H19.8823V23.5Z" fill="#E0E0E0"/>
<path d="M18.0581 18.0889H16.2646V19.8823H18.0581V18.0889Z" fill="#E0E0E0"/>
<path d="M18.0581 19.8823H16.2646V21.6757H18.0581V19.8823Z" fill="#E0E0E0"/>
<path d="M21.6753 14.4712H19.8818V16.2646H21.6753V14.4712Z" fill="#E0E0E0"/>
<path d="M21.6753 16.2646H19.8818V18.0581H21.6753V16.2646Z" fill="#E0E0E0"/>
<path d="M27.1176 21.7065H25.3242V23.5H27.1176V21.7065Z" fill="#E0E0E0"/>
<path d="M27.1176 23.5H25.3242V25.2934H27.1176V23.5Z" fill="#E0E0E0"/>
<path d="M27.1176 23.5H25.3242V25.2934H27.1176V23.5Z" fill="#E0E0E0"/>
<path d="M27.1176 25.3242H25.3242V27.1176H27.1176V25.3242Z" fill="#E0E0E0"/>
<path d="M18.0581 32.5598H16.2646V34.3532H18.0581V32.5598Z" fill="#E0E0E0"/>
<path d="M18.0581 34.3533H16.2646V36.1467H18.0581V34.3533Z" fill="#E0E0E0"/>
<path d="M14.4399 36.1777H12.6465V37.9712H14.4399V36.1777Z" fill="#E0E0E0"/>
<path d="M14.4399 37.9712H12.6465V39.7646H14.4399V37.9712Z" fill="#E0E0E0"/>
<path d="M16.2651 39.7954H14.4717V41.5888H16.2651V39.7954Z" fill="#E0E0E0"/>
<path d="M16.2641 41.5889H14.4707V43.3823H16.2641V41.5889Z" fill="#E0E0E0"/>
<path d="M45.2065 28.9421H43.4131V30.7356H45.2065V28.9421Z" fill="black"/>
<path d="M47.0005 28.9419H45.207V30.7353H47.0005V28.9419Z" fill="black"/>
<path d="M45.2065 30.7354H43.4131V32.5288H45.2065V30.7354Z" fill="black"/>
<path d="M47.0005 30.7354H45.207V32.5288H47.0005V30.7354Z" fill="black"/>
<path d="M45.2075 21.7065H43.4141V23.5H45.2075V21.7065Z" fill="black"/>
<path d="M47.0005 21.7065H45.207V23.5H47.0005V21.7065Z" fill="black"/>
<path d="M45.2065 23.5H43.4131V25.2934H45.2065V23.5Z" fill="black"/>
<path d="M47.0005 23.5H45.207V25.2934H47.0005V23.5Z" fill="black"/>
<path d="M45.2075 18.0889H43.4141V19.8823H45.2075V18.0889Z" fill="black"/>
<path d="M47.0005 18.0889H45.207V19.8823H47.0005V18.0889Z" fill="black"/>
<path d="M45.2065 19.8823H43.4131V21.6757H45.2065V19.8823Z" fill="black"/>
<path d="M47.0005 19.8823H45.207V21.6757H47.0005V19.8823Z" fill="black"/>
<path d="M45.2075 14.4712H43.4141V16.2646H45.2075V14.4712Z" fill="black"/>
<path d="M47.0005 14.4712H45.207V16.2646H47.0005V14.4712Z" fill="black"/>
<path d="M45.2065 16.2646H43.4131V18.0581H45.2065V16.2646Z" fill="black"/>
<path d="M47.0005 16.2646H45.207V18.0581H47.0005V16.2646Z" fill="black"/>
<path d="M19.8823 14.4712H18.0889V16.2646H19.8823V14.4712Z" fill="black"/>
<path d="M18.0581 16.2646H16.2646V18.0581H18.0581V16.2646Z" fill="black"/>
<path d="M18.0581 14.4712H16.2646V16.2646H18.0581V14.4712Z" fill="black"/>
<path d="M19.8823 16.2644H18.0889V18.0578H19.8823V16.2644Z" fill="black"/>
<path d="M16.2641 18.0889H14.4707V19.8823H16.2641V18.0889Z" fill="black"/>
<path d="M14.4399 19.8823H12.6465V21.6757H14.4399V19.8823Z" fill="black"/>
<path d="M14.4399 18.0889H12.6465V19.8823H14.4399V18.0889Z" fill="black"/>
<path d="M16.2641 19.8823H14.4707V21.6757H16.2641V19.8823Z" fill="black"/>
<path d="M16.2641 28.9419H14.4707V30.7353H16.2641V28.9419Z" fill="black"/>
<path d="M18.0581 28.9419H16.2646V30.7353H18.0581V28.9419Z" fill="black"/>
<path d="M16.2641 30.7354H14.4707V32.5288H16.2641V30.7354Z" fill="black"/>
<path d="M16.2651 21.7065H14.4717V23.5H16.2651V21.7065Z" fill="black"/>
<path d="M16.2641 23.5H14.4707V25.2934H16.2641V23.5Z" fill="black"/>
<path d="M16.2651 25.3245H14.4717V27.1179H16.2651V25.3245Z" fill="black"/>
<path d="M16.2641 27.1177H14.4707V28.9111H16.2641V27.1177Z" fill="black"/>
<path d="M18.0581 25.3242H16.2646V27.1176H18.0581V25.3242Z" fill="black"/>
<path d="M18.0581 27.1177H16.2646V28.9111H18.0581V27.1177Z" fill="black"/>
<path d="M18.0581 21.7065H16.2646V23.5H18.0581V21.7065Z" fill="black"/>
<path d="M18.0581 23.5H16.2646V25.2934H18.0581V23.5Z" fill="black"/>
<path d="M23.4995 12.6467H21.7061V14.4401H23.4995V12.6467Z" fill="black"/>
<path d="M25.2934 12.6467H23.5V14.4401H25.2934V12.6467Z" fill="black"/>
<path d="M21.6753 12.6467H19.8818V14.4401H21.6753V12.6467Z" fill="black"/>
<path d="M21.6753 10.8535H19.8818V12.6469H21.6753V10.8535Z" fill="black"/>
<path d="M23.4995 10.8533H21.7061V12.6467H23.4995V10.8533Z" fill="black"/>
<path d="M25.2934 12.6467H23.5V14.4401H25.2934V12.6467Z" fill="black"/>
<path d="M25.2934 10.8533H23.5V12.6467H25.2934V10.8533Z" fill="black"/>
<path d="M27.1176 12.6467H25.3242V14.4401H27.1176V12.6467Z" fill="black"/>
<path d="M27.1176 10.8533H25.3242V12.6467H27.1176V10.8533Z" fill="black"/>
<path d="M32.5288 18.0889H30.7354V19.8823H32.5288V18.0889Z" fill="black"/>
<path d="M34.353 18.0889H32.5596V19.8823H34.353V18.0889Z" fill="black"/>
<path d="M34.353 19.8823H32.5596V21.6757H34.353V19.8823Z" fill="black"/>
<path d="M32.5288 19.8823H30.7354V21.6757H32.5288V19.8823Z" fill="black"/>
<path d="M32.5288 21.7065H30.7354V23.5H32.5288V21.7065Z" fill="black"/>
<path d="M14.4399 32.5598H12.6465V34.3532H14.4399V32.5598Z" fill="black"/>
<path d="M14.4399 34.3533H12.6465V36.1467H14.4399V34.3533Z" fill="black"/>
<path d="M16.2651 32.5598H14.4717V34.3532H16.2651V32.5598Z" fill="black"/>
<path d="M16.2641 34.3533H14.4707V36.1467H16.2641V34.3533Z" fill="black"/>
<path d="M10.8227 36.1777H9.0293V37.9712H10.8227V36.1777Z" fill="black"/>
<path d="M10.8227 37.9712H9.0293V39.7646H10.8227V37.9712Z" fill="black"/>
<path d="M12.6469 36.1777H10.8535V37.9712H12.6469V36.1777Z" fill="black"/>
<path d="M12.6469 37.9712H10.8535V39.7646H12.6469V37.9712Z" fill="black"/>
<path d="M32.5288 32.5598H30.7354V34.3532H32.5288V32.5598Z" fill="white"/>
<path d="M34.353 32.5598H32.5596V34.3532H34.353V32.5598Z" fill="white"/>
<path d="M32.5288 34.3533H30.7354V36.1467H32.5288V34.3533Z" fill="white"/>
<path d="M34.353 34.3533H32.5596V36.1467H34.353V34.3533Z" fill="white"/>
<path d="M34.353 32.5598H32.5596V34.3532H34.353V32.5598Z" fill="black"/>
<path d="M34.353 34.3533H32.5596V36.1467H34.353V34.3533Z" fill="black"/>
<path d="M32.5288 32.5598H30.7354V34.3532H32.5288V32.5598Z" fill="black"/>
<path d="M32.5288 34.3533H30.7354V36.1467H32.5288V34.3533Z" fill="black"/>
<path d="M36.1469 36.1777H34.3535V37.9712H36.1469V36.1777Z" fill="white"/>
<path d="M37.9712 36.1777H36.1777V37.9712H37.9712V36.1777Z" fill="white"/>
<path d="M36.1469 37.9712H34.3535V39.7646H36.1469V37.9712Z" fill="white"/>
<path d="M37.9712 37.9712H36.1777V39.7646H37.9712V37.9712Z" fill="white"/>
<path d="M37.9721 36.1777H36.1787V37.9712H37.9721V36.1777Z" fill="black"/>
<path d="M37.9712 37.9712H36.1777V39.7646H37.9712V37.9712Z" fill="black"/>
<path d="M36.1469 36.1777H34.3535V37.9712H36.1469V36.1777Z" fill="black"/>
<path d="M36.1469 37.9712H34.3535V39.7646H36.1469V37.9712Z" fill="black"/>
<path d="M18.0581 30.7356H16.2646V32.529H18.0581V30.7356Z" fill="black"/>
<path d="M25.2934 25.3242H23.5V27.1176H25.2934V25.3242Z" fill="black"/>
<path d="M23.5005 21.7065H21.707V23.5H23.5005V21.7065Z" fill="black"/>
<path d="M23.4995 23.5H21.7061V25.2934H23.4995V23.5Z" fill="black"/>
<path d="M25.2934 21.7065H23.5V23.5H25.2934V21.7065Z" fill="black"/>
<path d="M25.2934 23.5H23.5V25.2934H25.2934V23.5Z" fill="black"/>
<path d="M30.7368 25.3245H28.9434V27.1179H30.7368V25.3245Z" fill="black"/>
<path d="M30.7358 27.1177H28.9424V28.9111H30.7358V27.1177Z" fill="black"/>
<path d="M32.5288 25.3242H30.7354V27.1176H32.5288V25.3242Z" fill="black"/>
<path d="M32.5288 27.1177H30.7354V28.9111H32.5288V27.1177Z" fill="black"/>
<path d="M30.7368 28.9421H28.9434V30.7356H30.7368V28.9421Z" fill="black"/>
<path d="M30.7358 30.7354H28.9424V32.5288H30.7358V30.7354Z" fill="black"/>
<path d="M32.5288 28.9419H30.7354V30.7353H32.5288V28.9419Z" fill="black"/>
<path d="M32.5288 30.7354H30.7354V32.5288H32.5288V30.7354Z" fill="black"/>
<path d="M30.7368 22.0776H28.9434V23.6855H30.7368V22.0776Z" fill="black"/>
<path d="M30.7358 23.7166H28.9424V25.3244H30.7358V23.7166Z" fill="black"/>
<path d="M32.5288 22.0776H30.7354V23.6855H32.5288V22.0776Z" fill="black"/>
<path d="M32.5288 23.7166H30.7354V25.3244H32.5288V23.7166Z" fill="black"/>
</svg>
