<svg width="27" height="28" viewBox="0 0 27 28" fill="none" xmlns="http://www.w3.org/2000/svg">
<g clip-path="url(#clip0)">
<path d="M23.5205 7.63527V5.09118H20.9053V2.54409H18.2932V0H15.6811H13.0659H10.4538H7.83861V2.54409H5.22651V5.09118H2.61133V7.63527H5.22651H7.83861V5.09118H10.4538V2.54409H13.0659H15.6811V5.09118H18.2932V7.63527H20.9053H23.5205V10.1824H20.9053V12.7265V15.2735H23.5205V17.8176H5.22651H2.61133V20.3617V25.4529H5.22651V20.3617H9.1462V22.9088H11.7583V20.3617H14.2504V22.9088H16.8625V20.3617H20.9053V21.2247V22.9088V25.4529H23.5205V22.9088V21.2247V20.3617V19.6845V17.8176H26.1326V15.2735V15.0158V12.7265V10.1824V7.63527H23.5205Z" fill="black"/>
<path d="M5.22728 15.2735V12.7264V10.1823H2.6121V7.63525H0V17.8176H2.6121V15.2735H5.22728Z" fill="black"/>
<path d="M15.6811 25.4529H13.0659H10.4538H7.83867H5.22656V28H7.83867H10.4538H13.0659H15.6811H18.2932H20.9053V25.4529H18.2932H15.6811Z" fill="black"/>
<path d="M14.3738 15.2736H16.9859V12.7265V10.1824H14.3738H11.7586H9.14648V12.7265V15.2736H11.7586H14.3738Z" fill="black"/>
</g>
<defs>
<clipPath id="clip0">
<rect width="26.1333" height="28" fill="white"/>
</clipPath>
</defs>
</svg>
