<svg width="29" height="29" viewBox="0 0 29 29" fill="none" xmlns="http://www.w3.org/2000/svg">
<path d="M21.9074 9.34321L21.9033 12.4548L25.0332 12.4589L25.0374 9.34731L21.9074 9.34321Z" fill="black"/>
<path d="M25.0295 12.456L25.0254 15.5676L28.1553 15.5718L28.1595 12.4601L25.0295 12.456Z" fill="black"/>
<path d="M12.5334 -5.34848e-05L12.5293 3.11157L15.6592 3.11567L15.6633 0.00404898L12.5334 -5.34848e-05Z" fill="black"/>
<path d="M18.7815 6.23041L18.7773 9.34204L21.9073 9.34617L21.9114 6.23454L18.7815 6.23041Z" fill="black"/>
<path d="M0.00415524 12.423L0 15.5347L3.12991 15.5388L3.13406 12.4272L0.00415524 12.423Z" fill="black"/>
<path d="M3.1399 9.31953L3.13574 12.4312L6.26565 12.4353L6.2698 9.32366L3.1399 9.31953Z" fill="black"/>
<path d="M6.27076 6.21137L6.2666 9.323L9.39651 9.32713L9.40066 6.2155L6.27076 6.21137Z" fill="black"/>
<path d="M15.6594 3.11762L15.6553 6.22925L18.7852 6.23338L18.7893 3.12175L15.6594 3.11762Z" fill="black"/>
<path d="M9.40256 3.1081L9.39844 6.21973L12.5283 6.22383L12.5325 3.1122L9.40256 3.1081Z" fill="black"/>
<path d="M3.13126 15.5427C3.12657 18.6544 3.12188 21.7613 3.11719 24.8729L6.2471 24.8776C6.25179 21.766 6.25648 18.659 6.26117 15.5474L3.13126 15.5427Z" fill="black"/>
<path d="M21.8961 18.6732C21.8914 20.7445 21.8914 22.8204 21.8867 24.8917L25.0166 24.8964C25.0213 21.7848 25.026 18.6778 25.0307 15.5662L21.9008 15.5615L21.8961 18.6732Z" fill="black"/>
<path d="M6.24219 27.9847C11.4556 27.9893 16.669 27.9987 21.8823 28.0033L21.887 24.8917C16.6737 24.887 11.4603 24.8777 6.24688 24.873L6.24219 27.9847Z" fill="black"/>
</svg>
