<svg width="37" height="34" viewBox="0 0 37 34" fill="none" xmlns="http://www.w3.org/2000/svg">
<path d="M25.0575 25.4333H22.0698V30.7081H2.9834V33.7811H31.026V30.7081H25.0575V25.4333Z" fill="black"/>
<path d="M31.0268 21.4967H2.98422V15.3542H0V30.7085H2.98422V24.5661H31.0268V30.7085H34.0145V15.3542H31.0268V21.4967Z" fill="black"/>
<path d="M22.0698 20.665H25.0575V15.3542H31.026V12.2848H28.0417V9.21175H30.4214H31.026H34.0137V6.14235H31.026H30.4214H28.0417V3.06934H25.0575V6.14235V9.21175H22.0698V6.14235V3.06934H19.0855V6.14235H17.7604H16.0978H13.1136V9.21175H16.0978H16.8535H19.0855V12.2848H2.9834V15.3542H22.0698V20.665Z" fill="black"/>
<path d="M31.0282 3.0694H34.0159V0H31.0282H30.3427H28.0439V3.0694H30.3427H31.0282Z" fill="black"/>
<path d="M36.9998 3.06934H34.0156V6.13873H36.9998V3.06934Z" fill="black"/>
<path d="M16.0985 3.0694H19.0862V0H16.0985H15.6802H13.1143V3.0694H15.6802H16.0985Z" fill="black"/>
<path d="M13.1112 3.06934H10.127V6.13873H13.1112V3.06934Z" fill="black"/>
</svg>
