<svg width="21" height="21" viewBox="0 0 21 21" fill="none" xmlns="http://www.w3.org/2000/svg">
<path d="M2.2242 11.1169L2.22753 4.45767L0.00333471 4.44766L0 11.1069L2.2242 11.1169L2.22086 13.3411L4.44506 13.3445V11.1203L2.2242 11.1169Z" fill="black"/>
<path d="M8.88282 17.7923L8.87988 20.0165L11.1041 20.0194L11.107 17.7952L8.88282 17.7923Z" fill="black"/>
<path d="M4.44338 13.3421L4.44043 15.5663L6.66463 15.5693L6.66758 13.3451L4.44338 13.3421Z" fill="black"/>
<path d="M17.7865 4.44766L17.7832 11.1269L20.0074 11.1336L20.0107 4.45767L17.7865 4.44766Z" fill="black"/>
<path d="M2.22756 2.22356L2.22461 4.44775L4.44881 4.45071L4.45176 2.22651L2.22756 2.22356Z" fill="black"/>
<path d="M4.44631 0.0027616L4.44336 2.22696L6.66756 2.22991L6.67051 0.00571441L4.44631 0.0027616Z" fill="black"/>
<path d="M6.67092 2.22154L6.66797 4.44574L8.89217 4.44869L8.89512 2.22449L6.67092 2.22154Z" fill="black"/>
<path d="M11.1153 2.22423L11.1123 4.44843L13.3365 4.45138L13.3395 2.22718L11.1153 2.22423Z" fill="black"/>
<path d="M13.334 1.50204e-05L13.3311 2.22421L15.5553 2.22717L15.5582 0.00296783L13.334 1.50204e-05Z" fill="black"/>
<path d="M15.5576 2.22215L15.5547 4.44635L17.7789 4.4493L17.7818 2.2251L15.5576 2.22215Z" fill="black"/>
<path d="M8.89455 4.44621L8.8916 6.67041L11.1158 6.67336L11.1188 4.44917L8.89455 4.44621Z" fill="black"/>
<path d="M15.5625 11.134L15.5596 13.3582L17.7838 13.3611L17.7867 11.1369L15.5625 11.134Z" fill="black"/>
<path d="M13.3369 13.3523L13.334 15.5765L15.5582 15.5794L15.5611 13.3552L13.3369 13.3523Z" fill="black"/>
<path d="M6.66506 15.5672L6.66211 17.7914L8.88631 17.7943L8.88926 15.5701L6.66506 15.5672Z" fill="black"/>
<path d="M11.1084 15.574L11.1055 17.7982L13.3297 17.8011L13.3326 15.5769L11.1084 15.574Z" fill="black"/>
</svg>
