<svg width="27" height="27" viewBox="0 0 27 27" fill="none" xmlns="http://www.w3.org/2000/svg">
<path d="M23.1433 3.85718H19.2861V7.71432H23.1433V3.85718Z" fill="black"/>
<path d="M23.1426 7.71436V11.5715V15.4286V19.2858H26.9997V15.4286V11.5715V7.71436H23.1426Z" fill="black"/>
<path d="M23.1433 19.2856H19.2861V23.1428H23.1433V19.2856Z" fill="black"/>
<path d="M3.85714 11.5715V7.71436H0V11.5715V15.4286V19.2858H3.85714V15.4286V11.5715Z" fill="black"/>
<path d="M7.71456 19.2856H3.85742V23.1428H7.71456V19.2856Z" fill="black"/>
<path d="M15.4282 3.85714H19.2853V0H15.4282H11.571H7.71387V3.85714H11.571H15.4282Z" fill="black"/>
<path d="M15.4284 7.71436H11.5713V11.5715V15.4286H15.4284H19.2856V11.5715H15.4284V7.71436Z" fill="black"/>
<path d="M11.571 23.1428H7.71387V27H11.571H15.4282H19.2853V23.1428H15.4282H11.571Z" fill="black"/>
<path d="M7.71456 3.85718H3.85742V7.71432H7.71456V3.85718Z" fill="black"/>
</svg>
