<svg width="22" height="16" viewBox="0 0 22 16" fill="none" xmlns="http://www.w3.org/2000/svg">
<path d="M19.5426 1.77521V3.55306H17.7647H15.9896H14.2117H12.4365V5.33091H14.2117H15.9896H17.7647H19.5426V7.1061V8.88395V10.6591H17.7647H15.9896H14.2117H12.4365V12.437H14.2117H15.9896H17.7647H19.5426V14.2122H21.3178V12.437V10.6591V8.88395V7.1061V5.33091V3.55306V1.77521H19.5426Z" fill="black"/>
<path d="M5.33109 1.77519H7.10628H8.88413H10.6593H12.4372H14.2124H15.9902H17.7654H19.5432V0H17.7654H15.9902H14.2124H12.4372H10.6593H8.88413H7.10628H5.33109H3.55324H1.77539V1.77519H3.55324H5.33109Z" fill="black"/>
<path d="M15.9902 14.2122H14.2124H12.4372H10.6593H8.88413H7.10628H5.33109H3.55324H1.77539V15.99H3.55324H5.33109H7.10628H8.88413H10.6593H12.4372H14.2124H15.9902H17.7654H19.5432V14.2122H17.7654H15.9902Z" fill="black"/>
<path d="M10.6592 7.10609V8.88394V10.6591H12.437V8.88394V7.10609V5.3309H10.6592V7.10609Z" fill="black"/>
<path d="M17.765 8.88393V7.10608H15.9898H14.2119V8.88393H15.9898H17.765Z" fill="black"/>
<path d="M1.77519 10.6591V8.88395V7.1061V5.33091V3.55306V1.77521H0V3.55306V5.33091V7.1061V8.88395V10.6591V12.437V14.2122H1.77519V12.437V10.6591Z" fill="black"/>
</svg>
