<svg width="37" height="28" viewBox="0 0 37 28" fill="none" xmlns="http://www.w3.org/2000/svg">
<path d="M33.9161 3.08325V6.16728H30.8333H27.7498H24.6657H21.583V9.25043H24.6657H27.7498H30.8333H33.9161V12.3336V15.4172V18.5003H30.8333H27.7498H24.6657H21.583V21.5835H24.6657H27.7498H30.8333H33.9161V24.6671H36.9996V21.5835V18.5003V15.4172V12.3336V9.25043V6.16728V3.08325H33.9161Z" fill="black"/>
<path d="M9.24975 3.08315H12.3333H15.4165H18.4996H21.5832H24.6659H27.75H30.8336H33.9163V0H30.8336H27.75H24.6659H21.5832H18.4996H15.4165H12.3333H9.24975H6.1666H3.08301V3.08315H6.1666H9.24975Z" fill="black"/>
<path d="M27.75 24.667H24.6659H21.5832H18.4996H15.4165H12.3333H9.24975H6.1666H3.08301V27.7501H6.1666H9.24975H12.3333H15.4165H18.4996H21.5832H24.6659H27.75H30.8336H33.9163V24.667H30.8336H27.75Z" fill="black"/>
<path d="M18.5 12.3336V15.4172V18.5004H21.5836V15.4172V12.3336V9.25049H18.5V12.3336Z" fill="black"/>
<path d="M30.8336 15.4171V12.3335H27.75H24.666V15.4171H27.75H30.8336Z" fill="black"/>
<path d="M3.08315 18.5003V15.4172V12.3336V9.25043V6.16728V3.08325H0V6.16728V9.25043V12.3336V15.4172V18.5003V21.5835V24.6671H3.08315V21.5835V18.5003Z" fill="black"/>
</svg>
