<svg width="822" height="135" viewBox="0 0 822 135" fill="none" xmlns="http://www.w3.org/2000/svg">
<path fill-rule="evenodd" clip-rule="evenodd" d="M297.007 74.2888L285.719 114.907H273.979L258.242 55.4625H271.136L280.488 98.5116H280.817L291.94 55.4625H302.445L313.568 98.5116H313.897L323.29 55.4625H336.184L320.406 114.907H308.665L297.378 74.2888H297.007ZM353.321 106.915C358.553 106.915 362.878 103.496 362.878 98.7176V95.5043L353.568 96.0811C349.078 96.4106 346.524 98.4292 346.524 101.56C346.524 104.856 349.243 106.915 353.321 106.915ZM349.366 115.608C340.962 115.608 334.577 110.17 334.577 102.219C334.577 94.1861 340.756 89.531 351.756 88.8719L362.878 88.2128V85.2879C362.878 81.1684 359.995 78.779 355.463 78.779C350.973 78.779 348.13 81.0036 347.554 84.258H336.554C337.008 75.6894 344.299 69.7985 355.999 69.7985C367.327 69.7985 374.701 75.6482 374.701 84.5464V114.907H363.084V108.151H362.837C360.365 112.848 354.886 115.608 349.366 115.608ZM382.734 114.907V55.4625H394.763V114.907H382.734ZM403.167 114.907V55.4625H415.196V114.907H403.167ZM443.127 78.6967C437.854 78.6967 434.064 82.6926 433.652 88.2128H452.396C452.149 82.569 448.482 78.6967 443.127 78.6967ZM452.56 101.395H463.601C462.283 110.046 454.373 115.855 443.456 115.855C429.862 115.855 421.705 107.163 421.705 93.0326C421.705 78.9438 429.944 69.7985 443.003 69.7985C455.856 69.7985 463.972 78.4907 463.972 91.9204V95.5867H433.528V96.3283C433.528 102.631 437.524 106.957 443.662 106.957C448.07 106.957 451.448 104.773 452.56 101.395ZM473.364 60.5707H485.393V70.746H493.55V79.8089H485.393V100.942C485.393 104.32 487.041 105.927 490.584 105.927C491.655 105.927 492.767 105.844 493.509 105.721V114.578C492.273 114.866 490.213 115.072 487.782 115.072C477.401 115.072 473.364 111.612 473.364 103.002V79.8089H467.144V70.746H473.364V60.5707ZM527.454 115.937C510.152 115.937 499.317 104.361 499.317 85.1643C499.317 66.0085 510.234 54.4326 527.454 54.4326C541.748 54.4326 552.624 63.4956 553.571 76.8017H541.46C540.307 69.5101 534.704 64.7314 527.454 64.7314C518.061 64.7314 512.005 72.5998 512.005 85.1231C512.005 97.8113 517.979 105.638 527.495 105.638C534.869 105.638 540.183 101.313 541.501 94.2685H553.613C552.212 107.533 542.037 115.937 527.454 115.937ZM580.513 115.855C567.166 115.855 558.638 107.286 558.638 92.7855C558.638 78.4907 567.289 69.7985 580.513 69.7985C593.737 69.7985 602.388 78.4495 602.388 92.7855C602.388 107.327 593.86 115.855 580.513 115.855ZM580.513 106.668C586.404 106.668 590.153 101.684 590.153 92.8266C590.153 84.052 586.363 78.985 580.513 78.985C574.663 78.985 570.832 84.052 570.832 92.8266C570.832 101.684 574.581 106.668 580.513 106.668ZM608.567 114.907V70.746H620.184V78.6143H620.431C622.78 73.1353 627.435 69.9221 634.232 69.9221C644.036 69.9221 649.556 76.1014 649.556 86.4414V114.907H637.527V88.9543C637.527 83.1869 634.809 79.8913 629.412 79.8913C624.015 79.8913 620.596 83.8461 620.596 89.5722V114.907H608.567ZM657.178 114.907V70.746H668.795V78.6143H669.042C671.39 73.1353 676.045 69.9221 682.842 69.9221C692.647 69.9221 698.167 76.1014 698.167 86.4414V114.907H686.138V88.9543C686.138 83.1869 683.419 79.8913 678.022 79.8913C672.626 79.8913 669.207 83.8461 669.207 89.5722V114.907H657.178ZM725.603 78.6967C720.33 78.6967 716.54 82.6926 716.128 88.2128H734.872C734.625 82.569 730.958 78.6967 725.603 78.6967ZM735.037 101.395H746.077C744.759 110.046 736.849 115.855 725.933 115.855C712.338 115.855 704.181 107.163 704.181 93.0326C704.181 78.9438 712.421 69.7985 725.479 69.7985C738.332 69.7985 746.448 78.4907 746.448 91.9204V95.5867H716.005V96.3283C716.005 102.631 720 106.957 726.139 106.957C730.546 106.957 733.924 104.773 735.037 101.395ZM792.751 87.1829H781.587C780.887 82.5278 777.797 79.2322 772.854 79.2322C766.922 79.2322 763.214 84.258 763.214 92.7855C763.214 101.478 766.922 106.421 772.895 106.421C777.715 106.421 780.846 103.537 781.587 98.7176H792.793C792.175 109.14 784.389 115.855 772.772 115.855C759.466 115.855 751.021 107.204 751.021 92.7855C751.021 78.6143 759.466 69.7985 772.689 69.7985C784.636 69.7985 792.216 77.1724 792.751 87.1829ZM801.814 60.5707H813.843V70.746H822V79.8089H813.843V100.942C813.843 104.32 815.491 105.927 819.034 105.927C820.105 105.927 821.217 105.844 821.959 105.721V114.578C820.723 114.866 818.663 115.072 816.233 115.072C805.852 115.072 801.814 111.612 801.814 103.002V79.8089H795.594V70.746H801.814V60.5707Z" fill="#1D2028"/>
<path d="M44.8761 27.1141C80.512 -7.77633 138.289 -7.77633 173.925 27.1141L178.214 31.3133C179.996 33.0578 179.996 35.8862 178.214 37.6307L163.543 51.9951C162.652 52.8674 161.207 52.8674 160.316 51.9951L154.414 46.2166C129.554 21.8762 89.2471 21.8762 64.3867 46.2166L58.0662 52.4049C57.1753 53.2772 55.7309 53.2772 54.84 52.4049L40.1687 38.0405C38.3869 36.296 38.3869 33.4676 40.1687 31.7231L44.8761 27.1141ZM204.266 56.8212L217.324 69.6055C219.106 71.35 219.106 74.1785 217.324 75.923L158.447 133.569C156.665 135.314 153.776 135.314 151.995 133.569C151.995 133.569 151.995 133.569 151.995 133.569L110.207 92.656C109.762 92.2199 109.04 92.2199 108.594 92.656C108.594 92.656 108.594 92.656 108.594 92.656L66.8079 133.569C65.0262 135.314 62.1373 135.314 60.3555 133.569C60.3555 133.569 60.3555 133.569 60.3555 133.569L1.47697 75.9222C-0.304823 74.1777 -0.304823 71.3493 1.47697 69.6048L14.5344 56.8204C16.3162 55.0759 19.2051 55.0759 20.9869 56.8204L62.7747 97.7342C63.2201 98.1704 63.9423 98.1704 64.3878 97.7342C64.3878 97.7342 64.3878 97.7342 64.3878 97.7342L106.174 56.8204C107.955 55.0759 110.844 55.0758 112.626 56.8203C112.626 56.8203 112.626 56.8203 112.626 56.8204L154.414 97.7342C154.859 98.1703 155.581 98.1703 156.027 97.7342L197.814 56.8212C199.596 55.0766 202.485 55.0766 204.266 56.8212Z" fill="#4C4C4C"/>
</svg>
