<svg width="21" height="14" viewBox="0 0 21 14" fill="none" xmlns="http://www.w3.org/2000/svg">
<path fill-rule="evenodd" clip-rule="evenodd" d="M5.3875 1.99534H7.08368H8.77963H10.4756H12.1717H13.8674H15.5639H17.2601H18.7778V3.34174H17.2705H15.7628H14.2549H12.7476V4.76664H11.4183V6.24461V7.72277V9.20073H12.7476V10.6259H14.2549H15.7628H17.2705H18.7778V11.972H17.2601H15.5639H13.8674H12.1717H10.4756H8.77963H7.08368H5.3875H3.69156H1.99538V13.9674H3.69156H5.3875H7.08368H8.77963H10.4756H12.1717H13.8674H15.5639H17.2601H18.9558V12.0829H20.2856V10.6259V9.16913V7.71234V6.25533V4.79854V3.34174V1.88453H18.9558V0H17.2601H15.5639H13.8674H12.1717H10.4756H8.77963H7.08368H5.3875H3.69156H1.99538V1.99534H3.69156H5.3875ZM12.7485 6.24461V4.79854H14.2549H15.7628H17.2705H18.7778V6.25533V7.71234V9.16913H17.2705H15.7628H14.2549H12.7485V7.72277V6.24461ZM17.6761 5.726V7.07446H16.3708H15.0654V5.726H16.3708H17.6761ZM1.99502 9.12156V7.69644V6.27111V4.84599V3.42086V1.99533H0.997669H0.997348H0V3.42086V4.84599V6.27111V7.69644V9.12156V10.5467V11.972H0.997348H0.997669H1.99502V10.5467V9.12156Z" fill="black"/>
</svg>
